<?xml version="1.0" standalone="no"?>
<!DOCTYPE svg PUBLIC "-//W3C//DTD SVG 1.1//EN" "http://www.w3.org/Graphics/SVG/1.1/DTD/svg11.dtd" >
<svg>
<metadata>
Created by FontForge 20120731 at Fri Nov  7 10:48:41 2014
 By Orthosie Webhosting
Copyright (c) 2005 by Frantisek Storm, www.stormtype.com. All rights reserved.
</metadata>
<defs>
<font id="EtelkaNarrowTextProRegular" horiz-adv-x="398" >
  <font-face 
    font-family="EtelkaNarrowTextProRegular"
    font-weight="400"
    font-stretch="condensed"
    units-per-em="1000"
    panose-1="2 0 5 3 3 0 0 2 0 4"
    ascent="800"
    descent="-200"
    x-height="507"
    cap-height="697"
    bbox="-164 -314 1074 882"
    underline-thickness="50"
    underline-position="-100"
    unicode-range="U+0020-FB04"
  />
<missing-glyph horiz-adv-x="412" 
d="M0 0v697h412v-697h-412zM206 407l120 224h-240zM238 349l120 -225v449zM86 66h240l-120 226zM54 573v-449l120 225z" />
    <glyph glyph-name="ff" unicode="ff" horiz-adv-x="541" 
d="M401 544v-37h138v-84h-138v-423h-76v423h-173v-423h-75v423h-70v84h70v34q0 56 14 94t40 55.5t53.5 24t64.5 6.5q61 0 122 -29q30 29 94 29q55 0 102 -19l-18 -77q-33 13 -76 13q-35 0 -53.5 -20.5t-18.5 -73.5zM152 538v-31h173v40q0 40 9 74q-43 17 -86 17
q-49 0 -72.5 -20t-23.5 -80z" />
    <glyph glyph-name="fi" unicode="fi" horiz-adv-x="459" 
d="M401 507v-507h-76v423h-173v-423h-75v423h-70v84h70v34q0 103 46 141.5t130 38.5q80 0 144 -32l-20 -77q-52 26 -117 26q-55 0 -81.5 -20t-26.5 -80v-31h249z" />
    <glyph glyph-name="fl" unicode="fl" horiz-adv-x="463" 
d="M401 689v-553q0 -40 7.5 -63.5t27.5 -50.5l-64 -44q-47 59 -47 154v493q-35 13 -77 13q-47 0 -71.5 -20.5t-24.5 -79.5v-31h126v-84h-126v-423h-75v423h-70v84h70v34q0 104 45 142t127 38q79 0 152 -32z" />
    <glyph glyph-name="ffi" unicode="ffi" horiz-adv-x="708" 
d="M650 507v-507h-75v423h-174v-423h-76v423h-173v-423h-75v423h-70v84h70v34q0 103 43.5 141.5t118.5 38.5t139 -33q42 33 124 33q80 0 144 -32l-19 -77q-55 26 -118 26q-54 0 -81 -20t-27 -80v-31h249zM152 538v-31h173v34q0 47 12 78q-41 19 -89 19q-49 0 -72.5 -20
t-23.5 -80z" />
    <glyph glyph-name="ffl" unicode="ffl" horiz-adv-x="712" 
d="M650 689v-553q0 -67 35 -114l-64 -44q-46 58 -46 154v493q-36 13 -78 13q-47 0 -71.5 -21.5t-24.5 -78.5v-31h126v-84h-126v-423h-76v423h-173v-423h-75v423h-70v84h70v34q0 103 43.5 141.5t118.5 38.5t138 -33q41 33 120 33q80 0 153 -32zM325 541q0 47 12 79
q-46 18 -89 18q-54 0 -75 -24t-21 -91v-16h173v34z" />
    <glyph glyph-name="Th" unicode="Th" horiz-adv-x="847" 
d="M791 289v-289h-76v277q0 96 -20.5 127t-73.5 31q-39 0 -67 -15.5t-28 -42.5v-377h-76v610h-173v-610h-83v610h-191v87h523v-214q46 38 115 38q80 0 115 -48.5t35 -183.5z" />
    <glyph glyph-name="ffk" unicode="ffk" horiz-adv-x="928" 
d="M650 689v-689h-75v625q-36 13 -78 13q-47 0 -71.5 -20.5t-24.5 -79.5v-31h126v-84h-126v-423h-76v423h-173v-423h-75v423h-70v84h70v34q0 179 156 179q85 0 144 -32q41 33 120 33q86 -1 153 -32zM325 541q0 47 12 79q-46 18 -89 18q-53 0 -74.5 -24.5t-21.5 -90.5v-16
h173v34zM929 0h-92q-150 250 -187 268q44 41 174 239h92q-120 -185 -170 -230q41 -29 183 -277z" />
    <glyph glyph-name="fk" unicode="fk" horiz-adv-x="679" 
d="M401 0h-76v625q-35 13 -77 13q-46 0 -71 -20.5t-25 -79.5v-31h126v-84h-126v-423h-75v423h-70v84h70v34q0 104 45 142t127 38t152 -32v-689zM681 0h-93q-150 250 -187 268q44 41 174 239h92q-123 -189 -170 -230q38 -26 184 -277z" />
    <glyph glyph-name="fj" unicode="fj" horiz-adv-x="459" 
d="M325 -20v443h-173v-423h-75v423h-70v84h70v34q0 103 46 141.5t130 38.5q80 0 144 -32l-20 -77q-52 26 -117 26q-55 0 -81.5 -20t-26.5 -80v-31h249v-527q0 -102 -38.5 -144.5t-111.5 -38.5v82q40 0 57 20.5t17 80.5z" />
    <glyph glyph-name=".notdef" horiz-adv-x="412" 
d="M0 0v697h412v-697h-412zM206 407l120 224h-240zM238 349l120 -225v449zM86 66h240l-120 226zM54 573v-449l120 225z" />
    <glyph glyph-name=".null" horiz-adv-x="0" 
 />
    <glyph glyph-name="nonmarkingreturn" horiz-adv-x="333" 
 />
    <glyph glyph-name="space" unicode=" " horiz-adv-x="221" 
 />
    <glyph glyph-name="exclam" unicode="!" horiz-adv-x="266" 
d="M83 697h99l-22 -487h-56zM133 123q31 0 42 -11t11 -49q0 -41 -11 -53t-42 -12q-30 0 -41 12.5t-11 52.5q0 37 11 48.5t41 11.5z" />
    <glyph glyph-name="quotedbl" unicode="&#x22;" horiz-adv-x="270" 
d="M36 697h75l-15 -235h-51zM161 697h73l-16 -235h-50z" />
    <glyph glyph-name="numbersign" unicode="#" horiz-adv-x="548" 
d="M34 445l4 77h108l9 175h71l-8 -175h121l9 175h72l-9 -175h113l-4 -77h-113l-10 -177h116l-4 -76h-115l-10 -192h-72l10 192h-121l-10 -192h-71l9 192h-107l5 76h105l10 177h-108zM213 445l-9 -177h122l9 177h-122z" />
    <glyph glyph-name="dollar" unicode="$" horiz-adv-x="499" 
d="M220 825h59v-140q88 0 149 -23l-20 -88q-39 22 -129 24v-206q84 -14 124 -59.5t40 -129.5q0 -91 -41.5 -137.5t-122.5 -57.5v-145h-59v142q-93 0 -153 24l20 87q53 -23 133 -23v217q-84 12 -123 51.5t-39 122.5q0 175 162 197v144zM136 492q0 -43 18 -63.5t66 -27.5v193
q-84 -14 -84 -102zM364 199q0 45 -18.5 68.5t-66.5 32.5v-203q85 14 85 102z" />
    <glyph glyph-name="percent" unicode="%" horiz-adv-x="729" 
d="M490 697h75l-329 -697h-75zM168 714q72 0 104 -46.5t32 -172.5q0 -127 -32 -176.5t-104 -49.5q-71 0 -102.5 49.5t-31.5 176.5q0 126 31.5 172.5t102.5 46.5zM168 339q39 0 53 32t14 123q0 92 -14 120.5t-53 28.5q-38 0 -52 -29t-14 -120q0 -90 14.5 -122.5t51.5 -32.5z
M560 431q72 0 103.5 -46.5t31.5 -172.5q0 -127 -31.5 -176.5t-103.5 -49.5q-71 0 -102.5 49.5t-31.5 176.5q0 126 31.5 172.5t102.5 46.5zM560 56q38 0 52.5 32.5t14.5 122.5q0 92 -14 121t-53 29q-38 0 -52 -29.5t-14 -120.5q0 -90 14.5 -122.5t51.5 -32.5z" />
    <glyph glyph-name="ampersand" unicode="&#x26;" horiz-adv-x="622" 
d="M591 398q0 -128 -73 -243q30 -51 83 -155h-92q-22 48 -46 89q-52 -56 -97.5 -79.5t-115.5 -23.5q-109 0 -157 43t-48 154q0 80 35.5 129.5t111.5 53.5q-36 4 -59 17.5t-33.5 38.5t-13.5 49t-3 62q0 91 42.5 136t141.5 45t142 -41.5t43 -131.5q0 -74 -26.5 -117.5
t-96.5 -50.5q30 -4 63 -36t79 -109q40 78 40 170h80zM250 70q59 0 95 19.5t78 70.5q-49 86 -88 127.5t-79 41.5q-65 0 -94.5 -30.5t-29.5 -101.5t25.5 -99t92.5 -28zM262 410q108 0 108 114q0 57 -23.5 80.5t-79.5 23.5t-78.5 -23t-22.5 -80q0 -62 22 -88.5t74 -26.5z" />
    <glyph glyph-name="quotesingle" unicode="'" horiz-adv-x="147" 
d="M36 697h75l-15 -235h-51z" />
    <glyph glyph-name="parenleft" unicode="(" horiz-adv-x="223" 
d="M54 249q0 413 168 512l36 -73q-123 -64 -123 -439t123 -439l-36 -73q-168 99 -168 512z" />
    <glyph glyph-name="parenright" unicode=")" horiz-adv-x="223" 
d="M169 249q0 -412 -168 -512l-36 73q123 64 123 439t-123 439l36 73q168 -100 168 -512z" />
    <glyph glyph-name="asterisk" unicode="*" horiz-adv-x="366" 
d="M24 498v77h105l-53 115l54 38l52 -114l52 114l56 -39l-54 -114h106v-77h-106l53 -114l-55 -38l-52 112l-52 -112l-54 39l52 113h-104z" />
    <glyph glyph-name="plus" unicode="+" horiz-adv-x="481" 
d="M47 315v89h157v197h72v-197h157v-89h-157v-196h-72v196h-157z" />
    <glyph glyph-name="comma" unicode="," horiz-adv-x="216" 
d="M171 100l-89 -259h-69l63 259h95z" />
    <glyph glyph-name="hyphen" unicode="-" horiz-adv-x="232" 
d="M25 234v89h182v-89h-182z" />
    <glyph glyph-name="hyphen" unicode="&#xad;" horiz-adv-x="232" 
d="M25 234v89h182v-89h-182z" />
    <glyph glyph-name="period" unicode="." horiz-adv-x="216" 
d="M107 123q32 0 42.5 -11t10.5 -49q0 -41 -10.5 -53t-42.5 -12q-30 0 -40.5 12.5t-10.5 52.5q0 38 10.5 49t40.5 11z" />
    <glyph glyph-name="slash" unicode="/" horiz-adv-x="357" 
d="M307 697h84l-286 -697h-82z" />
    <glyph glyph-name="zero" unicode="0" horiz-adv-x="499" 
d="M250 714q71 0 113.5 -29.5t66 -108.5t23.5 -218q0 -208 -48 -290t-155 -82q-71 0 -114 33t-66.5 115.5t-23.5 223.5q0 139 23.5 218t66 108.5t114.5 29.5zM249 77q48 0 73.5 23t37.5 83t12 175q0 117 -12 174.5t-36.5 76t-74.5 18.5q-48 0 -72 -18.5t-36.5 -76.5
t-12.5 -174q0 -166 26 -223.5t95 -57.5z" />
    <glyph glyph-name="one" unicode="1" horiz-adv-x="499" 
d="M313 0h-81v588l-125 -71l-24 82l230 125v-724z" />
    <glyph glyph-name="two" unicode="2" horiz-adv-x="500" 
d="M87 595l-18 89q85 30 166 30q106 0 154.5 -45t48.5 -155q0 -74 -20.5 -126t-79.5 -120t-185 -181h282v-87h-391v81q151 148 211.5 216t78.5 109t18 101q0 66 -27.5 90.5t-94.5 24.5q-92 0 -143 -27z" />
    <glyph glyph-name="three" unicode="3" horiz-adv-x="499" 
d="M160 327v85h71q62 0 89 25.5t27 85.5q0 56 -27.5 78.5t-104.5 22.5q-87 0 -148 -23l-17 87q102 26 175 26q114 0 160.5 -41t46.5 -133q0 -74 -25 -117t-94 -51q74 -4 102 -51t28 -131q0 -113 -52 -158.5t-169 -45.5q-82 0 -177 27l17 85q60 -22 149 -22q85 0 114.5 27
t29.5 97q0 71 -27.5 99t-96.5 28h-71z" />
    <glyph glyph-name="four" unicode="4" horiz-adv-x="496" 
d="M302 191h-280v29q118 272 242 477h117v-421h77v-85h-77v-191h-79v191zM302 276v341q-83 -128 -178 -341h178z" />
    <glyph glyph-name="five" unicode="5" horiz-adv-x="499" 
d="M83 697h331v-87h-253v-190q40 5 78 5q114 0 159 -49t45 -166q0 -126 -49.5 -175t-167.5 -49q-78 0 -169 27l18 85q57 -22 140 -22q84 0 112 27t28 99q0 79 -25.5 107.5t-104.5 28.5q-81 0 -142 -16v375z" />
    <glyph glyph-name="six" unicode="6" horiz-adv-x="499" 
d="M445 686l-20 -90q-53 25 -128 25q-42 0 -69 -8t-49.5 -30t-33.5 -64t-12 -108q59 14 125 14q115 0 160.5 -49.5t45.5 -166.5q0 -126 -46.5 -174.5t-158.5 -48.5q-80 0 -124.5 32.5t-66 112t-21.5 222.5q0 141 27.5 220.5t80 110t142.5 30.5q73 0 148 -28zM259 76
q71 0 94.5 27t23.5 98q0 77 -23.5 107t-92.5 30q-82 0 -128 -14q0 -102 15 -157t40.5 -73t70.5 -18z" />
    <glyph glyph-name="seven" unicode="7" horiz-adv-x="499" 
d="M474 697v-33q-60 -120 -132 -316t-113 -348h-93q49 167 113 339.5t116 270.5h-302v87h411z" />
    <glyph glyph-name="eight" unicode="8" horiz-adv-x="500" 
d="M250 70q67 0 92.5 28.5t25.5 98.5q0 72 -27 102t-91 30t-91 -30t-27 -102q0 -70 25.5 -98.5t92.5 -28.5zM250 410q57 0 82 27t25 88q0 57 -23.5 80.5t-83.5 23.5t-83.5 -23.5t-23.5 -80.5q0 -61 25 -88t82 -27zM250 -14q-108 0 -156 46t-48 158q0 84 28 131t102 51
q-69 8 -92.5 50t-23.5 118q0 91 43 132.5t147 41.5q105 0 148 -42t43 -132q0 -75 -24 -117.5t-93 -50.5q74 -4 102 -51t28 -131q0 -112 -48 -158t-156 -46z" />
    <glyph glyph-name="nine" unicode="9" horiz-adv-x="499" 
d="M144 0q146 162 194 283q-46 -8 -88 -8q-116 0 -161 45t-45 161q0 127 47 180t158 53q121 0 164.5 -49.5t43.5 -192.5q0 -139 -56 -251.5t-151 -220.5h-106zM255 362q61 0 107 10q9 35 9 87q0 74 -13 110t-36.5 46t-72.5 10q-71 0 -95 -31.5t-24 -105.5q0 -77 24 -101.5
t101 -24.5z" />
    <glyph glyph-name="colon" unicode=":" horiz-adv-x="216" 
d="M107 123q32 0 42.5 -11t10.5 -49q0 -41 -10.5 -53t-42.5 -12q-30 0 -40.5 12.5t-10.5 52.5q0 38 10.5 49t40.5 11zM107 510q32 0 42.5 -11t10.5 -49q0 -41 -10.5 -53t-42.5 -12q-30 0 -40.5 12.5t-10.5 52.5q0 38 10.5 49t40.5 11z" />
    <glyph glyph-name="semicolon" unicode=";" horiz-adv-x="216" 
d="M171 100l-89 -259h-69l63 259h95zM107 510q32 0 42.5 -11t10.5 -49q0 -41 -10.5 -53t-42.5 -12q-30 0 -40.5 12.5t-10.5 52.5q0 38 10.5 49t40.5 11z" />
    <glyph glyph-name="less" unicode="&#x3c;" horiz-adv-x="482" 
d="M412 605l-236 -245l236 -247l-41 -66l-293 288v48l292 287z" />
    <glyph glyph-name="equal" unicode="=" horiz-adv-x="481" 
d="M47 194v89h386v-89h-386zM47 431v89h386v-89h-386z" />
    <glyph glyph-name="greater" unicode="&#x3e;" horiz-adv-x="481" 
d="M78 113l235 245l-235 246l41 67l293 -288v-48l-292 -287z" />
    <glyph glyph-name="question" unicode="?" horiz-adv-x="383" 
d="M179 123q32 0 43 -11t11 -49q0 -41 -11 -53t-43 -12q-30 0 -40.5 12.5t-10.5 52.5q0 38 10.5 49t40.5 11zM223 206h-84q67 83 97 155.5t30 156.5q0 53 -23 78t-83 25q-70 0 -112 -22l-19 90q59 25 135 25q102 0 147 -49t45 -147q0 -86 -31.5 -156.5t-101.5 -155.5z" />
    <glyph glyph-name="at" unicode="@" horiz-adv-x="747" 
d="M340 548q-66 0 -104.5 -10.5t-66 -41.5t-37.5 -85.5t-10 -145.5q0 -89 11.5 -143t42 -87t76 -44.5t121.5 -11.5q148 0 201.5 65.5t53.5 251.5q0 136 -18 201h75q16 -67 16 -204q0 -152 -35.5 -239.5t-105 -122.5t-187.5 -35t-186.5 31.5t-104 112.5t-35.5 225
q0 107 18 179t56 112.5t89 57t124 16.5q58 0 92.5 -9.5t61.5 -38t38 -83t11 -142.5q0 -85 -8.5 -135.5t-30 -79t-51 -37.5t-80.5 -9q-92 0 -128 35.5t-36 133.5q0 103 33.5 134.5t117.5 31.5q65 0 111 -11q-1 75 -28 101.5t-97 26.5zM374 358q-56 0 -74.5 -16t-18.5 -73
t19 -76.5t73 -19.5q53 0 72.5 26t19.5 101v50q-40 8 -91 8z" />
    <glyph glyph-name="A" unicode="A" horiz-adv-x="540" 
d="M454 0q-36 109 -60 194h-259q-6 -23 -16 -62t-18.5 -71.5t-15.5 -60.5h-84q89 339 206 697h132q106 -406 206 -697h-91zM281 613h-22q-45 -136 -100 -332h211q-48 166 -89 332z" />
    <glyph glyph-name="B" unicode="B" horiz-adv-x="560" 
d="M157 86h197q67 0 67 117q0 125 -70 125h-194v-242zM157 611v-200h191q61 0 61 102q0 50 -13.5 74t-47.5 24h-191zM382 372q73 -4 99.5 -49t26.5 -129q0 -194 -142 -194h-290v697h284q77 0 105.5 -43t28.5 -123q0 -75 -22 -113t-90 -46z" />
    <glyph glyph-name="C" unicode="C" horiz-adv-x="477" 
d="M46 355q0 140 29 219.5t83 109.5t146 30q85 0 158 -26l-20 -91q-51 24 -128 24q-53 0 -84 -8.5t-54.5 -36.5t-32.5 -81t-9 -141t9 -141.5t32.5 -83t54.5 -39.5t84 -10q75 0 128 23l20 -91q-70 -26 -158 -26q-136 0 -197 81t-61 288z" />
    <glyph glyph-name="D" unicode="D" horiz-adv-x="576" 
d="M76 697h192q91 0 146 -29.5t85 -106.5t30 -210q0 -196 -62 -273.5t-199 -77.5h-192v697zM442 350q0 112 -18 167.5t-54 74t-107 18.5h-106v-523h106q69 0 106 21.5t55 78t18 163.5z" />
    <glyph glyph-name="E" unicode="E" horiz-adv-x="492" 
d="M76 697h393v-87h-312v-198h221v-86h-221v-239h312v-87h-393v697z" />
    <glyph glyph-name="F" unicode="F" horiz-adv-x="462" 
d="M76 697h386v-87h-305v-233h221v-86h-221v-291h-81v697z" />
    <glyph glyph-name="G" unicode="G" horiz-adv-x="550" 
d="M406 91v215h-134v85h216v-379q-67 -26 -184 -26q-136 0 -197 81t-61 288q0 140 31 220t86.5 109.5t148.5 29.5q87 0 162 -26l-20 -90q-51 24 -138 24q-43 0 -70.5 -5.5t-51 -21t-35.5 -45.5t-18.5 -77.5t-6.5 -118.5q0 -88 9 -142t32.5 -84t55 -40t83.5 -10q46 0 92 13z
" />
    <glyph glyph-name="H" unicode="H" horiz-adv-x="580" 
d="M157 325v-325h-81v697h81v-279h267v279h81v-697h-81v325h-267z" />
    <glyph glyph-name="I" unicode="I" horiz-adv-x="232" 
d="M76 697h81v-697h-81v697z" />
    <glyph glyph-name="J" unicode="J" horiz-adv-x="361" 
d="M286 697v-505q0 -206 -160 -206q-60 0 -118 29l20 92q41 -24 92 -24q83 0 83 118v496h83z" />
    <glyph glyph-name="K" unicode="K" horiz-adv-x="511" 
d="M157 697v-697h-81v697h81zM519 0h-103q-85 160 -156 257t-102 111q33 27 99.5 116t140.5 213h103q-159 -250 -233 -320q29 -23 99 -123t152 -254z" />
    <glyph glyph-name="L" unicode="L" horiz-adv-x="439" 
d="M76 697h81v-608h276v-89h-357v697z" />
    <glyph glyph-name="M" unicode="M" horiz-adv-x="713" 
d="M360 212q74 240 170 485h108v-697h-80v568q-73 -200 -172 -498h-63q-99 308 -169 498v-568h-78v697h115q97 -256 169 -485z" />
    <glyph glyph-name="N" unicode="N" horiz-adv-x="602" 
d="M526 697v-697h-100q-119 278 -270 575v-575h-80v697h108q124 -237 260 -546v546h82z" />
    <glyph glyph-name="O" unicode="O" horiz-adv-x="610" 
d="M305 714q92 0 146 -30.5t83.5 -110.5t29.5 -220q0 -142 -29 -223t-83.5 -112.5t-146.5 -31.5q-91 0 -145.5 31.5t-84 112.5t-29.5 223q0 140 29.5 220t83.5 110.5t146 30.5zM305 77q70 0 105 21.5t51.5 80t16.5 172.5q0 118 -16.5 176t-51 77.5t-105.5 19.5
q-70 0 -104 -19.5t-50.5 -77.5t-16.5 -176q0 -114 16 -172t51 -80t104 -22z" />
    <glyph glyph-name="P" unicode="P" horiz-adv-x="528" 
d="M157 330h172q83 0 83 135q0 146 -79 146h-176v-281zM157 0h-82v697h270q156 0 156 -233q0 -95 -37.5 -158t-115.5 -63h-191v-243z" />
    <glyph glyph-name="Q" unicode="Q" horiz-adv-x="626" 
d="M313 714q92 0 146 -30.5t83.5 -110.5t29.5 -220q0 -170 -40 -250.5t-128 -99.5q59 -14 168 -195h-99q-45 84 -88.5 129t-74.5 49q-90 1 -144 32.5t-83 112.5t-29 222q0 140 29.5 220t83.5 110.5t146 30.5zM313 77q70 0 105 21.5t51.5 80t16.5 172.5q0 118 -16.5 176
t-51 77.5t-105.5 19.5q-70 0 -104.5 -19.5t-51 -77.5t-16.5 -176q0 -114 16 -172.5t51.5 -80t104.5 -21.5z" />
    <glyph glyph-name="R" unicode="R" horiz-adv-x="553" 
d="M157 611v-241h173q39 0 60 30.5t21 86.5q0 124 -78 124h-176zM348 307q56 -24 191 -307h-101q-129 284 -190 284h-91v-284h-81v697h270q156 0 156 -203q0 -82 -36 -134t-118 -53z" />
    <glyph glyph-name="S" unicode="S" horiz-adv-x="499" 
d="M438 685l-19 -89q-52 25 -143 25q-73 0 -108.5 -25.5t-35.5 -88.5q0 -48 28 -72t104 -32q99 -11 144.5 -59.5t45.5 -145.5q0 -113 -58.5 -162.5t-174.5 -49.5q-93 0 -166 30l20 88q61 -25 144 -25q75 0 111.5 25t36.5 89q0 50 -28.5 79.5t-105.5 37.5q-99 10 -143.5 52
t-44.5 136q0 114 58.5 165t172.5 51q89 0 162 -29z" />
    <glyph glyph-name="T" unicode="T" horiz-adv-x="470" 
d="M277 0h-83v610h-191v87h464v-87h-190v-610z" />
    <glyph glyph-name="U" unicode="U" horiz-adv-x="591" 
d="M444 697h81v-471q0 -140 -55.5 -190t-173.5 -50q-58 0 -97.5 10t-71 36t-46.5 74t-15 120v471h82v-461q0 -92 33.5 -125t114.5 -33q79 0 113.5 32.5t34.5 125.5v461z" />
    <glyph glyph-name="V" unicode="V" horiz-adv-x="515" 
d="M-6 697h91q103 -309 173 -603q80 237 170 603h85q-95 -369 -207 -697h-106q-98 401 -206 697z" />
    <glyph glyph-name="W" unicode="W" horiz-adv-x="752" 
d="M383 536q-29 -179 -115 -536h-103q-93 450 -163 697h90q75 -284 130 -578q89 374 122 578h78q92 -429 114 -578q76 292 129 578h83q-73 -368 -163 -697h-104q-29 192 -98 536z" />
    <glyph glyph-name="X" unicode="X" horiz-adv-x="529" 
d="M111 697q88 -142 159 -257q62 104 148 257h98q-93 -166 -197 -341q116 -195 206 -356h-101q-93 163 -155 270q-95 -157 -167 -270h-98q92 145 215 353q-132 221 -211 344h103z" />
    <glyph glyph-name="Y" unicode="Y" horiz-adv-x="497" 
d="M88 697q79 -124 167 -286q96 159 161 286h97q-107 -198 -221 -379v-318h-82v318q-115 207 -228 379h106z" />
    <glyph glyph-name="Z" unicode="Z" horiz-adv-x="492" 
d="M15 0v30q180 292 336 580h-317v87h441v-28q-178 -340 -336 -582h326v-87h-450z" />
    <glyph glyph-name="bracketleft" unicode="[" horiz-adv-x="242" 
d="M70 755h188v-83h-109v-850h109v-82h-188v1015z" />
    <glyph glyph-name="backslash" unicode="\" horiz-adv-x="358" 
d="M-31 697h85l284 -697h-83z" />
    <glyph glyph-name="bracketright" unicode="]" horiz-adv-x="242" 
d="M-16 755h188v-1015h-188v82h109v850h-109v83z" />
    <glyph glyph-name="asciicircum" unicode="^" horiz-adv-x="402" 
d="M311 296l-112 302l-111 -302h-78l152 401h75l155 -401h-81z" />
    <glyph glyph-name="underscore" unicode="_" horiz-adv-x="348" 
d="M25 -147v89h298v-89h-298z" />
    <glyph glyph-name="grave" unicode="`" horiz-adv-x="390" 
d="M260 568h-71l-111 129h86z" />
    <glyph glyph-name="a" unicode="a" horiz-adv-x="441" 
d="M384 324v-298q-77 -40 -174 -40q-93 0 -130.5 36.5t-37.5 133.5q0 100 40 133.5t120 33.5q51 0 108 -15q0 79 -22 104.5t-88 25.5q-72 0 -120 -24l-16 82q75 25 148 25q92 0 132 -42.5t40 -154.5zM310 83v155q-36 11 -94 11q-55 0 -73.5 -15.5t-18.5 -72.5
q0 -62 17.5 -80t73.5 -18q50 0 95 20z" />
    <glyph glyph-name="b" unicode="b" horiz-adv-x="463" 
d="M133 377v-290q39 -19 95 -19q65 0 87.5 35.5t22.5 150.5q0 107 -23 144.5t-86 37.5q-41 0 -68.5 -16t-27.5 -43zM58 25v697h75v-238q43 37 108 37q93 0 134.5 -58.5t41.5 -208.5q0 -151 -44 -209.5t-145 -58.5q-98 0 -170 39z" />
    <glyph glyph-name="c" unicode="c" horiz-adv-x="374" 
d="M344 96l20 -83q-49 -27 -120 -27q-99 0 -148.5 60.5t-49.5 209.5q0 148 49.5 206.5t148.5 58.5q69 0 120 -24l-20 -84q-41 23 -96 23q-45 0 -69.5 -12.5t-38.5 -52.5t-14 -117q0 -107 28 -145t94 -38q48 0 96 25z" />
    <glyph glyph-name="d" unicode="d" horiz-adv-x="464" 
d="M331 88v290q0 28 -27.5 44t-68.5 16q-62 0 -85.5 -38t-23.5 -145q0 -114 23 -149.5t87 -35.5q54 0 95 18zM406 722v-697q-32 -17 -80.5 -28t-89.5 -11q-101 0 -145.5 58t-44.5 209q0 149 43.5 208.5t136.5 59.5q61 0 105 -34v235h75z" />
    <glyph glyph-name="e" unicode="e" horiz-adv-x="440" 
d="M363 93l14 -79q-72 -28 -138 -28q-96 0 -144.5 60.5t-48.5 209.5q0 145 46 205t140 60q64 0 100 -23t54.5 -86.5t16.5 -177.5h-276q1 -98 28 -131.5t93 -33.5q58 0 115 24zM235 442q-56 0 -79.5 -28t-27.5 -103h200q-3 79 -23 105t-70 26z" />
    <glyph glyph-name="f" unicode="f" horiz-adv-x="292" 
d="M152 544v-37h138v-84h-138v-423h-75v423h-70v84h70v40q0 55 11.5 91.5t33.5 53.5t45.5 23t57.5 6q47 0 92 -19l-17 -77q-32 13 -76 13q-36 0 -54 -19.5t-18 -74.5z" />
    <glyph glyph-name="g" unicode="g" horiz-adv-x="464" 
d="M331 131v290q-41 18 -95 18q-65 0 -87.5 -35t-22.5 -150q0 -108 23 -145.5t86 -37.5q41 0 68.5 16t27.5 44zM331 25q-44 -38 -107 -38q-94 0 -136 58.5t-42 208.5q0 151 44.5 209t145.5 58q97 0 170 -38v-445q0 -136 -52.5 -188.5t-156.5 -52.5q-30 0 -71.5 8.5
t-65.5 20.5l18 81q56 -27 118 -27q69 0 102 31.5t33 113.5z" />
    <glyph glyph-name="h" unicode="h" horiz-adv-x="455" 
d="M248 521q81 0 116 -48.5t35 -183.5v-289h-76v277q0 83 -18.5 120t-75.5 37q-39 0 -67 -15.5t-28 -42.5v-376h-76v722h76v-239q46 38 114 38z" />
    <glyph glyph-name="i" unicode="i" horiz-adv-x="191" 
d="M133 507v-507h-75v507h75zM97 709q26 0 35 -9t9 -41q0 -35 -9 -45.5t-35 -10.5q-27 0 -36.5 10.5t-9.5 45.5q0 32 9.5 41t36.5 9z" />
    <glyph glyph-name="j" unicode="j" horiz-adv-x="192" 
d="M97 709q26 0 35.5 -9t9.5 -41q0 -35 -9.5 -45.5t-35.5 -10.5q-27 0 -36.5 10.5t-9.5 45.5q0 32 9.5 41t36.5 9zM134 507v-526q0 -106 -37 -145t-113 -39v81q39 0 56.5 20.5t17.5 80.5v528h76z" />
    <glyph glyph-name="k" unicode="k" horiz-adv-x="411" 
d="M133 722v-722h-75v722h75zM412 0h-92q-150 250 -187 268q44 41 174 239h92q-123 -187 -170 -230q42 -30 183 -277z" />
    <glyph glyph-name="l" unicode="l" horiz-adv-x="195" 
d="M133 722v-586q0 -64 35 -114l-64 -44q-46 59 -46 154v590h75z" />
    <glyph glyph-name="m" unicode="m" horiz-adv-x="696" 
d="M133 420v-420h-75v479q77 42 172 42q72 0 106 -34q76 34 147 34q88 0 122.5 -50.5t34.5 -186.5v-284h-76v272q0 98 -19.5 130t-76.5 32q-53 0 -96 -17q15 -55 15 -133v-284h-76v272q0 99 -19 130.5t-76 31.5q-46 0 -83 -14z" />
    <glyph glyph-name="n" unicode="n" horiz-adv-x="454" 
d="M133 420v-420h-75v479q34 19 84.5 30.5t93.5 11.5q89 0 125.5 -51t36.5 -186v-284h-75v272q0 99 -20.5 130.5t-82.5 31.5q-48 0 -87 -14z" />
    <glyph glyph-name="o" unicode="o" horiz-adv-x="470" 
d="M235 -14q-100 0 -144.5 59.5t-44.5 210.5q0 150 45 207.5t144 57.5q100 0 144.5 -57.5t44.5 -207.5q0 -152 -44.5 -211t-144.5 -59zM235 441q-44 0 -66 -13.5t-32.5 -53.5t-10.5 -120q0 -112 23 -150t86 -38t86 38t23 150q0 116 -22.5 151.5t-86.5 35.5z" />
    <glyph glyph-name="p" unicode="p" horiz-adv-x="463" 
d="M133 419v-289q0 -28 27 -44.5t68 -16.5q63 0 86.5 38t23.5 146q0 114 -23 149t-87 35q-56 0 -95 -18zM58 -192v675q73 38 170 38q101 0 145 -57.5t44 -208.5q0 -150 -43.5 -209.5t-136.5 -59.5q-62 0 -104 36v-214h-75z" />
    <glyph glyph-name="q" unicode="q" horiz-adv-x="464" 
d="M331 131v290q-41 18 -95 18q-65 0 -87.5 -35t-22.5 -150q0 -108 23 -145.5t86 -37.5q41 0 68.5 16t27.5 44zM406 483v-675h-75v216q-46 -38 -109 -38q-93 0 -134.5 59t-41.5 209q0 151 44.5 209t145.5 58q97 0 170 -38z" />
    <glyph glyph-name="r" unicode="r" horiz-adv-x="289" 
d="M58 0v507h75v-37q29 51 109 51q21 0 42 -3v-92q-23 5 -48 5q-43 0 -73 -16t-30 -46v-369h-75z" />
    <glyph glyph-name="s" unicode="s" 
d="M344 495l-19 -80q-57 26 -117 26q-48 0 -68 -14t-20 -61q0 -32 20 -46.5t72 -20.5q77 -8 111 -42t34 -106q0 -91 -40.5 -128t-124.5 -37q-83 0 -145 27l18 80q52 -27 126 -27q48 0 68.5 15.5t20.5 62.5q0 35 -19.5 51.5t-73.5 22.5q-75 8 -110 38.5t-35 101.5
q0 90 42 126.5t125 36.5q65 0 135 -26z" />
    <glyph glyph-name="t" unicode="t" horiz-adv-x="324" 
d="M297 423h-142v-247q0 -57 15 -81t53 -24q40 0 73 14l15 -78q-45 -21 -100 -21q-72 0 -102 38t-30 146v253h-70v84h70v96l76 39v-135h142v-84z" />
    <glyph glyph-name="u" unicode="u" horiz-adv-x="455" 
d="M322 88v419h75v-479q-35 -19 -85 -30.5t-93 -11.5q-89 0 -125.5 51t-36.5 186v284h75v-272q0 -99 20.5 -130.5t81.5 -31.5q50 0 88 15z" />
    <glyph glyph-name="v" unicode="v" horiz-adv-x="408" 
d="M204 93q77 246 114 414h78q-55 -230 -148 -507h-98q-74 321 -140 507h81q60 -179 113 -414z" />
    <glyph glyph-name="w" unicode="w" horiz-adv-x="656" 
d="M330 386q-34 -182 -91 -386h-99q-60 281 -130 507h82q56 -182 102 -412q63 228 96 412h82q45 -167 89 -412q74 254 103 412h80q-58 -267 -138 -507h-98q-37 224 -78 386z" />
    <glyph glyph-name="x" unicode="x" horiz-adv-x="416" 
d="M401 0h-88q-37 75 -97 182q-71 -116 -115 -182h-87q59 85 161 253q-87 148 -160 254h95q44 -68 107 -177q41 68 97 177h86q-65 -124 -140 -250q78 -135 141 -257z" />
    <glyph glyph-name="y" unicode="y" horiz-adv-x="408" 
d="M156 -24q-72 326 -146 531h81q55 -160 113 -417q75 232 114 417h78q-48 -208 -152 -517q-36 -107 -68 -182h-85q23 53 65 168z" />
    <glyph glyph-name="z" unicode="z" 
d="M36 507h336v-25q-50 -97 -119 -217t-110 -181h225v-84h-346v26q147 230 232 397h-218v84z" />
    <glyph glyph-name="braceleft" unicode="{" horiz-adv-x="239" 
d="M18 210v-1v78q87 0 87 201q0 221 126 274l36 -74q-44 -17 -65.5 -64t-21.5 -156q0 -57 -7 -100.5t-18.5 -67t-22.5 -35.5t-22 -16q16 -6 30 -24.5t27 -70t13 -126.5q0 -109 21.5 -156t65.5 -63l-36 -73q-126 53 -126 273q0 201 -87 201z" />
    <glyph glyph-name="bar" unicode="|" horiz-adv-x="273" 
d="M96 755h81v-1011h-81v1011z" />
    <glyph glyph-name="braceright" unicode="}" horiz-adv-x="239" 
d="M220 287v-77q-87 0 -87 -201q0 -219 -125 -272l-36 73q28 11 45.5 31.5t29 67t11.5 120.5q0 75 13 126t27 69.5t30 24.5q-16 6 -30 24.5t-27 69.5t-13 126q0 109 -21 156t-65 64l36 72q125 -53 125 -273q0 -201 87 -201z" />
    <glyph glyph-name="asciitilde" unicode="~" horiz-adv-x="482" 
d="M389 435l51 -49q-15 -50 -44.5 -79t-68.5 -29q-29 0 -96.5 43.5t-89.5 43.5q-32 0 -52 -62l-46 53q22 47 45.5 70t56.5 23q32 0 99 -42.5t88 -42.5q19 0 32 16t25 55z" />
    <glyph glyph-name="nbspace" unicode="&#xa0;" horiz-adv-x="221" 
 />
    <glyph glyph-name="exclamdown" unicode="&#xa1;" horiz-adv-x="266" 
d="M183 -178h-99l22 487h56zM134 396q-32 0 -43 11t-11 49q0 40 11.5 52.5t42.5 12.5q30 0 41 -12.5t11 -52.5q0 -37 -11 -48.5t-41 -11.5z" />
    <glyph glyph-name="cent" unicode="&#xa2;" horiz-adv-x="370" 
d="M201 754h64v-103q52 -3 95 -23l-20 -79q-29 16 -75 20v-369q42 3 75 22l20 -78q-36 -20 -95 -26v-121h-64v122q-77 12 -116 73.5t-39 194.5q0 131 39 191.5t116 70.5v105zM122 385q0 -86 19 -126t60 -50v352q-42 -9 -60.5 -47.5t-18.5 -128.5z" />
    <glyph glyph-name="sterling" unicode="&#xa3;" horiz-adv-x="483" 
d="M33 307v82h51v95q0 115 52.5 172t161.5 57q88 0 161 -29l-19 -89q-50 26 -142 26q-70 0 -101 -31.5t-31 -101.5v-99h155v-82h-155v-220h279v-87h-361v307h-51z" />
    <glyph glyph-name="currency" unicode="&#xa4;" horiz-adv-x="529" 
d="M269 84q-63 0 -98 23l-68 -107l-61 61l69 108q-30 63 -30 185q0 118 28 178l-66 109l68 56l61 -101q34 23 97 23q61 0 95 -20l55 98l68 -55l-59 -105q31 -64 31 -183q0 -121 -31 -186l63 -107l-67 -61l-60 104q-36 -20 -95 -20zM269 535q-65 0 -87.5 -34t-22.5 -149
q0 -112 23 -148t87 -36t87.5 36t23.5 148q0 79 -11 118.5t-33 52t-67 12.5z" />
    <glyph glyph-name="yen" unicode="&#xa5;" horiz-adv-x="497" 
d="M58 295v77h122q-108 187 -198 325h106q79 -124 167 -286q96 159 161 286h97q-100 -184 -189 -325h117v-77h-149v-86h149v-77h-149v-132h-82v132h-152v77h152v86h-152z" />
    <glyph glyph-name="brokenbar" unicode="&#xa6;" horiz-adv-x="273" 
d="M96 755h81v-367h-81v367zM96 111h81v-367h-81v367z" />
    <glyph glyph-name="section" unicode="&#xa7;" horiz-adv-x="499" 
d="M434 685l-18 -86q-47 25 -139 25q-71 0 -106.5 -25.5t-35.5 -84.5q0 -44 27.5 -66t102.5 -29q99 -11 147.5 -54.5t48.5 -130.5q0 -62 -35 -119q31 -40 31 -110q0 -105 -59.5 -156.5t-169.5 -51.5q-87 0 -158 28l19 87q49 -26 139 -26q71 0 106.5 26t35.5 85
q0 44 -27.5 66t-102.5 29q-100 11 -148 54t-48 131q0 64 33 120q-30 41 -30 109q0 105 60 156.5t170 51.5q85 0 157 -29zM141 351q-14 -26 -14 -70q0 -47 30.5 -69.5t111.5 -29.5q63 -6 95 -24q14 36 14 72q0 46 -31 69t-111 30q-60 5 -95 22z" />
    <glyph glyph-name="dieresis" unicode="&#xa8;" horiz-adv-x="348" 
d="M92 669q24 0 32 -8.5t8 -38.5q0 -33 -8 -42.5t-32 -9.5t-32.5 9.5t-8.5 42.5q0 30 8.5 38.5t32.5 8.5zM253 669q24 0 32 -8.5t8 -38.5q0 -33 -8 -42.5t-32 -9.5q-25 0 -33 9.5t-8 42.5q0 30 8 38.5t33 8.5z" />
    <glyph glyph-name="copyright" unicode="&#xa9;" horiz-adv-x="683" 
d="M341 714q76 0 127.5 -16.5t89 -57.5t54.5 -111t17 -176q0 -142 -32.5 -223t-93 -112.5t-162.5 -31.5q-101 0 -161.5 31.5t-93 113t-32.5 222.5q0 140 32.5 220t93 110.5t161.5 30.5zM340 62q84 0 128.5 23t66.5 85.5t22 181.5q0 92 -11 148t-38.5 87t-65.5 41.5
t-102 10.5q-62 0 -99.5 -10.5t-65 -41.5t-38 -87t-10.5 -148q0 -119 21.5 -181.5t65.5 -85.5t126 -23zM444 225l17 -74q-50 -23 -107 -23q-90 0 -130 48.5t-40 177.5q0 128 40 175.5t130 47.5q60 0 107 -20l-17 -76q-31 17 -87 17q-57 0 -77 -27.5t-20 -118.5q0 -87 21 -117
t76 -30q47 0 87 20z" />
    <glyph glyph-name="ordfeminine" unicode="&#xaa;" horiz-adv-x="337" 
d="M289 577v-211q-53 -28 -123 -28q-66 0 -92 24.5t-26 94.5t28.5 93.5t83.5 23.5q39 0 75 -10q0 55 -15.5 73t-61.5 18q-50 0 -84 -17l-11 58q59 18 104 18q65 0 93.5 -29.5t28.5 -107.5zM235 406v109q-20 7 -65 7q-34 0 -49 -11.5t-15 -49.5q0 -39 13 -54t51 -15
q34 0 65 14z" />
    <glyph glyph-name="guillemotleft" unicode="&#xab;" horiz-adv-x="506" 
d="M284 521l-158 -213l158 -218l-43 -59l-217 274l215 274zM481 521l-158 -213l158 -218l-43 -59l-216 274l215 274z" />
    <glyph glyph-name="logicalnot" unicode="&#xac;" horiz-adv-x="406" 
d="M376 0h-81v327h-270v88h351v-415z" />
    <glyph glyph-name="registered" unicode="&#xae;" horiz-adv-x="454" 
d="M323 518q0 -81 -53 -81q29 -18 52 -94h-62q-7 27 -20.5 54.5t-23.5 27.5h-19v-82h-55v262h125q28 0 42 -24.5t14 -62.5zM267 516q0 33 -20 33h-50v-69h50q20 0 20 36zM410 473q0 -135 -43 -188t-141 -53q-96 0 -139 53t-43 188q0 136 43 188t139 52q98 0 141 -52t43 -188
zM354 473q0 76 -13 114t-38.5 51t-76.5 13q-72 0 -98.5 -34t-26.5 -144q0 -105 27.5 -141.5t97.5 -36.5q73 0 100.5 36.5t27.5 141.5z" />
    <glyph glyph-name="macron" unicode="&#xaf;" horiz-adv-x="421" 
d="M103 581v74h212v-74h-212z" />
    <glyph glyph-name="macron" unicode="&#x2c9;" horiz-adv-x="421" 
d="M103 581v74h212v-74h-212z" />
    <glyph glyph-name="degree" unicode="&#xb0;" horiz-adv-x="338" 
d="M168 714q72 0 104 -46.5t32 -172.5q0 -127 -32 -176.5t-104 -49.5q-71 0 -102.5 49.5t-31.5 176.5q0 126 31.5 172.5t102.5 46.5zM168 339q39 0 53 32t14 123q0 92 -14 120.5t-53 28.5q-38 0 -52 -29t-14 -120q0 -90 14.5 -122.5t51.5 -32.5z" />
    <glyph glyph-name="plusminus" unicode="&#xb1;" horiz-adv-x="481" 
d="M47 389v89h157v197h72v-197h157v-89h-157v-197h-72v197h-157zM47 29v89h386v-89h-386z" />
    <glyph glyph-name="twosuperior" unicode="&#xb2;" horiz-adv-x="324" 
d="M53 620l-11 76q50 18 102 18q74 0 107.5 -29.5t33.5 -97.5q0 -103 -81 -140q-28 -13 -39.5 -19t-27 -18t-22 -25.5t-8.5 -32.5h179v-72h-258q7 98 35.5 144t87.5 73q65 31 65 86q0 30 -17.5 41.5t-57.5 11.5q-58 0 -88 -16z" />
    <glyph glyph-name="threesuperior" unicode="&#xb3;" horiz-adv-x="319" 
d="M102 467v68h32q40 0 54 12t14 46q0 31 -14 41t-55 10q-50 0 -87 -15l-11 67q50 18 105 18q71 0 102.5 -25.5t31.5 -80.5q0 -48 -15.5 -73.5t-58.5 -30.5q46 -3 64 -30t18 -80q0 -68 -34.5 -96t-107.5 -28q-54 0 -108 18l10 68q40 -16 92 -16q44 0 60 13t16 52
q0 38 -16 50t-60 12h-32z" />
    <glyph glyph-name="acute" unicode="&#xb4;" horiz-adv-x="390" 
d="M150 568h-72l97 129h85z" />
    <glyph glyph-name="mu" unicode="&#xb5;" horiz-adv-x="454" 
d="M129 -192h-75l2 396v303h76v-272q0 -85 19.5 -124t81.5 -39q46 0 87 16v419h76v-480q-80 -41 -177 -41q-61 0 -91 22z" />
    <glyph glyph-name="mu" unicode="&#x3bc;" horiz-adv-x="454" 
d="M129 -192h-75l2 396v303h76v-272q0 -85 19.5 -124t81.5 -39q46 0 87 16v419h76v-480q-80 -41 -177 -41q-61 0 -91 22z" />
    <glyph glyph-name="paragraph" unicode="&#xb6;" horiz-adv-x="529" 
d="M453 0h-76v243h-72v-243h-76v243h-48q-53 0 -89 32.5t-50.5 80.5t-14.5 108q0 233 156 233h270v-697z" />
    <glyph glyph-name="periodcentered" unicode="&#xb7;" horiz-adv-x="225" 
d="M111 366q35 0 46.5 -12t11.5 -52q0 -44 -12 -57.5t-46 -13.5q-32 0 -43.5 13.5t-11.5 57.5q0 40 11.5 52t43.5 12z" />
    <glyph glyph-name="periodcentered" unicode="&#x2219;" horiz-adv-x="225" 
d="M111 366q35 0 46.5 -12t11.5 -52q0 -44 -12 -57.5t-46 -13.5q-32 0 -43.5 13.5t-11.5 57.5q0 40 11.5 52t43.5 12z" />
    <glyph glyph-name="cedilla" unicode="&#xb8;" horiz-adv-x="518" 
d="M264 0h33v-44q51 0 71 -16.5t20 -60.5q0 -47 -23 -64.5t-81 -17.5q-54 0 -82 18l16 48q23 -14 63 -14q23 0 31.5 6t8.5 24q0 20 -18 26t-68 2z" />
    <glyph glyph-name="onesuperior" unicode="&#xb9;" horiz-adv-x="285" 
d="M194 286h-68v327l-74 -43l-18 73l160 83v-440z" />
    <glyph glyph-name="ordmasculine" unicode="&#xba;" horiz-adv-x="360" 
d="M180 333q-70 0 -102 42.5t-32 149.5q0 106 32 147.5t102 41.5t102 -41.5t32 -147.5q0 -107 -32 -149.5t-102 -42.5zM180 648q-43 0 -57.5 -23.5t-14.5 -101.5q0 -74 15 -99.5t57 -25.5t56.5 25.5t14.5 99.5q0 78 -14 101.5t-57 23.5z" />
    <glyph glyph-name="guillemotright" unicode="&#xbb;" horiz-adv-x="506" 
d="M223 90l156 213l-156 218l42 59l217 -275l-215 -273zM25 90l158 213l-158 218l43 59l216 -275l-215 -273z" />
    <glyph glyph-name="onequarter" unicode="&#xbc;" horiz-adv-x="656" 
d="M421 697h77l-330 -697h-78zM504 105h-182v31q67 140 158 289h90v-247h47v-73h-47v-105h-66v105zM504 178v182q-56 -87 -102 -182h102zM187 286h-67v327l-75 -43l-17 73l159 83v-440z" />
    <glyph glyph-name="onehalf" unicode="&#xbd;" horiz-adv-x="656" 
d="M394 340l-11 76q52 18 102 18q75 0 108.5 -29.5t33.5 -97.5q0 -102 -82 -140q-26 -12 -39 -19t-27.5 -18t-21 -25t-8.5 -33h179v-72h-258q7 99 35 144.5t87 72.5q65 31 65 86q0 30 -16.5 41.5t-58.5 11.5q-56 0 -88 -16zM416 697h77l-330 -697h-78zM182 286h-67v327
l-75 -43l-17 73l159 83v-440z" />
    <glyph glyph-name="threequarters" unicode="&#xbe;" horiz-adv-x="656" 
d="M468 697h78l-330 -697h-77zM509 105h-181v31q64 137 157 289h91v-247h46v-73h-46v-105h-67v105zM509 178v182q-58 -91 -101 -182h101zM96 467v68h32q39 0 53.5 12t14.5 46q0 31 -14 41t-55 10q-50 0 -87 -15l-12 67q52 18 106 18q70 0 101.5 -25.5t31.5 -80.5
q0 -48 -15.5 -73.5t-57.5 -30.5q46 -3 64 -30.5t18 -79.5q0 -68 -34.5 -96t-107.5 -28q-54 0 -108 18l10 68q40 -16 92 -16q44 0 60 13t16 52q0 38 -16 50t-60 12h-32z" />
    <glyph glyph-name="questiondown" unicode="&#xbf;" horiz-adv-x="383" 
d="M205 396q-32 0 -43 11t-11 49q0 41 11 53t43 12q30 0 40.5 -12.5t10.5 -52.5q0 -38 -10.5 -49t-40.5 -11zM162 313h84q-68 -83 -98 -155.5t-30 -156.5q0 -53 23 -78t83 -25q70 0 112 22l19 -90q-59 -25 -135 -25q-102 0 -147 49t-45 147q0 86 31.5 156.5t102.5 155.5z
" />
    <glyph glyph-name="Agrave" unicode="&#xc0;" horiz-adv-x="540" 
d="M454 0q-36 109 -60 194h-259q-6 -23 -16 -62t-18.5 -71.5t-15.5 -60.5h-84q89 339 206 697h132q106 -406 206 -697h-91zM281 613h-22q-45 -136 -100 -332h211q-48 166 -89 332zM338 747h-78l-127 129h92z" />
    <glyph glyph-name="Aacute" unicode="&#xc1;" horiz-adv-x="540" 
d="M454 0q-36 109 -60 194h-259q-6 -23 -16 -62t-18.5 -71.5t-15.5 -60.5h-84q89 339 206 697h132q106 -406 206 -697h-91zM281 613h-22q-45 -136 -100 -332h211q-48 166 -89 332zM278 747h-71l106 129h91z" />
    <glyph glyph-name="Acircumflex" unicode="&#xc2;" horiz-adv-x="540" 
d="M454 0q-36 109 -60 194h-259q-6 -23 -16 -62t-18.5 -71.5t-15.5 -60.5h-84q89 339 206 697h132q106 -406 206 -697h-91zM281 613h-22q-45 -136 -100 -332h211q-48 166 -89 332zM269 831l-60 -84h-75q33 43 97 129h78l101 -129h-79z" />
    <glyph glyph-name="Atilde" unicode="&#xc3;" horiz-adv-x="540" 
d="M454 0q-36 109 -60 194h-259q-6 -23 -16 -62t-18.5 -71.5t-15.5 -60.5h-84q89 339 206 697h132q106 -406 206 -697h-91zM281 613h-22q-45 -136 -100 -332h211q-48 166 -89 332zM373 873l41 -41q-12 -43 -36 -67.5t-56 -24.5q-23 0 -60 30.5t-55 30.5q-26 0 -44 -55
l-36 44q18 40 37 59.5t46 19.5q26 0 62.5 -28.5t54.5 -28.5q29 0 46 61z" />
    <glyph glyph-name="Adieresis" unicode="&#xc4;" horiz-adv-x="540" 
d="M454 0q-36 109 -60 194h-259q-6 -23 -16 -62t-18.5 -71.5t-15.5 -60.5h-84q89 339 206 697h132q106 -406 206 -697h-91zM281 613h-22q-45 -136 -100 -332h211q-48 166 -89 332zM188 855q24 0 32 -8.5t8 -38.5q0 -33 -8 -42.5t-32 -9.5t-32.5 9.5t-8.5 42.5q0 30 8.5 38.5
t32.5 8.5zM349 855q24 0 32 -8.5t8 -38.5q0 -33 -8 -42.5t-32 -9.5t-32.5 9.5t-8.5 42.5q0 30 8.5 38.5t32.5 8.5z" />
    <glyph glyph-name="Aring" unicode="&#xc5;" horiz-adv-x="540" 
d="M454 0q-36 109 -60 194h-259q-6 -23 -16 -62t-18.5 -71.5t-15.5 -60.5h-84q89 339 206 697h132q106 -406 206 -697h-91zM281 613h-22q-45 -136 -100 -332h211q-48 166 -89 332zM271 882q92 0 92 -96t-92 -96q-91 0 -91 96q0 51 21 73.5t70 22.5zM271 831
q-24 0 -33.5 -11.5t-9.5 -35.5q0 -48 43 -48q25 0 34.5 12t9.5 36q0 25 -9.5 36t-34.5 11z" />
    <glyph glyph-name="AE" unicode="&#xc6;" horiz-adv-x="772" 
d="M289 697h460v-87h-312v-198h188v-85h-188v-240h312v-87h-393v194h-262q-57 -104 -101 -194h-98q196 366 394 697zM356 613h-25q-115 -195 -190 -332h215v332z" />
    <glyph glyph-name="Ccedilla" unicode="&#xc7;" horiz-adv-x="477" 
d="M46 355q0 140 29 219.5t83 109.5t146 30q85 0 158 -26l-20 -91q-51 24 -128 24q-53 0 -84 -8.5t-54.5 -36.5t-32.5 -81t-9 -141t9 -141.5t32.5 -83t54.5 -39.5t84 -10q75 0 128 23l20 -91q-70 -26 -158 -26q-136 0 -197 81t-61 288zM271 0h33v-44q52 0 72 -16.5t20 -60.5
q0 -47 -23.5 -64.5t-81.5 -17.5q-54 0 -82 18l16 48q23 -14 63 -14q23 0 31.5 6t8.5 24q0 20 -18 26t-68 2z" />
    <glyph glyph-name="Egrave" unicode="&#xc8;" horiz-adv-x="492" 
d="M76 697h393v-87h-312v-198h221v-86h-221v-239h312v-87h-393v697zM371 747h-77l-128 129h92z" />
    <glyph glyph-name="Eacute" unicode="&#xc9;" horiz-adv-x="492" 
d="M76 697h393v-87h-312v-198h221v-86h-221v-239h312v-87h-393v697zM276 747h-70l105 129h91z" />
    <glyph glyph-name="Ecircumflex" unicode="&#xca;" horiz-adv-x="492" 
d="M76 697h393v-87h-312v-198h221v-86h-221v-239h312v-87h-393v697zM277 831l-60 -84h-75q64 86 97 129h78l101 -129h-79z" />
    <glyph glyph-name="Edieresis" unicode="&#xcb;" horiz-adv-x="492" 
d="M76 697h393v-87h-312v-198h221v-86h-221v-239h312v-87h-393v697zM198 855q24 0 32 -8.5t8 -38.5q0 -33 -8 -42.5t-32 -9.5t-32 9.5t-8 42.5q0 30 8 38.5t32 8.5zM359 855q24 0 32 -8.5t8 -38.5q0 -33 -8 -42.5t-32 -9.5t-32.5 9.5t-8.5 42.5q0 30 8.5 38.5t32.5 8.5z" />
    <glyph glyph-name="Igrave" unicode="&#xcc;" horiz-adv-x="232" 
d="M76 697h80v-697h-80v697zM179 747h-78l-127 129h92z" />
    <glyph glyph-name="Iacute" unicode="&#xcd;" horiz-adv-x="232" 
d="M76 697h81v-697h-81v697zM127 747h-70l106 129h91z" />
    <glyph glyph-name="Icircumflex" unicode="&#xce;" horiz-adv-x="232" 
d="M76 697h81v-697h-81v697zM114 831l-60 -84h-75q17 21 49.5 64t48.5 65h77l101 -129h-78z" />
    <glyph glyph-name="Idieresis" unicode="&#xcf;" horiz-adv-x="233" 
d="M76 697h81v-697h-81v697zM38 855q24 0 32 -8.5t8 -38.5q0 -33 -8 -42.5t-32 -9.5t-32.5 9.5t-8.5 42.5q0 30 8.5 38.5t32.5 8.5zM199 855q24 0 32 -8.5t8 -38.5q0 -33 -8 -42.5t-32 -9.5q-25 0 -33 9.5t-8 42.5q0 30 8 38.5t33 8.5z" />
    <glyph glyph-name="Eth" unicode="&#xd0;" horiz-adv-x="576" 
d="M33 323v73h43v301h192q91 0 146 -29.5t85 -106.5t30 -210q0 -196 -62 -273.5t-199 -77.5h-192v323h-43zM443 350q0 111 -18.5 167t-54 73.5t-107.5 17.5h-106v-212h129v-73h-129v-236h106q69 0 106.5 21.5t55.5 78t18 163.5z" />
    <glyph glyph-name="Ntilde" unicode="&#xd1;" horiz-adv-x="602" 
d="M526 697v-697h-100q-119 278 -270 575v-575h-80v697h108q124 -237 260 -546v546h82zM410 873l41 -41q-12 -43 -36 -67.5t-56 -24.5q-23 0 -60 30.5t-55 30.5q-25 0 -44 -55l-36 44q35 79 83 79q26 0 62.5 -28.5t54.5 -28.5q30 0 46 61z" />
    <glyph glyph-name="Ograve" unicode="&#xd2;" horiz-adv-x="610" 
d="M305 714q92 0 146 -30.5t83.5 -110.5t29.5 -220q0 -142 -29 -223t-83.5 -112.5t-146.5 -31.5q-91 0 -145.5 31.5t-84 112.5t-29.5 223q0 140 29.5 220t83.5 110.5t146 30.5zM305 77q70 0 105 21.5t51.5 80t16.5 172.5q0 118 -16.5 176t-51 77.5t-105.5 19.5
q-70 0 -104 -19.5t-50.5 -77.5t-16.5 -176q0 -114 16 -172t51 -80t104 -22zM379 747h-78l-127 129h92z" />
    <glyph glyph-name="Oacute" unicode="&#xd3;" horiz-adv-x="610" 
d="M305 714q92 0 146 -30.5t83.5 -110.5t29.5 -220q0 -142 -29 -223t-83.5 -112.5t-146.5 -31.5q-91 0 -145.5 31.5t-84 112.5t-29.5 223q0 140 29.5 220t83.5 110.5t146 30.5zM305 77q70 0 105 21.5t51.5 80t16.5 172.5q0 118 -16.5 176t-51 77.5t-105.5 19.5
q-70 0 -104 -19.5t-50.5 -77.5t-16.5 -176q0 -114 16 -172t51 -80t104 -22zM276 747h-71l106 129h91z" />
    <glyph glyph-name="Ocircumflex" unicode="&#xd4;" horiz-adv-x="610" 
d="M305 714q92 0 146 -30.5t83.5 -110.5t29.5 -220q0 -142 -29 -223t-83.5 -112.5t-146.5 -31.5q-91 0 -145.5 31.5t-84 112.5t-29.5 223q0 140 29.5 220t83.5 110.5t146 30.5zM305 77q70 0 105 21.5t51.5 80t16.5 172.5q0 118 -16.5 176t-51 77.5t-105.5 19.5
q-70 0 -104 -19.5t-50.5 -77.5t-16.5 -176q0 -114 16 -172t51 -80t104 -22zM301 831l-60 -84h-75q16 21 48.5 64t49.5 65h77l101 -129h-78z" />
    <glyph glyph-name="Otilde" unicode="&#xd5;" horiz-adv-x="610" 
d="M305 714q92 0 146 -30.5t83.5 -110.5t29.5 -220q0 -142 -29 -223t-83.5 -112.5t-146.5 -31.5q-91 0 -145.5 31.5t-84 112.5t-29.5 223q0 140 29.5 220t83.5 110.5t146 30.5zM305 77q70 0 105 21.5t51.5 80t16.5 172.5q0 118 -16.5 176t-51 77.5t-105.5 19.5
q-70 0 -104 -19.5t-50.5 -77.5t-16.5 -176q0 -114 16 -172t51 -80t104 -22zM406 873l41 -41q-12 -43 -36 -67.5t-56 -24.5q-23 0 -60 30.5t-55 30.5q-26 0 -44 -55l-36 44q18 40 37 59.5t46 19.5q26 0 62.5 -28.5t54.5 -28.5q29 0 46 61z" />
    <glyph glyph-name="Odieresis" unicode="&#xd6;" horiz-adv-x="610" 
d="M305 714q92 0 146 -30.5t83.5 -110.5t29.5 -220q0 -142 -29 -223t-83.5 -112.5t-146.5 -31.5q-91 0 -145.5 31.5t-84 112.5t-29.5 223q0 140 29.5 220t83.5 110.5t146 30.5zM305 77q70 0 105 21.5t51.5 80t16.5 172.5q0 118 -16.5 176t-51 77.5t-105.5 19.5
q-70 0 -104 -19.5t-50.5 -77.5t-16.5 -176q0 -114 16 -172t51 -80t104 -22zM224 855q24 0 32 -8.5t8 -38.5q0 -33 -8 -42.5t-32 -9.5t-32 9.5t-8 42.5q0 30 8 38.5t32 8.5zM385 855q24 0 32 -8.5t8 -38.5q0 -33 -8 -42.5t-32 -9.5t-32.5 9.5t-8.5 42.5q0 30 8.5 38.5
t32.5 8.5z" />
    <glyph glyph-name="multiply" unicode="&#xd7;" horiz-adv-x="481" 
d="M129 158l-51 64l110 139l-110 139l50 62l111 -138l111 140l52 -64l-112 -140l111 -138l-50 -64l-111 139z" />
    <glyph glyph-name="Oslash" unicode="&#xd8;" horiz-adv-x="611" 
d="M503 697h84q-10 -15 -31.5 -46t-32.5 -47q42 -84 42 -251q0 -142 -29.5 -223.5t-84 -112.5t-145.5 -31q-115 0 -172 51q-14 -21 -26 -37h-83l65 93q-43 82 -43 260q0 140 29.5 220t83.5 110.5t146 30.5q114 0 173 -53zM306 624q-68 0 -102.5 -18.5t-51.5 -73t-17 -163.5
q0 -68 1 -81q3 -64 15 -105q92 134 276 404q-33 37 -121 37zM306 77q68 0 103 20.5t52 75.5t17 161q0 55 -1 80q-3 62 -15 101q-54 -78 -153.5 -223.5t-121.5 -177.5q34 -37 119 -37z" />
    <glyph glyph-name="Ugrave" unicode="&#xd9;" horiz-adv-x="591" 
d="M444 697h81v-471q0 -140 -55.5 -190t-173.5 -50q-58 0 -97.5 10t-71 36t-46.5 74t-15 120v471h82v-461q0 -92 33.5 -125t114.5 -33q79 0 113.5 32.5t34.5 125.5v461zM384 747h-78l-127 129h92z" />
    <glyph glyph-name="Uacute" unicode="&#xda;" horiz-adv-x="591" 
d="M444 697h81v-471q0 -140 -55.5 -190t-173.5 -50q-58 0 -97.5 10t-71 36t-46.5 74t-15 120v471h82v-461q0 -92 33.5 -125t114.5 -33q79 0 113.5 32.5t34.5 125.5v461zM288 747h-71l106 129h91z" />
    <glyph glyph-name="Ucircumflex" unicode="&#xdb;" horiz-adv-x="591" 
d="M444 697h81v-471q0 -140 -55.5 -190t-173.5 -50q-58 0 -97.5 10t-71 36t-46.5 74t-15 120v471h82v-461q0 -92 33.5 -125t114.5 -33q79 0 113.5 32.5t34.5 125.5v461zM292 831l-60 -84h-76q17 21 49 64t49 65h78l100 -129h-78z" />
    <glyph glyph-name="Udieresis" unicode="&#xdc;" horiz-adv-x="591" 
d="M444 697h81v-471q0 -140 -55.5 -190t-173.5 -50q-58 0 -97.5 10t-71 36t-46.5 74t-15 120v471h82v-461q0 -92 33.5 -125t114.5 -33q79 0 113.5 32.5t34.5 125.5v461zM213 855q24 0 32 -8.5t8 -38.5q0 -33 -8 -42.5t-32 -9.5t-32.5 9.5t-8.5 42.5q0 30 8.5 38.5t32.5 8.5z
M374 855q24 0 32 -8.5t8 -38.5q0 -33 -8 -42.5t-32 -9.5t-32.5 9.5t-8.5 42.5q0 30 8.5 38.5t32.5 8.5z" />
    <glyph glyph-name="Yacute" unicode="&#xdd;" horiz-adv-x="497" 
d="M88 697q79 -124 167 -286q96 159 161 286h97q-107 -198 -221 -379v-318h-82v318q-115 207 -228 379h106zM260 747h-70l106 129h91z" />
    <glyph glyph-name="Thorn" unicode="&#xde;" horiz-adv-x="529" 
d="M76 697h81v-110h189q156 0 156 -232q0 -95 -37.5 -158.5t-116.5 -63.5h-191v-133h-81v697zM157 220h173q40 0 61 35.5t21 99.5q0 145 -79 145h-176v-280z" />
    <glyph glyph-name="germandbls" unicode="&#xdf;" horiz-adv-x="508" 
d="M252 714q197 0 197 -174q0 -75 -24 -117.5t-92 -50.5q74 -4 102 -51t28 -131q0 -113 -51.5 -158.5t-169.5 -45.5q-27 0 -48 3l8 84q33 -3 42 -3q77 0 105 28.5t28 98.5q0 74 -27 103t-95 29h-24v81h23q63 0 87.5 27t24.5 88q0 56 -25.5 79.5t-88.5 23.5q-118 0 -118 -105
v-523h-76v532q0 92 52.5 137t141.5 45z" />
    <glyph glyph-name="agrave" unicode="&#xe0;" horiz-adv-x="441" 
d="M384 324v-298q-77 -40 -174 -40q-93 0 -130.5 36.5t-37.5 133.5q0 100 40 133.5t120 33.5q51 0 108 -15q0 79 -22 104.5t-88 25.5q-72 0 -120 -24l-16 82q75 25 148 25q92 0 132 -42.5t40 -154.5zM310 83v155q-36 11 -94 11q-55 0 -73.5 -15.5t-18.5 -72.5
q0 -62 17.5 -80t73.5 -18q50 0 95 20zM286 568h-71l-111 129h86z" />
    <glyph glyph-name="aacute" unicode="&#xe1;" horiz-adv-x="441" 
d="M384 324v-298q-77 -40 -174 -40q-93 0 -130.5 36.5t-37.5 133.5q0 100 40 133.5t120 33.5q51 0 108 -15q0 79 -22 104.5t-88 25.5q-72 0 -120 -24l-16 82q75 25 148 25q92 0 132 -42.5t40 -154.5zM310 83v155q-36 11 -94 11q-55 0 -73.5 -15.5t-18.5 -72.5
q0 -62 17.5 -80t73.5 -18q50 0 95 20zM226 568h-72l97 129h85z" />
    <glyph glyph-name="acircumflex" unicode="&#xe2;" horiz-adv-x="441" 
d="M384 324v-298q-77 -40 -174 -40q-93 0 -130.5 36.5t-37.5 133.5q0 100 40 133.5t120 33.5q51 0 108 -15q0 79 -22 104.5t-88 25.5q-72 0 -120 -24l-16 82q75 25 148 25q92 0 132 -42.5t40 -154.5zM310 83v155q-36 11 -94 11q-55 0 -73.5 -15.5t-18.5 -72.5
q0 -62 17.5 -80t73.5 -18q50 0 95 20zM281 568q-11 15 -32.5 43t-28.5 38q-11 -16 -59 -81h-76q17 21 49.5 64t48.5 65h77l101 -129h-80z" />
    <glyph glyph-name="atilde" unicode="&#xe3;" horiz-adv-x="441" 
d="M384 324v-298q-77 -40 -174 -40q-93 0 -130.5 36.5t-37.5 133.5q0 100 40 133.5t120 33.5q51 0 108 -15q0 79 -22 104.5t-88 25.5q-72 0 -120 -24l-16 82q75 25 148 25q92 0 132 -42.5t40 -154.5zM310 83v155q-36 11 -94 11q-55 0 -73.5 -15.5t-18.5 -72.5
q0 -62 17.5 -80t73.5 -18q50 0 95 20zM316 695l42 -41q-28 -92 -90 -92q-23 0 -57.5 30t-53.5 30q-26 0 -45 -56l-36 45q18 41 38 61t46 20q27 0 60.5 -29.5t50.5 -29.5q15 0 25 13.5t20 48.5z" />
    <glyph glyph-name="adieresis" unicode="&#xe4;" horiz-adv-x="441" 
d="M384 324v-298q-77 -40 -174 -40q-93 0 -130.5 36.5t-37.5 133.5q0 100 40 133.5t120 33.5q51 0 108 -15q0 79 -22 104.5t-88 25.5q-72 0 -120 -24l-16 82q75 25 148 25q92 0 132 -42.5t40 -154.5zM310 83v155q-36 11 -94 11q-55 0 -73.5 -15.5t-18.5 -72.5
q0 -62 17.5 -80t73.5 -18q50 0 95 20zM135 669q24 0 32 -8.5t8 -38.5q0 -33 -8 -42.5t-32 -9.5t-32.5 9.5t-8.5 42.5q0 30 8.5 38.5t32.5 8.5zM296 669q24 0 32 -8.5t8 -38.5q0 -33 -8 -42.5t-32 -9.5q-25 0 -33 9.5t-8 42.5q0 30 8 38.5t33 8.5z" />
    <glyph glyph-name="aring" unicode="&#xe5;" horiz-adv-x="441" 
d="M384 324v-298q-77 -40 -174 -40q-93 0 -130.5 36.5t-37.5 133.5q0 100 40 133.5t120 33.5q51 0 108 -15q0 79 -22 104.5t-88 25.5q-72 0 -120 -24l-16 82q75 25 148 25q92 0 132 -42.5t40 -154.5zM310 83v155q-36 11 -94 11q-55 0 -73.5 -15.5t-18.5 -72.5
q0 -62 17.5 -80t73.5 -18q50 0 95 20zM224 739q91 0 91 -96t-91 -96q-92 0 -92 96q0 51 21 73.5t71 22.5zM224 689q-25 0 -34.5 -11.5t-9.5 -35.5q0 -48 44 -48t44 48q0 24 -9.5 35.5t-34.5 11.5z" />
    <glyph glyph-name="ae" unicode="&#xe6;" horiz-adv-x="699" 
d="M621 93l15 -79q-74 -28 -138 -28q-85 0 -126 42q-24 -20 -71.5 -31t-90.5 -11q-93 0 -130.5 36.5t-37.5 133.5q0 100 40.5 133.5t119.5 33.5q51 0 108 -15q0 80 -20.5 104.5t-89.5 24.5q-74 0 -120 -23l-16 82q75 25 148 25q59 0 92.5 -16.5t48.5 -57.5q18 40 50.5 57
t86.5 17q96 0 135 -60t36 -227h-276q1 -98 28.5 -131.5t92.5 -33.5q58 0 115 24zM328 92q-19 58 -19 146q-36 11 -93 11q-55 0 -73.5 -15.5t-18.5 -72.5q0 -60 16.5 -79t74.5 -19q69 0 113 29zM493 442q-55 0 -78.5 -26.5t-28.5 -104.5h200q-2 79 -22 105t-71 26z" />
    <glyph glyph-name="ccedilla" unicode="&#xe7;" horiz-adv-x="374" 
d="M344 96l20 -83q-49 -27 -120 -27q-99 0 -148.5 60.5t-49.5 209.5q0 148 49.5 206.5t148.5 58.5q69 0 120 -24l-20 -84q-41 23 -96 23q-45 0 -69.5 -12.5t-38.5 -52.5t-14 -117q0 -107 28 -145t94 -38q48 0 96 25zM205 0h34v-44q51 0 71 -16.5t20 -60.5q0 -47 -23.5 -64.5
t-81.5 -17.5q-53 0 -81 18l16 48q23 -14 63 -14q23 0 31.5 6t8.5 24q0 20 -18.5 26t-68.5 2z" />
    <glyph glyph-name="egrave" unicode="&#xe8;" horiz-adv-x="440" 
d="M363 93l14 -79q-72 -28 -138 -28q-96 0 -144.5 60.5t-48.5 209.5q0 145 46 205t140 60q64 0 100 -23t54.5 -86.5t16.5 -177.5h-276q1 -98 28 -131.5t93 -33.5q58 0 115 24zM235 442q-56 0 -79.5 -28t-27.5 -103h200q-3 79 -23 105t-70 26zM307 568h-71l-112 129h87z" />
    <glyph glyph-name="eacute" unicode="&#xe9;" horiz-adv-x="440" 
d="M363 93l14 -79q-72 -28 -138 -28q-96 0 -144.5 60.5t-48.5 209.5q0 145 46 205t140 60q64 0 100 -23t54.5 -86.5t16.5 -177.5h-276q1 -98 28 -131.5t93 -33.5q58 0 115 24zM235 442q-56 0 -79.5 -28t-27.5 -103h200q-3 79 -23 105t-70 26zM236 568h-72l97 129h86z" />
    <glyph glyph-name="ecircumflex" unicode="&#xea;" horiz-adv-x="440" 
d="M363 93l14 -79q-72 -28 -138 -28q-96 0 -144.5 60.5t-48.5 209.5q0 145 46 205t140 60q64 0 100 -23t54.5 -86.5t16.5 -177.5h-276q1 -98 28 -131.5t93 -33.5q58 0 115 24zM235 442q-56 0 -79.5 -28t-27.5 -103h200q-3 79 -23 105t-70 26zM294 568q-11 15 -32.5 43
t-28.5 38q-11 -16 -59 -81h-76q17 21 49.5 64t48.5 65h77l101 -129h-80z" />
    <glyph glyph-name="edieresis" unicode="&#xeb;" horiz-adv-x="440" 
d="M363 93l14 -79q-72 -28 -138 -28q-96 0 -144.5 60.5t-48.5 209.5q0 145 46 205t140 60q64 0 100 -23t54.5 -86.5t16.5 -177.5h-276q1 -98 28 -131.5t93 -33.5q58 0 115 24zM235 442q-56 0 -79.5 -28t-27.5 -103h200q-3 79 -23 105t-70 26zM153 669q24 0 32 -8.5t8 -38.5
q0 -33 -8 -42.5t-32 -9.5t-32.5 9.5t-8.5 42.5q0 30 8.5 38.5t32.5 8.5zM314 669q24 0 32 -8.5t8 -38.5q0 -33 -8 -42.5t-32 -9.5t-32.5 9.5t-8.5 42.5q0 30 8.5 38.5t32.5 8.5z" />
    <glyph glyph-name="igrave" unicode="&#xec;" horiz-adv-x="191" 
d="M133 507v-507h-75v507h75zM149 568h-71l-111 129h86z" />
    <glyph glyph-name="iacute" unicode="&#xed;" horiz-adv-x="191" 
d="M134 507v-507h-75v507h75zM110 568h-72l97 129h85z" />
    <glyph glyph-name="icircumflex" unicode="&#xee;" horiz-adv-x="191" 
d="M133 507v-507h-75v507h75zM154 568q-11 15 -32.5 43t-28.5 38q-11 -16 -59 -81h-76q17 21 49 64t49 65h77l101 -129h-80z" />
    <glyph glyph-name="idieresis" unicode="&#xef;" horiz-adv-x="191" 
d="M133 507v-507h-75v507h75zM16 669q24 0 32 -8.5t8 -38.5q0 -33 -8 -42.5t-32 -9.5t-32.5 9.5t-8.5 42.5q0 30 8.5 38.5t32.5 8.5zM177 669q24 0 32 -8.5t8 -38.5q0 -33 -8 -42.5t-32 -9.5q-25 0 -33 9.5t-8 42.5q0 30 8 38.5t33 8.5z" />
    <glyph glyph-name="eth" unicode="&#xf0;" horiz-adv-x="499" 
d="M210 485l-33 57l57 46q-32 44 -90 109h106q14 -16 49 -59l55 45l32 -57l-49 -40q120 -172 120 -361q0 -143 -43.5 -192.5t-164.5 -49.5q-111 0 -158 53t-47 180q0 116 45 161t161 45q42 0 88 -8q-21 54 -67 121zM255 335q-77 0 -101 -24.5t-24 -101.5q0 -74 24 -105.5
t95 -31.5q49 0 72.5 10t36.5 46t13 110q0 51 -9 87q-46 10 -107 10z" />
    <glyph glyph-name="ntilde" unicode="&#xf1;" horiz-adv-x="454" 
d="M133 420v-420h-75v479q34 19 84.5 30.5t93.5 11.5q89 0 125.5 -51t36.5 -186v-284h-75v272q0 99 -20.5 130.5t-82.5 31.5q-48 0 -87 -14zM325 695l42 -41q-28 -92 -90 -92q-23 0 -58 30t-53 30q-26 0 -45 -56l-37 45q38 81 85 81q27 0 60.5 -29.5t50.5 -29.5
q15 0 25 13.5t20 48.5z" />
    <glyph glyph-name="ograve" unicode="&#xf2;" horiz-adv-x="470" 
d="M235 -14q-100 0 -144.5 59.5t-44.5 210.5q0 150 45 207.5t144 57.5q100 0 144.5 -57.5t44.5 -207.5q0 -152 -44.5 -211t-144.5 -59zM235 441q-44 0 -66 -13.5t-32.5 -53.5t-10.5 -120q0 -112 23 -150t86 -38t86 38t23 150q0 116 -22.5 151.5t-86.5 35.5zM312 568h-71
l-111 129h86z" />
    <glyph glyph-name="oacute" unicode="&#xf3;" horiz-adv-x="470" 
d="M235 -14q-100 0 -144.5 59.5t-44.5 210.5q0 150 45 207.5t144 57.5q100 0 144.5 -57.5t44.5 -207.5q0 -152 -44.5 -211t-144.5 -59zM235 441q-44 0 -66 -13.5t-32.5 -53.5t-10.5 -120q0 -112 23 -150t86 -38t86 38t23 150q0 116 -22.5 151.5t-86.5 35.5zM238 568h-72
l97 129h85z" />
    <glyph glyph-name="ocircumflex" unicode="&#xf4;" horiz-adv-x="470" 
d="M235 -14q-100 0 -144.5 59.5t-44.5 210.5q0 150 45 207.5t144 57.5q100 0 144.5 -57.5t44.5 -207.5q0 -152 -44.5 -211t-144.5 -59zM235 441q-44 0 -66 -13.5t-32.5 -53.5t-10.5 -120q0 -112 23 -150t86 -38t86 38t23 150q0 116 -22.5 151.5t-86.5 35.5zM292 568
q-11 15 -32.5 43t-28.5 38q-11 -16 -59 -81h-76q64 86 97 129h78l101 -129h-80z" />
    <glyph glyph-name="otilde" unicode="&#xf5;" horiz-adv-x="470" 
d="M235 -14q-100 0 -144.5 59.5t-44.5 210.5q0 150 45 207.5t144 57.5q100 0 144.5 -57.5t44.5 -207.5q0 -152 -44.5 -211t-144.5 -59zM235 441q-44 0 -66 -13.5t-32.5 -53.5t-10.5 -120q0 -112 23 -150t86 -38t86 38t23 150q0 116 -22.5 151.5t-86.5 35.5zM333 695l42 -41
q-28 -92 -90 -92q-23 0 -58 30t-53 30q-26 0 -45 -56l-37 45q38 81 85 81q27 0 60.5 -29.5t50.5 -29.5q15 0 25 13.5t20 48.5z" />
    <glyph glyph-name="odieresis" unicode="&#xf6;" horiz-adv-x="470" 
d="M235 -14q-100 0 -144.5 59.5t-44.5 210.5q0 150 45 207.5t144 57.5q100 0 144.5 -57.5t44.5 -207.5q0 -152 -44.5 -211t-144.5 -59zM235 441q-44 0 -66 -13.5t-32.5 -53.5t-10.5 -120q0 -112 23 -150t86 -38t86 38t23 150q0 116 -22.5 151.5t-86.5 35.5zM154 669
q24 0 32 -8.5t8 -38.5q0 -33 -8 -42.5t-32 -9.5t-32.5 9.5t-8.5 42.5q0 30 8.5 38.5t32.5 8.5zM315 669q24 0 32 -8.5t8 -38.5q0 -33 -8 -42.5t-32 -9.5t-32.5 9.5t-8.5 42.5q0 30 8.5 38.5t32.5 8.5z" />
    <glyph glyph-name="divide" unicode="&#xf7;" horiz-adv-x="481" 
d="M47 315v89h386v-89h-386zM241 215q31 0 41.5 -10.5t10.5 -48.5q0 -41 -10.5 -53.5t-41.5 -12.5q-30 0 -41 12.5t-11 53.5q0 37 10.5 48t41.5 11zM241 627q31 0 41.5 -11t10.5 -49q0 -41 -10.5 -53t-41.5 -12t-41.5 12t-10.5 53q0 38 10.5 49t41.5 11z" />
    <glyph glyph-name="oslash" unicode="&#xf8;" horiz-adv-x="470" 
d="M369 507h77l-51 -73q28 -60 28 -178q0 -151 -44.5 -210.5t-144.5 -59.5q-77 0 -120 34l-15 -20h-75l50 73q-28 57 -28 183q0 150 44.5 207.5t143.5 57.5q81 0 120 -34zM234 441q-42 0 -64 -13t-33 -50.5t-11 -111.5q0 -79 4 -107l182 260q-23 22 -78 22zM234 66
q64 0 86.5 40t22.5 146q0 60 -4 95l-181 -258q22 -23 76 -23z" />
    <glyph glyph-name="ugrave" unicode="&#xf9;" horiz-adv-x="455" 
d="M322 88v419h75v-479q-35 -19 -85 -30.5t-93 -11.5q-89 0 -125.5 51t-36.5 186v284h75v-272q0 -99 20.5 -130.5t81.5 -31.5q50 0 88 15zM303 568h-72l-111 129h87z" />
    <glyph glyph-name="uacute" unicode="&#xfa;" horiz-adv-x="455" 
d="M322 88v419h75v-479q-35 -19 -85 -30.5t-93 -11.5q-89 0 -125.5 51t-36.5 186v284h75v-272q0 -99 20.5 -130.5t81.5 -31.5q50 0 88 15zM235 568h-72l96 129h86z" />
    <glyph glyph-name="ucircumflex" unicode="&#xfb;" horiz-adv-x="455" 
d="M322 88v419h75v-479q-35 -19 -85 -30.5t-93 -11.5q-89 0 -125.5 51t-36.5 186v284h75v-272q0 -99 20.5 -130.5t81.5 -31.5q50 0 88 15zM293 568q-11 15 -32.5 43t-28.5 38q-11 -16 -59 -81h-76q17 21 49.5 64t48.5 65h77l101 -129h-80z" />
    <glyph glyph-name="udieresis" unicode="&#xfc;" horiz-adv-x="455" 
d="M322 88v419h75v-479q-35 -19 -85 -30.5t-93 -11.5q-89 0 -125.5 51t-36.5 186v284h75v-272q0 -99 20.5 -130.5t81.5 -31.5q50 0 88 15zM153 669q24 0 32 -8.5t8 -38.5q0 -33 -8 -42.5t-32 -9.5t-32.5 9.5t-8.5 42.5q0 30 8.5 38.5t32.5 8.5zM314 669q24 0 32 -8.5
t8 -38.5q0 -33 -8 -42.5t-32 -9.5t-32.5 9.5t-8.5 42.5q0 30 8.5 38.5t32.5 8.5z" />
    <glyph glyph-name="yacute" unicode="&#xfd;" horiz-adv-x="408" 
d="M156 -24q-72 326 -146 531h81q55 -160 113 -417q75 232 114 417h78q-48 -208 -152 -517q-36 -107 -68 -182h-85q23 53 65 168zM222 568h-72l97 129h85z" />
    <glyph glyph-name="thorn" unicode="&#xfe;" horiz-adv-x="463" 
d="M58 -192v908h75v-209q48 14 95 14q101 0 145 -57.5t44 -208.5q0 -150 -43.5 -209.5t-136.5 -59.5q-62 0 -104 36v-214h-75zM133 419v-289q0 -28 27 -44.5t68 -16.5q63 0 86.5 38t23.5 146q0 114 -23 149t-87 35q-56 0 -95 -18z" />
    <glyph glyph-name="ydieresis" unicode="&#xff;" horiz-adv-x="408" 
d="M156 -24q-72 326 -146 531h81q55 -160 113 -417q75 232 114 417h78q-48 -208 -152 -517q-36 -107 -68 -182h-85q23 53 65 168zM126 669q24 0 32 -8.5t8 -38.5q0 -33 -8 -42.5t-32 -9.5t-32.5 9.5t-8.5 42.5q0 30 8.5 38.5t32.5 8.5zM287 669q24 0 32 -8.5t8 -38.5
q0 -33 -8 -42.5t-32 -9.5t-32.5 9.5t-8.5 42.5q0 30 8.5 38.5t32.5 8.5z" />
    <glyph glyph-name="Amacron" unicode="&#x100;" horiz-adv-x="540" 
d="M454 0q-36 109 -60 194h-259q-6 -23 -16 -62t-18.5 -71.5t-15.5 -60.5h-84q89 339 206 697h132q106 -406 206 -697h-91zM281 613h-22q-45 -136 -100 -332h211q-48 166 -89 332zM163 762v77h212v-77h-212z" />
    <glyph glyph-name="amacron" unicode="&#x101;" horiz-adv-x="441" 
d="M384 324v-298q-77 -40 -174 -40q-93 0 -130.5 36.5t-37.5 133.5q0 100 40 133.5t120 33.5q51 0 108 -15q0 79 -22 104.5t-88 25.5q-72 0 -120 -24l-16 82q75 25 148 25q92 0 132 -42.5t40 -154.5zM310 83v155q-36 11 -94 11q-55 0 -73.5 -15.5t-18.5 -72.5
q0 -62 17.5 -80t73.5 -18q50 0 95 20zM112 581v74h212v-74h-212z" />
    <glyph glyph-name="Abreve" unicode="&#x102;" horiz-adv-x="540" 
d="M454 0q-36 109 -60 194h-259q-6 -23 -16 -62t-18.5 -71.5t-15.5 -60.5h-84q89 339 206 697h132q106 -406 206 -697h-91zM281 613h-22q-45 -136 -100 -332h211q-48 166 -89 332zM155 871h56q0 -37 14 -50t45 -13q30 0 44 13t14 50h53q0 -132 -113 -132t-113 132z" />
    <glyph glyph-name="abreve" unicode="&#x103;" horiz-adv-x="441" 
d="M384 324v-298q-77 -40 -174 -40q-93 0 -130.5 36.5t-37.5 133.5q0 100 40 133.5t120 33.5q51 0 108 -15q0 79 -22 104.5t-88 25.5q-72 0 -120 -24l-16 82q75 25 148 25q92 0 132 -42.5t40 -154.5zM310 83v155q-36 11 -94 11q-55 0 -73.5 -15.5t-18.5 -72.5
q0 -62 17.5 -80t73.5 -18q50 0 95 20zM104 697h56q0 -37 14 -50t45 -13q30 0 44 13t14 50h53q0 -132 -113 -132t-113 132z" />
    <glyph glyph-name="Aogonek" unicode="&#x104;" horiz-adv-x="540" 
d="M454 0q-36 109 -60 194h-259q-6 -23 -16 -62t-18.5 -71.5t-15.5 -60.5h-84q89 339 206 697h132q106 -406 206 -697h-91zM281 613h-22q-45 -136 -100 -332h211q-48 166 -89 332zM500 12h30q-43 -33 -57.5 -56t-14.5 -54q0 -23 11 -33t41 -10q40 0 69 29l26 -56
q-38 -35 -102 -35q-58 0 -81 21.5t-23 67.5q0 41 25.5 75t75.5 51z" />
    <glyph glyph-name="aogonek" unicode="&#x105;" horiz-adv-x="441" 
d="M384 324v-298q-77 -40 -174 -40q-93 0 -130.5 36.5t-37.5 133.5q0 100 40 133.5t120 33.5q51 0 108 -15q0 79 -22 104.5t-88 25.5q-72 0 -120 -24l-16 82q75 25 148 25q92 0 132 -42.5t40 -154.5zM310 83v155q-36 11 -94 11q-55 0 -73.5 -15.5t-18.5 -72.5
q0 -62 17.5 -80t73.5 -18q50 0 95 20zM322 12h30q-43 -32 -57.5 -55.5t-14.5 -54.5q0 -23 11 -33t41 -10q40 0 69 29l26 -56q-38 -35 -103 -35q-58 0 -81 21.5t-23 67.5q0 41 26 75t76 51z" />
    <glyph glyph-name="Cacute" unicode="&#x106;" horiz-adv-x="477" 
d="M46 355q0 140 29 219.5t83 109.5t146 30q85 0 158 -26l-20 -91q-51 24 -128 24q-53 0 -84 -8.5t-54.5 -36.5t-32.5 -81t-9 -141t9 -141.5t32.5 -83t54.5 -39.5t84 -10q75 0 128 23l20 -91q-70 -26 -158 -26q-136 0 -197 81t-61 288zM272 747h-71l106 129h91z" />
    <glyph glyph-name="cacute" unicode="&#x107;" horiz-adv-x="374" 
d="M344 96l20 -83q-49 -27 -120 -27q-99 0 -148.5 60.5t-49.5 209.5q0 148 49.5 206.5t148.5 58.5q69 0 120 -24l-20 -84q-41 23 -96 23q-45 0 -69.5 -12.5t-38.5 -52.5t-14 -117q0 -107 28 -145t94 -38q48 0 96 25zM231 568h-72l97 129h85z" />
    <glyph glyph-name="Ccircumflex" unicode="&#x108;" horiz-adv-x="477" 
d="M46 355q0 140 29 219.5t83 109.5t146 30q85 0 158 -26l-20 -91q-51 24 -128 24q-53 0 -84 -8.5t-54.5 -36.5t-32.5 -81t-9 -141t9 -141.5t32.5 -83t54.5 -39.5t84 -10q75 0 128 23l20 -91q-70 -26 -158 -26q-136 0 -197 81t-61 288zM297 831l-60 -84h-75q17 21 49.5 64
t48.5 65h77l101 -129h-78z" />
    <glyph glyph-name="ccircumflex" unicode="&#x109;" horiz-adv-x="375" 
d="M344 96l20 -83q-49 -27 -120 -27q-99 0 -148.5 60.5t-49.5 209.5q0 148 49.5 206.5t148.5 58.5q69 0 120 -24l-20 -84q-41 23 -96 23q-45 0 -69.5 -12.5t-38.5 -52.5t-14 -117q0 -107 28 -145t94 -38q48 0 96 25zM292 568q-11 15 -32.5 43t-28.5 38q-11 -16 -59 -81h-76
q64 86 97 129h78l101 -129h-80z" />
    <glyph glyph-name="Cdotaccent" unicode="&#x10a;" horiz-adv-x="477" 
d="M46 355q0 140 29 219.5t83 109.5t146 30q85 0 158 -26l-20 -91q-51 24 -128 24q-53 0 -84 -8.5t-54.5 -36.5t-32.5 -81t-9 -141t9 -141.5t32.5 -83t54.5 -39.5t84 -10q75 0 128 23l20 -91q-70 -26 -158 -26q-136 0 -197 81t-61 288zM296 857q24 0 32 -8.5t8 -38.5
q0 -33 -8 -43t-32 -10t-32 10t-8 43q0 30 8 38.5t32 8.5z" />
    <glyph glyph-name="cdotaccent" unicode="&#x10b;" horiz-adv-x="374" 
d="M344 96l20 -83q-49 -27 -120 -27q-99 0 -148.5 60.5t-49.5 209.5q0 148 49.5 206.5t148.5 58.5q69 0 120 -24l-20 -84q-41 23 -96 23q-45 0 -69.5 -12.5t-38.5 -52.5t-14 -117q0 -107 28 -145t94 -38q48 0 96 25zM238 669q24 0 32 -8.5t8 -38.5q0 -33 -8 -42.5t-32 -9.5
t-32.5 10t-8.5 42q0 29 8.5 38t32.5 9z" />
    <glyph glyph-name="Ccaron" unicode="&#x10c;" horiz-adv-x="477" 
d="M46 355q0 140 29 219.5t83 109.5t146 30q85 0 158 -26l-20 -91q-51 24 -128 24q-53 0 -84 -8.5t-54.5 -36.5t-32.5 -81t-9 -141t9 -141.5t32.5 -83t54.5 -39.5t84 -10q75 0 128 23l20 -91q-70 -26 -158 -26q-136 0 -197 81t-61 288zM228 876l62 -84l61 84h75l-98 -129
h-77l-101 129h78z" />
    <glyph glyph-name="ccaron" unicode="&#x10d;" horiz-adv-x="374" 
d="M344 96l20 -83q-49 -27 -120 -27q-99 0 -148.5 60.5t-49.5 209.5q0 148 49.5 206.5t148.5 58.5q69 0 120 -24l-20 -84q-41 23 -96 23q-45 0 -69.5 -12.5t-38.5 -52.5t-14 -117q0 -107 28 -145t94 -38q48 0 96 25zM96 697h80l60 -81l60 81h76l-97 -129h-78z" />
    <glyph glyph-name="Dcaron" unicode="&#x10e;" horiz-adv-x="576" 
d="M76 697h192q91 0 146 -29.5t85 -106.5t30 -210q0 -196 -62 -273.5t-199 -77.5h-192v697zM442 350q0 112 -18 167.5t-54 74t-107 18.5h-106v-523h106q69 0 106 21.5t55 78t18 163.5zM206 876l62 -84l61 84h75l-98 -129h-77l-101 129h78z" />
    <glyph glyph-name="dcaron" unicode="&#x10f;" horiz-adv-x="465" 
d="M331 88v290q0 28 -27.5 44t-68.5 16q-62 0 -85.5 -38t-23.5 -145q0 -114 23 -149.5t87 -35.5q54 0 95 18zM406 722v-697q-32 -17 -80.5 -28t-89.5 -11q-101 0 -145.5 58t-44.5 209q0 149 43.5 208.5t136.5 59.5q61 0 105 -34v235h75zM449 722h74l-45 -192h-46z" />
    <glyph glyph-name="Dcroat" unicode="&#x110;" horiz-adv-x="576" 
d="M33 323v73h43v301h192q91 0 146 -29.5t85 -106.5t30 -210q0 -196 -62 -273.5t-199 -77.5h-192v323h-43zM443 350q0 111 -18.5 167t-54 73.5t-107.5 17.5h-106v-212h129v-73h-129v-236h106q69 0 106.5 21.5t55.5 78t18 163.5z" />
    <glyph glyph-name="dcroat" unicode="&#x111;" horiz-adv-x="465" 
d="M252 583v71h79v68h75v-68h38v-71h-38v-558q-32 -17 -80.5 -28t-89.5 -11q-101 0 -145.5 58t-44.5 209q0 149 43.5 208.5t136.5 59.5q61 0 105 -34v96h-79zM331 88v290q0 28 -27.5 44t-68.5 16q-62 0 -85.5 -38t-23.5 -145q0 -114 23 -149.5t87 -35.5q54 0 95 18z" />
    <glyph glyph-name="Emacron" unicode="&#x112;" horiz-adv-x="492" 
d="M76 697h393v-87h-312v-198h221v-86h-221v-239h312v-87h-393v697zM166 762v77h212v-77h-212z" />
    <glyph glyph-name="emacron" unicode="&#x113;" horiz-adv-x="440" 
d="M363 93l14 -79q-72 -28 -138 -28q-96 0 -144.5 60.5t-48.5 209.5q0 145 46 205t140 60q64 0 100 -23t54.5 -86.5t16.5 -177.5h-276q1 -98 28 -131.5t93 -33.5q58 0 115 24zM235 442q-56 0 -79.5 -28t-27.5 -103h200q-3 79 -23 105t-70 26zM128 581v74h212v-74h-212z" />
    <glyph glyph-name="Ebreve" unicode="&#x114;" horiz-adv-x="492" 
d="M76 697h393v-87h-312v-198h221v-86h-221v-239h312v-87h-393v697zM164 871h56q0 -37 13.5 -50t44.5 -13t45 13t14 50h53q0 -132 -113 -132t-113 132z" />
    <glyph glyph-name="ebreve" unicode="&#x115;" horiz-adv-x="440" 
d="M363 93l14 -79q-72 -28 -138 -28q-96 0 -144.5 60.5t-48.5 209.5q0 145 46 205t140 60q64 0 100 -23t54.5 -86.5t16.5 -177.5h-276q1 -98 28 -131.5t93 -33.5q58 0 115 24zM235 442q-56 0 -79.5 -28t-27.5 -103h200q-3 79 -23 105t-70 26zM117 697h56q0 -37 13.5 -50
t45.5 -13q30 0 44 13t14 50h53q0 -132 -113 -132t-113 132z" />
    <glyph glyph-name="Edotaccent" unicode="&#x116;" horiz-adv-x="492" 
d="M76 697h393v-87h-312v-198h221v-86h-221v-239h312v-87h-393v697zM290 857q24 0 32 -8.5t8 -38.5q0 -33 -8 -43t-32 -10t-32 10t-8 43q0 30 8 38.5t32 8.5z" />
    <glyph glyph-name="edotaccent" unicode="&#x117;" horiz-adv-x="440" 
d="M363 93l14 -79q-72 -28 -138 -28q-96 0 -144.5 60.5t-48.5 209.5q0 145 46 205t140 60q64 0 100 -23t54.5 -86.5t16.5 -177.5h-276q1 -98 28 -131.5t93 -33.5q58 0 115 24zM235 442q-56 0 -79.5 -28t-27.5 -103h200q-3 79 -23 105t-70 26zM231 669q24 0 32 -8.5t8 -38.5
q0 -33 -8 -42.5t-32 -9.5t-32.5 9.5t-8.5 42.5q0 30 8.5 38.5t32.5 8.5z" />
    <glyph glyph-name="Eogonek" unicode="&#x118;" horiz-adv-x="492" 
d="M76 697h393v-87h-312v-198h221v-86h-221v-239h312v-87h-393v697zM424 12h30q-43 -32 -57.5 -55.5t-14.5 -54.5q0 -23 11 -33t41 -10q40 0 69 29l26 -56q-38 -35 -103 -35q-58 0 -81 21.5t-23 67.5q0 41 26 75t76 51z" />
    <glyph glyph-name="eogonek" unicode="&#x119;" horiz-adv-x="440" 
d="M363 93l14 -79q-72 -28 -138 -28q-96 0 -144.5 60.5t-48.5 209.5q0 145 46 205t140 60q64 0 100 -23t54.5 -86.5t16.5 -177.5h-276q1 -98 28 -131.5t93 -33.5q58 0 115 24zM235 442q-56 0 -79.5 -28t-27.5 -103h200q-3 79 -23 105t-70 26zM327 12h29q-43 -33 -57.5 -56
t-14.5 -54q0 -23 11 -33t41 -10q41 0 70 29l26 -56q-38 -35 -103 -35q-58 0 -81 21.5t-23 67.5q0 41 26 75t76 51z" />
    <glyph glyph-name="Ecaron" unicode="&#x11a;" horiz-adv-x="492" 
d="M76 697h393v-87h-312v-198h221v-86h-221v-239h312v-87h-393v697zM219 876l63 -84l60 84h76l-98 -129h-78l-100 129h77z" />
    <glyph glyph-name="ecaron" unicode="&#x11b;" horiz-adv-x="440" 
d="M363 93l14 -79q-72 -28 -138 -28q-96 0 -144.5 60.5t-48.5 209.5q0 145 46 205t140 60q64 0 100 -23t54.5 -86.5t16.5 -177.5h-276q1 -98 28 -131.5t93 -33.5q58 0 115 24zM235 442q-56 0 -79.5 -28t-27.5 -103h200q-3 79 -23 105t-70 26zM93 697h79l61 -81l59 81h77
l-97 -129h-78z" />
    <glyph glyph-name="Gcircumflex" unicode="&#x11c;" horiz-adv-x="550" 
d="M406 91v215h-134v85h216v-379q-67 -26 -184 -26q-136 0 -197 81t-61 288q0 140 31 220t86.5 109.5t148.5 29.5q87 0 162 -26l-20 -90q-51 24 -138 24q-43 0 -70.5 -5.5t-51 -21t-35.5 -45.5t-18.5 -77.5t-6.5 -118.5q0 -88 9 -142t32.5 -84t55 -40t83.5 -10q46 0 92 13z
M299 831l-60 -84h-75q64 86 97 129h78l101 -129h-79z" />
    <glyph glyph-name="gcircumflex" unicode="&#x11d;" horiz-adv-x="464" 
d="M331 131v290q-41 18 -95 18q-65 0 -87.5 -35t-22.5 -150q0 -108 23 -145.5t86 -37.5q41 0 68.5 16t27.5 44zM331 25q-44 -38 -107 -38q-94 0 -136 58.5t-42 208.5q0 151 44.5 209t145.5 58q97 0 170 -38v-445q0 -136 -52.5 -188.5t-156.5 -52.5q-30 0 -71.5 8.5
t-65.5 20.5l18 81q56 -27 118 -27q69 0 102 31.5t33 113.5zM299 568q-11 15 -32.5 43t-28.5 38q-11 -16 -59 -81h-76q33 43 97 129h78l101 -129h-80z" />
    <glyph glyph-name="Gbreve" unicode="&#x11e;" horiz-adv-x="550" 
d="M406 91v215h-134v85h216v-379q-67 -26 -184 -26q-136 0 -197 81t-61 288q0 140 31 220t86.5 109.5t148.5 29.5q87 0 162 -26l-20 -90q-51 24 -138 24q-43 0 -70.5 -5.5t-51 -21t-35.5 -45.5t-18.5 -77.5t-6.5 -118.5q0 -88 9 -142t32.5 -84t55 -40t83.5 -10q46 0 92 13z
M187 871h56q0 -37 13.5 -50t44.5 -13t45 13t14 50h52q0 -132 -112 -132q-113 0 -113 132z" />
    <glyph glyph-name="gbreve" unicode="&#x11f;" horiz-adv-x="464" 
d="M331 131v290q-41 18 -95 18q-65 0 -87.5 -35t-22.5 -150q0 -108 23 -145.5t86 -37.5q41 0 68.5 16t27.5 44zM331 25q-44 -38 -107 -38q-94 0 -136 58.5t-42 208.5q0 151 44.5 209t145.5 58q97 0 170 -38v-445q0 -136 -52.5 -188.5t-156.5 -52.5q-30 0 -71.5 8.5
t-65.5 20.5l18 81q56 -27 118 -27q69 0 102 31.5t33 113.5zM126 697h56q0 -37 13.5 -50t44.5 -13t45 13t14 50h53q0 -132 -113 -132t-113 132z" />
    <glyph glyph-name="Gdotaccent" unicode="&#x120;" horiz-adv-x="550" 
d="M406 91v215h-134v85h216v-379q-67 -26 -184 -26q-136 0 -197 81t-61 288q0 140 31 220t86.5 109.5t148.5 29.5q87 0 162 -26l-20 -90q-51 24 -138 24q-43 0 -70.5 -5.5t-51 -21t-35.5 -45.5t-18.5 -77.5t-6.5 -118.5q0 -88 9 -142t32.5 -84t55 -40t83.5 -10q46 0 92 13z
M305 857q24 0 32 -8.5t8 -38.5q0 -33 -8 -43t-32 -10t-32.5 10t-8.5 43q0 30 8.5 38.5t32.5 8.5z" />
    <glyph glyph-name="gdotaccent" unicode="&#x121;" horiz-adv-x="464" 
d="M331 131v290q-41 18 -95 18q-65 0 -87.5 -35t-22.5 -150q0 -108 23 -145.5t86 -37.5q41 0 68.5 16t27.5 44zM331 25q-44 -38 -107 -38q-94 0 -136 58.5t-42 208.5q0 151 44.5 209t145.5 58q97 0 170 -38v-445q0 -136 -52.5 -188.5t-156.5 -52.5q-30 0 -71.5 8.5
t-65.5 20.5l18 81q56 -27 118 -27q69 0 102 31.5t33 113.5zM235 669q24 0 32 -8.5t8 -38.5q0 -33 -8 -42.5t-32 -9.5t-32.5 9.5t-8.5 42.5q0 30 8.5 38.5t32.5 8.5z" />
    <glyph glyph-name="Gcommaaccent" unicode="&#x122;" horiz-adv-x="550" 
d="M406 91v215h-134v85h216v-379q-67 -26 -184 -26q-136 0 -197 81t-61 288q0 140 31 220t86.5 109.5t148.5 29.5q87 0 162 -26l-20 -90q-51 24 -138 24q-43 0 -70.5 -5.5t-51 -21t-35.5 -45.5t-18.5 -77.5t-6.5 -118.5q0 -88 9 -142t32.5 -84t55 -40t83.5 -10q46 0 92 13z
M365 -51l-83 -167h-61l57 167h87z" />
    <glyph glyph-name="gcommaaccent" unicode="&#x123;" horiz-adv-x="464" 
d="M331 131v290q-41 18 -95 18q-65 0 -87.5 -35t-22.5 -150q0 -108 23 -145.5t86 -37.5q41 0 68.5 16t27.5 44zM331 25q-44 -38 -107 -38q-94 0 -136 58.5t-42 208.5q0 151 44.5 209t145.5 58q97 0 170 -38v-445q0 -136 -52.5 -188.5t-156.5 -52.5q-30 0 -71.5 8.5
t-65.5 20.5l18 81q56 -27 118 -27q69 0 102 31.5t33 113.5zM327 747l-83 -167h-61l57 167h87z" />
    <glyph glyph-name="Hcircumflex" unicode="&#x124;" horiz-adv-x="580" 
d="M157 325v-325h-81v697h81v-279h267v279h81v-697h-81v325h-267zM284 831l-60 -84h-75q33 43 97 129h78l101 -129h-79z" />
    <glyph glyph-name="hcircumflex" unicode="&#x125;" horiz-adv-x="455" 
d="M248 521q81 0 116 -48.5t35 -183.5v-289h-76v277q0 83 -18.5 120t-75.5 37q-40 0 -67.5 -15.5t-27.5 -42.5v-376h-76v722h76v-239q46 38 114 38zM148 831l-60 -84h-75q16 21 49 64t49 65h77l101 -129h-78z" />
    <glyph glyph-name="Hbar" unicode="&#x126;" horiz-adv-x="580" 
d="M25 530v81h51v86h81v-86h267v86h81v-86h52v-81h-52v-530h-81v325h-267v-325h-81v530h-51zM157 418h267v112h-267v-112z" />
    <glyph glyph-name="hbar" unicode="&#x127;" horiz-adv-x="454" 
d="M12 588v69h46v65h76v-65h89v-69h-89v-105q46 38 115 38q80 0 114.5 -48.5t34.5 -183.5v-289h-75v277q0 95 -20.5 126.5t-73.5 31.5q-39 0 -67 -15.5t-28 -42.5v-377h-76v588h-46z" />
    <glyph glyph-name="Itilde" unicode="&#x128;" horiz-adv-x="232" 
d="M76 697h81v-697h-81v697zM220 873l41 -41q-12 -43 -36 -67.5t-56 -24.5q-23 0 -60 30.5t-55 30.5q-25 0 -44 -55l-36 44q35 79 83 79q26 0 62.5 -28.5t54.5 -28.5q30 0 46 61z" />
    <glyph glyph-name="itilde" unicode="&#x129;" horiz-adv-x="191" 
d="M133 507v-507h-75v507h75zM196 695l41 -41q-26 -92 -89 -92q-23 0 -58 30t-53 30q-27 0 -45 -56l-37 45q18 41 38 61t47 20t60 -29.5t50 -29.5q15 0 25.5 13.5t20.5 48.5z" />
    <glyph glyph-name="Imacron" unicode="&#x12a;" horiz-adv-x="232" 
d="M76 697h81v-697h-81v697zM11 762v77h212v-77h-212z" />
    <glyph glyph-name="imacron" unicode="&#x12b;" horiz-adv-x="191" 
d="M133 507v-507h-75v507h75zM-10 581v74h212v-74h-212z" />
    <glyph glyph-name="Ibreve" unicode="&#x12c;" horiz-adv-x="233" 
d="M76 697h81v-697h-81v697zM6 871h56q0 -37 13.5 -50t44.5 -13t45 13t14 50h53q0 -132 -113 -132t-113 132z" />
    <glyph glyph-name="ibreve" unicode="&#x12d;" horiz-adv-x="192" 
d="M134 507v-507h-76v507h76zM-16 697h56q0 -37 13.5 -50t44.5 -13t45 13t14 50h53q0 -132 -113 -132t-113 132z" />
    <glyph glyph-name="Iogonek" unicode="&#x12e;" horiz-adv-x="232" 
d="M76 697h81v-697h-81v697zM114 12h29q-43 -33 -57.5 -56t-14.5 -54q0 -23 11 -33t41 -10q41 0 70 29l25 -56q-36 -35 -102 -35q-58 0 -81 21.5t-23 67.5q0 41 26 75t76 51z" />
    <glyph glyph-name="iogonek" unicode="&#x12f;" horiz-adv-x="191" 
d="M134 507v-507h-75v507h75zM97 709q27 0 36 -9t9 -41q0 -35 -9 -45.5t-36 -10.5t-36.5 10.5t-9.5 45.5q0 32 9.5 41t36.5 9zM99 12h29q-43 -33 -57.5 -56t-14.5 -54q0 -23 11 -33t41 -10q41 0 70 29l25 -56q-36 -35 -102 -35q-58 0 -81 21.5t-23 67.5q0 41 26 75t76 51z
" />
    <glyph glyph-name="Idotaccent" unicode="&#x130;" horiz-adv-x="232" 
d="M76 697h81v-697h-81v697zM118 857q24 0 32 -8.5t8 -38.5q0 -33 -8.5 -43t-31.5 -10q-25 0 -33 10t-8 43q0 30 8 38.5t33 8.5z" />
    <glyph glyph-name="dotlessi" unicode="&#x131;" horiz-adv-x="191" 
d="M133 507v-507h-75v507h75z" />
    <glyph glyph-name="IJ" unicode="&#x132;" horiz-adv-x="592" 
d="M76 697h81v-697h-81v697zM517 697l1 -505q0 -206 -161 -206q-60 0 -118 29l20 92q43 -24 92 -24q83 0 83 118v496h83z" />
    <glyph glyph-name="ij" unicode="&#x133;" horiz-adv-x="382" 
d="M133 507v-507h-75v507h75zM97 709q26 0 35 -9t9 -41q0 -35 -9 -45.5t-35 -10.5q-27 0 -36.5 10.5t-9.5 45.5q0 32 9.5 41t36.5 9zM286 709q27 0 36 -9t9 -41q0 -35 -9.5 -45.5t-35.5 -10.5q-27 0 -36 10.5t-9 45.5q0 32 9 41t36 9zM323 507v-526q0 -106 -37 -145
t-113 -39v81q39 0 56.5 20.5t17.5 80.5v528h76z" />
    <glyph glyph-name="Jcircumflex" unicode="&#x134;" horiz-adv-x="361" 
d="M286 697v-505q0 -206 -160 -206q-60 0 -118 29l20 92q41 -24 92 -24q83 0 83 118v496h83zM240 831l-60 -84h-75q33 43 97 129h78l101 -129h-79z" />
    <glyph glyph-name="jcircumflex" unicode="&#x135;" horiz-adv-x="191" 
d="M236 568h-80l-61 81l-59 -81h-76l98 129h77zM-16 -203v82q39 0 56.5 20.5t17.5 80.5v527h76v-526q0 -105 -37 -144.5t-113 -39.5z" />
    <glyph glyph-name="Kcommaaccent" unicode="&#x136;" horiz-adv-x="511" 
d="M157 697v-697h-81v697h81zM519 0h-103q-85 160 -156 257t-102 111q33 27 99.5 116t140.5 213h103q-159 -250 -233 -320q29 -23 99 -123t152 -254zM318 -51l-84 -167h-60l56 167h88z" />
    <glyph glyph-name="kcommaaccent" unicode="&#x137;" horiz-adv-x="411" 
d="M133 722v-722h-75v722h75zM412 0h-92q-150 250 -187 268q44 41 174 239h92q-123 -187 -170 -230q42 -30 183 -277zM270 -51l-83 -167h-61l57 167h87z" />
    <glyph glyph-name="Lacute" unicode="&#x139;" horiz-adv-x="439" 
d="M76 697h81v-608h276v-89h-357v697zM147 747h-70l105 129h92z" />
    <glyph glyph-name="lacute" unicode="&#x13a;" horiz-adv-x="197" 
d="M134 722v-586q0 -64 35 -114l-64 -44q-46 59 -46 154v590h75zM116 747h-70l106 129h91z" />
    <glyph glyph-name="Lcommaaccent" unicode="&#x13b;" horiz-adv-x="439" 
d="M76 697h81v-608h276v-89h-357v697zM306 -51l-84 -167h-60l56 167h88z" />
    <glyph glyph-name="lcommaaccent" unicode="&#x13c;" horiz-adv-x="196" 
d="M133 722v-586q0 -64 35 -114l-64 -44q-46 59 -46 154v590h75zM174 -51l-83 -167h-61l57 167h87z" />
    <glyph glyph-name="Lcaron" unicode="&#x13d;" horiz-adv-x="439" 
d="M76 697h81v-608h276v-89h-357v697zM237 722h73l-44 -192h-46z" />
    <glyph glyph-name="lcaron" unicode="&#x13e;" horiz-adv-x="195" 
d="M133 722v-586q0 -64 35 -114l-64 -44q-46 59 -46 154v590h75zM180 722h73l-45 -192h-45z" />
    <glyph glyph-name="Ldot" unicode="&#x13f;" horiz-adv-x="439" 
d="M76 697h81v-608h276v-89h-357v697zM267 442q24 0 32 -8.5t8 -38.5q0 -33 -8 -43t-32 -10t-32.5 10t-8.5 43q0 29 8.5 38t32.5 9z" />
    <glyph glyph-name="ldot" unicode="&#x140;" horiz-adv-x="195" 
d="M133 722v-586q0 -64 35 -114l-64 -44q-46 59 -46 154v590h75zM201 447q24 0 32 -8.5t8 -38.5q0 -33 -8 -42.5t-32 -9.5t-32.5 10t-8.5 42q0 29 8.5 38t32.5 9z" />
    <glyph glyph-name="Lslash" unicode="&#x141;" horiz-adv-x="439" 
d="M286 541v-100l-129 -145v-207h276v-89h-357v208l-57 -63v99l57 64v389h81v-301z" />
    <glyph glyph-name="lslash" unicode="&#x142;" horiz-adv-x="213" 
d="M142 722v-245q40 54 59 81v-100q-5 -7 -59 -80v-242q0 -8 1 -12q1 -58 34 -102q-11 -8 -32 -22t-31 -22q-24 30 -35 61t-11 80q0 10 -1 30t-1 30v96l-54 -75v99q6 8 17 23.5t20 28t17 23.5v348h76z" />
    <glyph glyph-name="Nacute" unicode="&#x143;" horiz-adv-x="602" 
d="M526 697v-697h-100q-119 278 -270 575v-575h-80v697h108q124 -237 260 -546v546h82zM310 747h-70l106 129h91z" />
    <glyph glyph-name="nacute" unicode="&#x144;" horiz-adv-x="454" 
d="M133 420v-420h-75v479q34 19 84.5 30.5t93.5 11.5q89 0 125.5 -51t36.5 -186v-284h-75v272q0 99 -20.5 130.5t-82.5 31.5q-48 0 -87 -14zM214 568h-72l97 129h85z" />
    <glyph glyph-name="Ncommaaccent" unicode="&#x145;" horiz-adv-x="602" 
d="M526 697v-697h-100q-119 278 -270 575v-575h-80v697h108q124 -237 260 -546v546h82zM350 -51l-83 -167h-61l57 167h87z" />
    <glyph glyph-name="ncommaaccent" unicode="&#x146;" horiz-adv-x="454" 
d="M133 420v-420h-75v479q34 19 84.5 30.5t93.5 11.5q89 0 125.5 -51t36.5 -186v-284h-75v272q0 99 -20.5 130.5t-82.5 31.5q-48 0 -87 -14zM276 -51l-84 -167h-60l56 167h88z" />
    <glyph glyph-name="Ncaron" unicode="&#x147;" horiz-adv-x="602" 
d="M526 697v-697h-100q-119 278 -270 575v-575h-80v697h108q124 -237 260 -546v546h82zM247 876l63 -84l60 84h76l-98 -129h-78l-100 129h77z" />
    <glyph glyph-name="ncaron" unicode="&#x148;" horiz-adv-x="454" 
d="M133 420v-420h-75v479q34 19 84.5 30.5t93.5 11.5q89 0 125.5 -51t36.5 -186v-284h-75v272q0 99 -20.5 130.5t-82.5 31.5q-48 0 -87 -14zM87 697h79l61 -81l59 81h77l-98 -129h-77z" />
    <glyph glyph-name="Omacron" unicode="&#x14c;" horiz-adv-x="610" 
d="M305 714q92 0 146 -30.5t83.5 -110.5t29.5 -220q0 -142 -29 -223t-83.5 -112.5t-146.5 -31.5q-91 0 -145.5 31.5t-84 112.5t-29.5 223q0 140 29.5 220t83.5 110.5t146 30.5zM305 77q70 0 105 21.5t51.5 80t16.5 172.5q0 118 -16.5 176t-51 77.5t-105.5 19.5
q-70 0 -104 -19.5t-50.5 -77.5t-16.5 -176q0 -114 16 -172t51 -80t104 -22zM199 762v77h212v-77h-212z" />
    <glyph glyph-name="omacron" unicode="&#x14d;" horiz-adv-x="470" 
d="M235 -14q-100 0 -144.5 59.5t-44.5 210.5q0 150 45 207.5t144 57.5q100 0 144.5 -57.5t44.5 -207.5q0 -152 -44.5 -211t-144.5 -59zM235 441q-44 0 -66 -13.5t-32.5 -53.5t-10.5 -120q0 -112 23 -150t86 -38t86 38t23 150q0 116 -22.5 151.5t-86.5 35.5zM128 581v74h212
v-74h-212z" />
    <glyph glyph-name="Obreve" unicode="&#x14e;" horiz-adv-x="610" 
d="M305 714q92 0 146 -30.5t83.5 -110.5t29.5 -220q0 -142 -29 -223t-83.5 -112.5t-146.5 -31.5q-91 0 -145.5 31.5t-84 112.5t-29.5 223q0 140 29.5 220t83.5 110.5t146 30.5zM305 77q70 0 105 21.5t51.5 80t16.5 172.5q0 118 -16.5 176t-51 77.5t-105.5 19.5
q-70 0 -104 -19.5t-50.5 -77.5t-16.5 -176q0 -114 16 -172t51 -80t104 -22zM192 871h56q0 -37 13.5 -50t44.5 -13t44.5 13t13.5 50h53q0 -132 -113 -132q-112 0 -112 132z" />
    <glyph glyph-name="obreve" unicode="&#x14f;" horiz-adv-x="470" 
d="M235 -14q-100 0 -144.5 59.5t-44.5 210.5q0 150 45 207.5t144 57.5q100 0 144.5 -57.5t44.5 -207.5q0 -152 -44.5 -211t-144.5 -59zM235 441q-44 0 -66 -13.5t-32.5 -53.5t-10.5 -120q0 -112 23 -150t86 -38t86 38t23 150q0 116 -22.5 151.5t-86.5 35.5zM121 697h56
q0 -37 13.5 -50t45.5 -13q30 0 44 13t14 50h53q0 -132 -113 -132t-113 132z" />
    <glyph glyph-name="Ohungarumlaut" unicode="&#x150;" horiz-adv-x="610" 
d="M305 714q92 0 146 -30.5t83.5 -110.5t29.5 -220q0 -142 -29 -223t-83.5 -112.5t-146.5 -31.5q-91 0 -145.5 31.5t-84 112.5t-29.5 223q0 140 29.5 220t83.5 110.5t146 30.5zM305 77q70 0 105 21.5t51.5 80t16.5 172.5q0 118 -16.5 176t-51 77.5t-105.5 19.5
q-70 0 -104 -19.5t-50.5 -77.5t-16.5 -176q0 -114 16 -172t51 -80t104 -22zM245 747h-56l71 129h73zM367 747h-56l69 129h75z" />
    <glyph glyph-name="ohungarumlaut" unicode="&#x151;" horiz-adv-x="470" 
d="M235 -14q-100 0 -144.5 59.5t-44.5 210.5q0 150 45 207.5t144 57.5q100 0 144.5 -57.5t44.5 -207.5q0 -152 -44.5 -211t-144.5 -59zM235 441q-44 0 -66 -13.5t-32.5 -53.5t-10.5 -120q0 -112 23 -150t86 -38t86 38t23 150q0 116 -22.5 151.5t-86.5 35.5zM177 568h-56
l71 129h73zM299 568h-56l69 129h75z" />
    <glyph glyph-name="OE" unicode="&#x152;" horiz-adv-x="883" 
d="M420 697h440v-87h-344q41 -63 47 -198h173v-85h-172q-3 -171 -52 -240h348v-87h-449q-43 -14 -106 -14q-91 0 -145.5 31.5t-84 112.5t-29.5 223q0 140 29.5 220t83.5 110.5t146 30.5q70 0 115 -17zM305 77q70 0 105 21.5t51.5 80t16.5 172.5q0 118 -16.5 176t-51 77.5
t-105.5 19.5q-70 0 -104 -19.5t-50.5 -77.5t-16.5 -176q0 -114 16 -172t51 -80t104 -22z" />
    <glyph glyph-name="oe" unicode="&#x153;" horiz-adv-x="736" 
d="M659 93l13 -79q-70 -28 -137 -28q-57 0 -93.5 18.5t-57.5 62.5q-36 -81 -149 -81q-100 0 -144.5 59.5t-44.5 210.5q0 150 45 207.5t144 57.5q111 0 148 -76q41 76 145 76q64 0 100 -23.5t54 -86.5t17 -177h-276q1 -98 28 -131.5t93 -33.5q57 0 115 24zM235 441
q-44 0 -66 -13.5t-32.5 -53.5t-10.5 -120q0 -112 23 -150t86 -38t86 38t23 150q0 116 -22.5 151.5t-86.5 35.5zM530 442q-54 0 -78 -27t-28 -104h200q-3 79 -23 105t-71 26z" />
    <glyph glyph-name="Racute" unicode="&#x154;" horiz-adv-x="553" 
d="M157 611v-241h173q39 0 60 30.5t21 86.5q0 124 -78 124h-176zM348 307q56 -24 191 -307h-101q-129 284 -190 284h-91v-284h-81v697h270q156 0 156 -203q0 -82 -36 -134t-118 -53zM261 747h-71l106 129h91z" />
    <glyph glyph-name="racute" unicode="&#x155;" horiz-adv-x="289" 
d="M58 0v507h75v-37q29 51 109 51q21 0 42 -3v-92q-23 5 -48 5q-43 0 -73 -16t-30 -46v-369h-75zM185 568h-72l97 129h86z" />
    <glyph glyph-name="Rcommaaccent" unicode="&#x156;" horiz-adv-x="553" 
d="M157 611v-241h173q39 0 60 30.5t21 86.5q0 124 -78 124h-176zM348 307q56 -24 191 -307h-101q-129 284 -190 284h-91v-284h-81v697h270q156 0 156 -203q0 -82 -36 -134t-118 -53zM333 -51l-83 -167h-61l57 167h87z" />
    <glyph glyph-name="rcommaaccent" unicode="&#x157;" horiz-adv-x="289" 
d="M59 0v507h75v-37q29 51 109 51q21 0 41 -3v-92q-22 5 -47 5q-43 0 -73 -16t-30 -46v-369h-75zM157 -51l-83 -167h-61l57 167h87z" />
    <glyph glyph-name="Rcaron" unicode="&#x158;" horiz-adv-x="553" 
d="M157 611v-241h173q39 0 60 30.5t21 86.5q0 124 -78 124h-176zM348 307q56 -24 191 -307h-101q-129 284 -190 284h-91v-284h-81v697h270q156 0 156 -203q0 -82 -36 -134t-118 -53zM214 876l62 -84l61 84h75l-98 -129h-77l-101 129h78z" />
    <glyph glyph-name="rcaron" unicode="&#x159;" horiz-adv-x="288" 
d="M58 0v507h75v-37q29 51 109 51q21 0 42 -3v-92q-23 5 -48 5q-43 0 -73 -16t-30 -46v-369h-75zM38 697h79l61 -81l59 81h77l-98 -129h-77z" />
    <glyph glyph-name="Sacute" unicode="&#x15a;" horiz-adv-x="499" 
d="M438 685l-19 -89q-52 25 -143 25q-73 0 -108.5 -25.5t-35.5 -88.5q0 -48 28 -72t104 -32q99 -11 144.5 -59.5t45.5 -145.5q0 -113 -58.5 -162.5t-174.5 -49.5q-93 0 -166 30l20 88q61 -25 144 -25q75 0 111.5 25t36.5 89q0 50 -28.5 79.5t-105.5 37.5q-99 10 -143.5 52
t-44.5 136q0 114 58.5 165t172.5 51q89 0 162 -29zM250 747h-71l106 129h91z" />
    <glyph glyph-name="sacute" unicode="&#x15b;" 
d="M344 495l-19 -80q-57 26 -117 26q-48 0 -68 -14t-20 -61q0 -32 20 -46.5t72 -20.5q77 -8 111 -42t34 -106q0 -91 -40.5 -128t-124.5 -37q-83 0 -145 27l18 80q52 -27 126 -27q48 0 68.5 15.5t20.5 62.5q0 35 -19.5 51.5t-73.5 22.5q-75 8 -110 38.5t-35 101.5
q0 90 42 126.5t125 36.5q65 0 135 -26zM199 568h-72l97 129h85z" />
    <glyph glyph-name="Scircumflex" unicode="&#x15c;" horiz-adv-x="499" 
d="M438 685l-19 -89q-52 25 -143 25q-73 0 -108.5 -25.5t-35.5 -88.5q0 -48 28 -72t104 -32q99 -11 144.5 -59.5t45.5 -145.5q0 -113 -58.5 -162.5t-174.5 -49.5q-93 0 -166 30l20 88q61 -25 144 -25q75 0 111.5 25t36.5 89q0 50 -28.5 79.5t-105.5 37.5q-99 10 -143.5 52
t-44.5 136q0 114 58.5 165t172.5 51q89 0 162 -29zM261 831l-60 -84h-75q33 43 97 129h78l101 -129h-79z" />
    <glyph glyph-name="scircumflex" unicode="&#x15d;" 
d="M344 495l-19 -80q-57 26 -117 26q-48 0 -68 -14t-20 -61q0 -32 20 -46.5t72 -20.5q77 -8 111 -42t34 -106q0 -91 -40.5 -128t-124.5 -37q-83 0 -145 27l18 80q52 -27 126 -27q48 0 68.5 15.5t20.5 62.5q0 35 -19.5 51.5t-73.5 22.5q-75 8 -110 38.5t-35 101.5
q0 90 42 126.5t125 36.5q65 0 135 -26zM265 568q-11 15 -32.5 43t-28.5 38q-11 -16 -59 -81h-76q16 21 48.5 64t49.5 65h77l101 -129h-80z" />
    <glyph glyph-name="Scedilla" unicode="&#x15e;" horiz-adv-x="499" 
d="M438 685l-19 -89q-52 25 -143 25q-73 0 -108.5 -25.5t-35.5 -88.5q0 -48 28 -72t104 -32q99 -11 144.5 -59.5t45.5 -145.5q0 -113 -58.5 -162.5t-174.5 -49.5q-93 0 -166 30l20 88q61 -25 144 -25q75 0 111.5 25t36.5 89q0 50 -28.5 79.5t-105.5 37.5q-99 10 -143.5 52
t-44.5 136q0 114 58.5 165t172.5 51q89 0 162 -29zM227 0h34v-44q51 0 71 -16.5t20 -60.5q0 -47 -23.5 -64.5t-81.5 -17.5q-53 0 -81 18l16 48q23 -14 63 -14q23 0 31.5 6t8.5 24q0 20 -18 26t-68 2z" />
    <glyph glyph-name="Scedilla" unicode="&#xf6c1;" horiz-adv-x="499" 
d="M438 685l-19 -89q-52 25 -143 25q-73 0 -108.5 -25.5t-35.5 -88.5q0 -48 28 -72t104 -32q99 -11 144.5 -59.5t45.5 -145.5q0 -113 -58.5 -162.5t-174.5 -49.5q-93 0 -166 30l20 88q61 -25 144 -25q75 0 111.5 25t36.5 89q0 50 -28.5 79.5t-105.5 37.5q-99 10 -143.5 52
t-44.5 136q0 114 58.5 165t172.5 51q89 0 162 -29zM227 0h34v-44q51 0 71 -16.5t20 -60.5q0 -47 -23.5 -64.5t-81.5 -17.5q-53 0 -81 18l16 48q23 -14 63 -14q23 0 31.5 6t8.5 24q0 20 -18 26t-68 2z" />
    <glyph glyph-name="scedilla" unicode="&#x15f;" 
d="M344 495l-19 -80q-57 26 -117 26q-48 0 -68 -14t-20 -61q0 -32 20 -46.5t72 -20.5q77 -8 111 -42t34 -106q0 -91 -40.5 -128t-124.5 -37q-83 0 -145 27l18 80q52 -27 126 -27q48 0 68.5 15.5t20.5 62.5q0 35 -19.5 51.5t-73.5 22.5q-75 8 -110 38.5t-35 101.5
q0 90 42 126.5t125 36.5q65 0 135 -26zM172 0h34v-44q51 0 71 -16.5t20 -60.5q0 -47 -23.5 -64.5t-81.5 -17.5q-53 0 -81 18l16 48q23 -14 63 -14q23 0 31.5 6t8.5 24q0 20 -18 26t-68 2z" />
    <glyph glyph-name="scedilla" unicode="&#xf6c2;" 
d="M344 495l-19 -80q-57 26 -117 26q-48 0 -68 -14t-20 -61q0 -32 20 -46.5t72 -20.5q77 -8 111 -42t34 -106q0 -91 -40.5 -128t-124.5 -37q-83 0 -145 27l18 80q52 -27 126 -27q48 0 68.5 15.5t20.5 62.5q0 35 -19.5 51.5t-73.5 22.5q-75 8 -110 38.5t-35 101.5
q0 90 42 126.5t125 36.5q65 0 135 -26zM172 0h34v-44q51 0 71 -16.5t20 -60.5q0 -47 -23.5 -64.5t-81.5 -17.5q-53 0 -81 18l16 48q23 -14 63 -14q23 0 31.5 6t8.5 24q0 20 -18 26t-68 2z" />
    <glyph glyph-name="Scaron" unicode="&#x160;" horiz-adv-x="499" 
d="M438 685l-19 -89q-52 25 -143 25q-73 0 -108.5 -25.5t-35.5 -88.5q0 -48 28 -72t104 -32q99 -11 144.5 -59.5t45.5 -145.5q0 -113 -58.5 -162.5t-174.5 -49.5q-93 0 -166 30l20 88q61 -25 144 -25q75 0 111.5 25t36.5 89q0 50 -28.5 79.5t-105.5 37.5q-99 10 -143.5 52
t-44.5 136q0 114 58.5 165t172.5 51q89 0 162 -29zM198 876l62 -84l61 84h75l-97 -129h-78l-101 129h78z" />
    <glyph glyph-name="scaron" unicode="&#x161;" 
d="M344 495l-19 -80q-57 26 -117 26q-48 0 -68 -14t-20 -61q0 -32 20 -46.5t72 -20.5q77 -8 111 -42t34 -106q0 -91 -40.5 -128t-124.5 -37q-83 0 -145 27l18 80q52 -27 126 -27q48 0 68.5 15.5t20.5 62.5q0 35 -19.5 51.5t-73.5 22.5q-75 8 -110 38.5t-35 101.5
q0 90 42 126.5t125 36.5q65 0 135 -26zM64 697h80l60 -81l60 81h76l-97 -129h-78z" />
    <glyph glyph-name="Tcommaaccent" unicode="&#x162;" horiz-adv-x="470" 
d="M277 0h-83v610h-191v87h464v-87h-190v-610zM298 -51l-83 -167h-61l57 167h87z" />
    <glyph glyph-name="Tcommaaccent" unicode="&#x21a;" horiz-adv-x="470" 
d="M277 0h-83v610h-191v87h464v-87h-190v-610zM298 -51l-83 -167h-61l57 167h87z" />
    <glyph glyph-name="tcommaaccent" unicode="&#x163;" horiz-adv-x="324" 
d="M297 423h-142v-247q0 -57 15 -81t53 -24q40 0 73 14l15 -78q-45 -21 -100 -21q-72 0 -102 38t-30 146v253h-70v84h70v96l76 39v-135h142v-84zM224 -51l-83 -167h-61l57 167h87z" />
    <glyph glyph-name="tcommaaccent" unicode="&#x21b;" horiz-adv-x="324" 
d="M297 423h-142v-247q0 -57 15 -81t53 -24q40 0 73 14l15 -78q-45 -21 -100 -21q-72 0 -102 38t-30 146v253h-70v84h70v96l76 39v-135h142v-84zM224 -51l-83 -167h-61l57 167h87z" />
    <glyph glyph-name="Tcaron" unicode="&#x164;" horiz-adv-x="470" 
d="M277 0h-83v610h-191v87h464v-87h-190v-610zM177 876l63 -84l61 84h75l-98 -129h-77l-101 129h77z" />
    <glyph glyph-name="tcaron" unicode="&#x165;" horiz-adv-x="324" 
d="M297 423h-142v-247q0 -57 15 -81t53 -24q40 0 73 14l15 -78q-45 -21 -100 -21q-72 0 -102 38t-30 146v253h-70v84h70v96l76 39v-135h142v-84zM231 768h74l-45 -192h-45z" />
    <glyph glyph-name="Tbar" unicode="&#x166;" horiz-adv-x="470" 
d="M126 243v77h68v287h-191v90h464v-90h-190v-287h61v-77h-61v-243h-83v243h-68z" />
    <glyph glyph-name="tbar" unicode="&#x167;" horiz-adv-x="324" 
d="M29 223v72h50v129h-70v83h70v96l76 39v-135h142v-83h-142v-129h86v-72h-86v-47q0 -57 15 -81t53 -24q40 0 73 14l15 -78q-45 -21 -100 -21q-72 0 -102 38t-30 146v53h-50z" />
    <glyph glyph-name="Utilde" unicode="&#x168;" horiz-adv-x="591" 
d="M444 697h81v-471q0 -140 -55.5 -190t-173.5 -50q-58 0 -97.5 10t-71 36t-46.5 74t-15 120v471h82v-461q0 -92 33.5 -125t114.5 -33q79 0 113.5 32.5t34.5 125.5v461zM400 873l40 -41q-12 -43 -36 -67.5t-56 -24.5q-23 0 -60 30.5t-55 30.5q-25 0 -44 -55l-36 44
q36 79 83 79q26 0 63 -28.5t54 -28.5q30 0 47 61z" />
    <glyph glyph-name="utilde" unicode="&#x169;" horiz-adv-x="455" 
d="M322 88v419h75v-479q-35 -19 -85 -30.5t-93 -11.5q-89 0 -125.5 51t-36.5 186v284h75v-272q0 -99 20.5 -130.5t81.5 -31.5q50 0 88 15zM329 695l42 -41q-28 -92 -90 -92q-23 0 -58 30t-53 30q-26 0 -45 -56l-37 45q18 41 38 61t47 20t60 -29.5t50 -29.5q15 0 25.5 13.5
t20.5 48.5z" />
    <glyph glyph-name="Umacron" unicode="&#x16a;" horiz-adv-x="591" 
d="M444 697h81v-471q0 -140 -55.5 -190t-173.5 -50q-58 0 -97.5 10t-71 36t-46.5 74t-15 120v471h82v-461q0 -92 33.5 -125t114.5 -33q79 0 113.5 32.5t34.5 125.5v461zM187 762v77h212v-77h-212z" />
    <glyph glyph-name="umacron" unicode="&#x16b;" horiz-adv-x="455" 
d="M322 88v419h75v-479q-35 -19 -85 -30.5t-93 -11.5q-89 0 -125.5 51t-36.5 186v284h75v-272q0 -99 20.5 -130.5t81.5 -31.5q50 0 88 15zM119 581v74h212v-74h-212z" />
    <glyph glyph-name="Ubreve" unicode="&#x16c;" horiz-adv-x="591" 
d="M444 697h81v-471q0 -140 -55.5 -190t-173.5 -50q-58 0 -97.5 10t-71 36t-46.5 74t-15 120v471h82v-461q0 -92 33.5 -125t114.5 -33q79 0 113.5 32.5t34.5 125.5v461zM183 871h56q0 -37 13.5 -50t44.5 -13t45 13t14 50h52q0 -132 -112 -132q-113 0 -113 132z" />
    <glyph glyph-name="ubreve" unicode="&#x16d;" horiz-adv-x="455" 
d="M322 88v419h75v-479q-35 -19 -85 -30.5t-93 -11.5q-89 0 -125.5 51t-36.5 186v284h75v-272q0 -99 20.5 -130.5t81.5 -31.5q50 0 88 15zM114 697h56q0 -37 13.5 -50t44.5 -13t45 13t14 50h52q0 -132 -112 -132q-113 0 -113 132z" />
    <glyph glyph-name="Uring" unicode="&#x16e;" horiz-adv-x="591" 
d="M444 697h81v-471q0 -140 -55.5 -190t-173.5 -50q-58 0 -97.5 10t-71 36t-46.5 74t-15 120v471h82v-461q0 -92 33.5 -125t114.5 -33q79 0 113.5 32.5t34.5 125.5v461zM294 882q91 0 91 -96t-91 -96t-91 96q0 51 21 73.5t70 22.5zM294 831q-24 0 -33.5 -11t-9.5 -36
q0 -24 9.5 -36t33.5 -12q44 0 44 48q0 24 -9.5 35.5t-34.5 11.5z" />
    <glyph glyph-name="uring" unicode="&#x16f;" horiz-adv-x="455" 
d="M322 88v419h75v-479q-35 -19 -85 -30.5t-93 -11.5q-89 0 -125.5 51t-36.5 186v284h75v-272q0 -99 20.5 -130.5t81.5 -31.5q50 0 88 15zM231 739q92 0 92 -96t-92 -96q-91 0 -91 96q0 51 21 73.5t70 22.5zM231 689q-24 0 -33.5 -11.5t-9.5 -35.5q0 -48 43 -48
q25 0 34.5 12t9.5 36q0 25 -9.5 36t-34.5 11z" />
    <glyph glyph-name="Uhungarumlaut" unicode="&#x170;" horiz-adv-x="591" 
d="M444 697h81v-471q0 -140 -55.5 -190t-173.5 -50q-58 0 -97.5 10t-71 36t-46.5 74t-15 120v471h82v-461q0 -92 33.5 -125t114.5 -33q79 0 113.5 32.5t34.5 125.5v461zM230 747h-56l70 129h74zM352 747h-56l69 129h75z" />
    <glyph glyph-name="uhungarumlaut" unicode="&#x171;" horiz-adv-x="455" 
d="M322 88v419h75v-479q-35 -19 -85 -30.5t-93 -11.5q-89 0 -125.5 51t-36.5 186v284h75v-272q0 -99 20.5 -130.5t81.5 -31.5q50 0 88 15zM167 568h-56l70 129h74zM288 568h-56l70 129h74z" />
    <glyph glyph-name="Uogonek" unicode="&#x172;" horiz-adv-x="591" 
d="M444 697h81v-471q0 -140 -55.5 -190t-173.5 -50q-58 0 -97.5 10t-71 36t-46.5 74t-15 120v471h82v-461q0 -92 33.5 -125t114.5 -33q79 0 113.5 32.5t34.5 125.5v461zM347 12h29q-43 -33 -57.5 -56t-14.5 -54q0 -23 11 -33t41 -10q41 0 70 29l26 -56q-38 -35 -103 -35
q-58 0 -81 21.5t-23 67.5q0 41 26 75t76 51z" />
    <glyph glyph-name="uogonek" unicode="&#x173;" horiz-adv-x="455" 
d="M322 88v419h75v-479q-35 -19 -85 -30.5t-93 -11.5q-89 0 -125.5 51t-36.5 186v284h75v-272q0 -99 20.5 -130.5t81.5 -31.5q50 0 88 15zM325 12h30q-43 -32 -57.5 -55.5t-14.5 -54.5q0 -23 11 -33t41 -10q40 0 69 29l26 -56q-38 -35 -103 -35q-58 0 -81 21.5t-23 67.5
q0 41 26 75t76 51z" />
    <glyph glyph-name="Wcircumflex" unicode="&#x174;" horiz-adv-x="752" 
d="M383 536q-29 -179 -115 -536h-103q-93 450 -163 697h90q75 -284 130 -578q89 374 122 578h78q92 -429 114 -578q76 292 129 578h83q-73 -368 -163 -697h-104q-29 192 -98 536zM379 831l-60 -84h-75q64 86 97 129h78l101 -129h-79z" />
    <glyph glyph-name="wcircumflex" unicode="&#x175;" horiz-adv-x="656" 
d="M330 386q-34 -182 -91 -386h-99q-60 281 -130 507h82q56 -182 102 -412q63 228 96 412h82q45 -167 89 -412q74 254 103 412h80q-58 -267 -138 -507h-98q-37 224 -78 386zM388 568q-7 9 -19 25.5t-22 30t-19 25.5l-60 -81h-76q16 21 48.5 64t49.5 65h78l100 -129h-80z" />
    <glyph glyph-name="Ycircumflex" unicode="&#x176;" horiz-adv-x="497" 
d="M88 697q79 -124 167 -286q96 159 161 286h97q-107 -198 -221 -379v-318h-82v318q-115 207 -228 379h106zM250 831l-60 -84h-75q33 43 97 129h78l101 -129h-79z" />
    <glyph glyph-name="ycircumflex" unicode="&#x177;" horiz-adv-x="408" 
d="M156 -24q-72 326 -146 531h81q55 -160 113 -417q75 232 114 417h78q-48 -208 -152 -517q-36 -107 -68 -182h-85q23 53 65 168zM264 568q-11 15 -32.5 43t-28.5 38q-11 -16 -59 -81h-76q64 86 97 129h78l101 -129h-80z" />
    <glyph glyph-name="Ydieresis" unicode="&#x178;" horiz-adv-x="497" 
d="M88 697q79 -124 167 -286q96 159 161 286h97q-107 -198 -221 -379v-318h-82v318q-115 207 -228 379h106zM174 855q24 0 32 -8.5t8 -38.5q0 -33 -8 -42.5t-32 -9.5t-32.5 9.5t-8.5 42.5q0 30 8.5 38.5t32.5 8.5zM335 855q24 0 32 -8.5t8 -38.5q0 -33 -8 -42.5t-32 -9.5
t-32.5 9.5t-8.5 42.5q0 30 8.5 38.5t32.5 8.5z" />
    <glyph glyph-name="Zacute" unicode="&#x179;" horiz-adv-x="492" 
d="M15 0v30q180 292 336 580h-317v87h441v-28q-178 -340 -336 -582h326v-87h-450zM248 747h-71l106 129h91z" />
    <glyph glyph-name="zacute" unicode="&#x17a;" 
d="M36 507h336v-25q-50 -97 -119 -217t-110 -181h225v-84h-346v26q147 230 232 397h-218v84zM222 568h-72l97 129h85z" />
    <glyph glyph-name="Zdotaccent" unicode="&#x17b;" horiz-adv-x="492" 
d="M15 0v30q180 292 336 580h-317v87h441v-28q-178 -340 -336 -582h326v-87h-450zM250 857q24 0 32 -8.5t8 -38.5q0 -33 -8 -43t-32 -10t-32.5 10t-8.5 43q0 30 8.5 38.5t32.5 8.5z" />
    <glyph glyph-name="zdotaccent" unicode="&#x17c;" 
d="M36 507h336v-25q-50 -97 -119 -217t-110 -181h225v-84h-346v26q147 230 232 397h-218v84zM203 669q24 0 32 -8.5t8 -38.5q0 -33 -8 -42.5t-32 -9.5t-32.5 9.5t-8.5 42.5q0 30 8.5 38.5t32.5 8.5z" />
    <glyph glyph-name="Zcaron" unicode="&#x17d;" horiz-adv-x="492" 
d="M15 0v30q180 292 336 580h-317v87h441v-28q-178 -340 -336 -582h326v-87h-450zM197 876l63 -84l61 84h75l-98 -129h-77l-101 129h77z" />
    <glyph glyph-name="zcaron" unicode="&#x17e;" 
d="M36 507h336v-25q-50 -97 -119 -217t-110 -181h225v-84h-346v26q147 230 232 397h-218v84zM64 697h79l61 -81l59 81h77l-98 -129h-78z" />
    <glyph glyph-name="florin" unicode="&#x192;" horiz-adv-x="293" 
d="M204 544l-6 -37h140l-13 -83h-140l-77 -460q-9 -51 -27 -85.5t-43.5 -51t-51 -23t-57.5 -6.5q-49 0 -93 22l30 79q31 -22 79 -22q36 0 58.5 23t33.5 79l72 445h-71l13 83h72l6 40q15 100 62 137t115 37q49 0 92 -19l-31 -77q-28 13 -75 13q-73 0 -88 -94z" />
    <glyph glyph-name="Scommaaccent" unicode="&#x218;" horiz-adv-x="499" 
d="M438 685l-19 -89q-52 25 -143 25q-73 0 -108.5 -25.5t-35.5 -88.5q0 -48 28 -72t104 -32q99 -11 144.5 -59.5t45.5 -145.5q0 -113 -58.5 -162.5t-174.5 -49.5q-93 0 -166 30l20 88q61 -25 144 -25q75 0 111.5 25t36.5 89q0 50 -28.5 79.5t-105.5 37.5q-99 10 -143.5 52
t-44.5 136q0 114 58.5 165t172.5 51q89 0 162 -29zM307 -51l-83 -167h-61l57 167h87z" />
    <glyph glyph-name="scommaaccent" unicode="&#x219;" 
d="M344 495l-19 -80q-57 26 -117 26q-48 0 -68 -14t-20 -61q0 -32 20 -46.5t72 -20.5q77 -8 111 -42t34 -106q0 -91 -40.5 -128t-124.5 -37q-83 0 -145 27l18 80q52 -27 126 -27q48 0 68.5 15.5t20.5 62.5q0 35 -19.5 51.5t-73.5 22.5q-75 8 -110 38.5t-35 101.5
q0 90 42 126.5t125 36.5q65 0 135 -26zM255 -51l-83 -167h-61l57 167h87z" />
    <glyph glyph-name="circumflex" unicode="&#x2c6;" horiz-adv-x="536" 
d="M334 568q-11 15 -32.5 43t-28.5 38q-11 -16 -59 -81h-76q16 21 49 64t49 65h77l101 -129h-80z" />
    <glyph glyph-name="caron" unicode="&#x2c7;" horiz-adv-x="528" 
d="M138 697h79l61 -81l59 81h77l-98 -129h-77z" />
    <glyph glyph-name="breve" unicode="&#x2d8;" horiz-adv-x="425" 
d="M77 697h56q0 -37 13.5 -50t44.5 -13t45 13t14 50h53q0 -132 -113 -132t-113 132z" />
    <glyph glyph-name="dotaccent" unicode="&#x2d9;" horiz-adv-x="349" 
d="M119 669q24 0 32 -8.5t8 -38.5q0 -33 -8 -42.5t-32 -9.5t-32.5 9.5t-8.5 42.5q0 30 8.5 38.5t32.5 8.5z" />
    <glyph glyph-name="ring" unicode="&#x2da;" horiz-adv-x="577" 
d="M288 739q91 0 91 -96t-91 -96t-91 96q0 51 21 73.5t70 22.5zM288 689q-24 0 -33.5 -11.5t-9.5 -35.5q0 -48 43 -48q25 0 34.5 12t9.5 36q0 25 -9.5 36t-34.5 11z" />
    <glyph glyph-name="ogonek" unicode="&#x2db;" horiz-adv-x="518" 
d="M352 12h29q-43 -33 -57.5 -56t-14.5 -54q0 -23 11 -33t41 -10q41 0 70 29l25 -56q-36 -35 -102 -35q-58 0 -81 21.5t-23 67.5q0 41 26 75t76 51z" />
    <glyph glyph-name="tilde" unicode="&#x2dc;" horiz-adv-x="577" 
d="M355 695l41 -41q-26 -92 -89 -92q-23 0 -58 30t-53 30q-27 0 -45 -56l-37 45q18 41 38 61t47 20t60 -29.5t50 -29.5q15 0 25.5 13.5t20.5 48.5z" />
    <glyph glyph-name="hungarumlaut" unicode="&#x2dd;" horiz-adv-x="472" 
d="M191 568h-56l70 129h74zM313 568h-56l69 129h75z" />
    <glyph glyph-name="Delta" unicode="&#x394;" horiz-adv-x="515" 
d="M514 0h-519q95 368 207 697h106q105 -421 206 -697zM250 602q-75 -222 -149 -515h294q-82 257 -145 515z" />
    <glyph glyph-name="Delta" unicode="&#x2206;" horiz-adv-x="515" 
d="M514 0h-519q95 368 207 697h106q105 -421 206 -697zM250 602q-75 -222 -149 -515h294q-82 257 -145 515z" />
    <glyph glyph-name="Omega" unicode="&#x3a9;" horiz-adv-x="630" 
d="M18 0v89h138q-88 72 -88 304q0 179 59.5 250t187.5 71t188 -71t60 -250q0 -230 -88 -304h137v-89h-242v86q60 23 83.5 100t23.5 205q0 137 -35 185t-127 48t-127 -48t-35 -185q0 -128 23.5 -205t83.5 -100v-86h-242z" />
    <glyph glyph-name="Omega" unicode="&#x2126;" horiz-adv-x="630" 
d="M18 0v89h138q-88 72 -88 304q0 179 59.5 250t187.5 71t188 -71t60 -250q0 -230 -88 -304h137v-89h-242v86q60 23 83.5 100t23.5 205q0 137 -35 185t-127 48t-127 -48t-35 -185q0 -128 23.5 -205t83.5 -100v-86h-242z" />
    <glyph glyph-name="pi" unicode="&#x3c0;" horiz-adv-x="494" 
d="M22 418v89h450v-89h-68v-418h-75v418h-166v-283q0 -128 -69 -164l-43 71q37 19 37 92v284h-66z" />
    <glyph glyph-name="afii10023" unicode="&#x401;" horiz-adv-x="492" 
d="M76 697h393v-87h-312v-198h221v-86h-221v-239h312v-87h-393v697zM187 855q24 0 32 -8.5t8 -38.5q0 -33 -8 -42.5t-32 -9.5t-32.5 9.5t-8.5 42.5q0 30 8.5 38.5t32.5 8.5zM348 855q24 0 32 -8.5t8 -38.5q0 -33 -8 -42.5t-32 -9.5t-32.5 9.5t-8.5 42.5q0 30 8.5 38.5
t32.5 8.5z" />
    <glyph glyph-name="afii10051" unicode="&#x402;" horiz-adv-x="592" 
d="M467 610h-190v-147q46 38 114 38q57 0 88.5 -21.5t49 -85t17.5 -182.5q0 -307 -136 -388l-49 68q24 14 39 29.5t32 49t25 93t8 146.5q0 89 -9.5 133t-27.5 58t-56 14t-66 -15t-29 -41v-359h-83v610h-191v87h464v-87z" />
    <glyph glyph-name="afii10052" unicode="&#x403;" horiz-adv-x="439" 
d="M157 0h-81v697h361v-87h-280v-610zM258 747h-71l106 129h91z" />
    <glyph glyph-name="afii10053" unicode="&#x404;" horiz-adv-x="490" 
d="M392 327h-257q2 -103 22 -157.5t56 -72.5t103 -18q76 0 129 24l21 -91q-75 -26 -160 -26q-136 0 -198 81.5t-62 287.5q0 106 15.5 176t49.5 110.5t80.5 56.5t114.5 16q87 0 160 -27l-21 -90q-50 24 -129 24q-65 0 -99.5 -14t-55.5 -60t-25 -135h256v-85z" />
    <glyph glyph-name="afii10054" unicode="&#x405;" horiz-adv-x="499" 
d="M438 685l-19 -89q-52 25 -143 25q-73 0 -108.5 -25.5t-35.5 -88.5q0 -48 28 -72t104 -32q99 -11 144.5 -59.5t45.5 -145.5q0 -113 -58.5 -162.5t-174.5 -49.5q-93 0 -166 30l20 88q61 -25 144 -25q75 0 111.5 25t36.5 89q0 50 -28.5 79.5t-105.5 37.5q-99 10 -143.5 52
t-44.5 136q0 114 58.5 165t172.5 51q89 0 162 -29z" />
    <glyph glyph-name="afii10055" unicode="&#x406;" horiz-adv-x="232" 
d="M76 697h81v-697h-81v697z" />
    <glyph glyph-name="afii10056" unicode="&#x407;" horiz-adv-x="232" 
d="M76 697h81v-697h-81v697zM36 855q24 0 32 -8.5t8 -38.5q0 -33 -8 -42.5t-32 -9.5t-32.5 9.5t-8.5 42.5q0 30 8.5 38.5t32.5 8.5zM197 855q24 0 32 -8.5t8 -38.5q0 -33 -8 -42.5t-32 -9.5q-25 0 -33 9.5t-8 42.5q0 30 8 38.5t33 8.5z" />
    <glyph glyph-name="afii10057" unicode="&#x408;" horiz-adv-x="361" 
d="M286 697v-505q0 -206 -160 -206q-60 0 -118 29l20 92q41 -24 92 -24q83 0 83 118v496h83z" />
    <glyph glyph-name="afii10058" unicode="&#x409;" horiz-adv-x="836" 
d="M397 607h-180q-16 -306 -101 -607h-87q102 392 113 697h336v-272h179q149 0 149 -215q0 -210 -143 -210h-266v607zM646 342h-168v-256h170q70 0 70 125q0 131 -72 131z" />
    <glyph glyph-name="afii10059" unicode="&#x40a;" horiz-adv-x="839" 
d="M157 339v-339h-81v697h81v-274h243v274h81v-274h179q149 0 149 -214q0 -209 -143 -209h-266v339h-243zM649 339h-168v-253h170q70 0 70 124q0 129 -72 129z" />
    <glyph glyph-name="afii10060" unicode="&#x40b;" horiz-adv-x="597" 
d="M541 269v-269h-76v257q0 95 -20 126.5t-73 31.5q-38 0 -66 -15t-29 -41v-359h-83v610h-191v87h464v-87h-190v-147q46 38 114 38q80 0 115 -48.5t35 -183.5z" />
    <glyph glyph-name="afii10061" unicode="&#x40c;" horiz-adv-x="512" 
d="M512 0h-97q-44 137 -83.5 208.5t-77.5 97t-97 31.5v-337h-81v697h81v-337q42 45 110 137.5t131 199.5h103q-79 -125 -139.5 -207t-86.5 -107q32 -12 53.5 -27t50.5 -53.5t61.5 -112.5t71.5 -190zM289 747h-71l106 129h91z" />
    <glyph glyph-name="afii10062" unicode="&#x40e;" horiz-adv-x="434" 
d="M188 172q-4 12 -6 20q-29 101 -86 254.5t-104 250.5h95q95 -213 153 -414q108 274 146 414h90q-54 -173 -131.5 -366t-146.5 -331q-67 0 -100 -1q44 74 90 173zM133 871h55q0 -37 13.5 -50.5t44.5 -13.5q18 0 27 4q32 9 32 60h53q0 -132 -113 -132q-112 0 -112 132z" />
    <glyph glyph-name="afii10145" unicode="&#x40f;" horiz-adv-x="581" 
d="M507 0h-169l-17 -186h-56l-17 186h-171v697h82v-608h267v608h81v-697z" />
    <glyph glyph-name="afii10017" unicode="&#x410;" horiz-adv-x="540" 
d="M454 0q-36 109 -60 194h-259q-6 -23 -16 -62t-18.5 -71.5t-15.5 -60.5h-84q89 339 206 697h132q106 -406 206 -697h-91zM281 613h-22q-45 -136 -100 -332h211q-48 166 -89 332z" />
    <glyph glyph-name="afii10018" unicode="&#x411;" horiz-adv-x="560" 
d="M157 86h197q67 0 67 117q0 125 -70 125h-194v-242zM454 697v-87h-297v-199h203q80 0 114 -53.5t34 -155.5q0 -202 -142 -202h-290v697h378z" />
    <glyph glyph-name="afii10019" unicode="&#x412;" horiz-adv-x="560" 
d="M157 86h197q67 0 67 117q0 125 -70 125h-194v-242zM157 611v-200h191q61 0 61 102q0 50 -13.5 74t-47.5 24h-191zM382 372q73 -4 99.5 -49t26.5 -129q0 -194 -142 -194h-290v697h284q77 0 105.5 -43t28.5 -123q0 -75 -22 -113t-90 -46z" />
    <glyph glyph-name="afii10020" unicode="&#x413;" horiz-adv-x="431" 
d="M157 0h-81v697h361v-87h-280v-610z" />
    <glyph glyph-name="afii10021" unicode="&#x414;" horiz-adv-x="627" 
d="M525 697v-608h102l-17 -243h-70v154h-450v-154h-71l-17 243h85q77 246 89 608h349zM445 89v521h-193q-18 -315 -74 -521h267z" />
    <glyph glyph-name="afii10022" unicode="&#x415;" horiz-adv-x="492" 
d="M76 697h393v-87h-312v-198h221v-86h-221v-239h312v-87h-393v697z" />
    <glyph glyph-name="afii10024" unicode="&#x416;" horiz-adv-x="722" 
d="M92 0h-92q47 152 85.5 235t64 108t64.5 40q-60 62 -204 314h97q120 -220 213 -332v332h82v-332q94 113 213 332h97q-142 -251 -203 -314q29 -12 48 -27t45.5 -53.5t55.5 -112.5t64 -190h-92q-40 136 -74.5 208t-68 98.5t-85.5 31.5v-338h-82v338q-52 -6 -86 -32.5
t-68.5 -98t-73.5 -207.5z" />
    <glyph glyph-name="afii10025" unicode="&#x417;" horiz-adv-x="511" 
d="M160 327v85h85q64 0 89 25t25 86q0 57 -28 79t-112 22q-93 0 -152 -23l-17 87q100 26 180 26q117 0 166 -41.5t49 -132.5q0 -75 -24 -117.5t-92 -50.5q74 -4 102 -51t28 -131q0 -112 -55.5 -158t-173.5 -46q-90 0 -185 27l17 87q62 -24 157 -24q86 0 119 27.5t33 96.5
q0 71 -28.5 99t-96.5 28h-86z" />
    <glyph glyph-name="afii10026" unicode="&#x418;" horiz-adv-x="602" 
d="M526 697v-697h-80v548q-135 -307 -262 -548h-108v697h80v-573q150 292 271 573h99z" />
    <glyph glyph-name="afii10027" unicode="&#x419;" horiz-adv-x="602" 
d="M526 697v-697h-80v548q-135 -307 -262 -548h-108v697h80v-573q150 292 271 573h99zM190 871h56q0 -37 13.5 -50t44.5 -13t44.5 13t13.5 50h53q0 -132 -113 -132q-112 0 -112 132z" />
    <glyph glyph-name="afii10028" unicode="&#x41a;" horiz-adv-x="512" 
d="M512 0h-97q-44 137 -83.5 208.5t-77.5 97t-97 31.5v-337h-81v697h81v-337q42 45 110 137.5t131 199.5h103q-79 -125 -139.5 -207t-86.5 -107q32 -12 53.5 -27t50.5 -53.5t61.5 -112.5t71.5 -190z" />
    <glyph glyph-name="afii10029" unicode="&#x41b;" horiz-adv-x="577" 
d="M421 610h-204q-17 -310 -101 -610h-87q102 392 113 697h360v-697h-81v610z" />
    <glyph glyph-name="afii10030" unicode="&#x41c;" horiz-adv-x="713" 
d="M360 212q74 240 170 485h108v-697h-80v568q-73 -200 -172 -498h-63q-99 308 -169 498v-568h-78v697h115q97 -256 169 -485z" />
    <glyph glyph-name="afii10031" unicode="&#x41d;" horiz-adv-x="580" 
d="M157 325v-325h-81v697h81v-279h267v279h81v-697h-81v325h-267z" />
    <glyph glyph-name="afii10032" unicode="&#x41e;" horiz-adv-x="610" 
d="M305 714q92 0 146 -30.5t83.5 -110.5t29.5 -220q0 -142 -29 -223t-83.5 -112.5t-146.5 -31.5q-91 0 -145.5 31.5t-84 112.5t-29.5 223q0 140 29.5 220t83.5 110.5t146 30.5zM305 77q70 0 105 21.5t51.5 80t16.5 172.5q0 118 -16.5 176t-51 77.5t-105.5 19.5
q-70 0 -104 -19.5t-50.5 -77.5t-16.5 -176q0 -114 16 -172t51 -80t104 -22z" />
    <glyph glyph-name="afii10033" unicode="&#x41f;" horiz-adv-x="580" 
d="M157 610v-610h-81v697h429v-697h-81v610h-267z" />
    <glyph glyph-name="afii10034" unicode="&#x420;" horiz-adv-x="528" 
d="M157 330h172q83 0 83 135q0 146 -79 146h-176v-281zM157 0h-82v697h270q156 0 156 -233q0 -95 -37.5 -158t-115.5 -63h-191v-243z" />
    <glyph glyph-name="afii10035" unicode="&#x421;" horiz-adv-x="477" 
d="M46 355q0 140 29 219.5t83 109.5t146 30q85 0 158 -26l-20 -91q-51 24 -128 24q-53 0 -84 -8.5t-54.5 -36.5t-32.5 -81t-9 -141t9 -141.5t32.5 -83t54.5 -39.5t84 -10q75 0 128 23l20 -91q-70 -26 -158 -26q-136 0 -197 81t-61 288z" />
    <glyph glyph-name="afii10036" unicode="&#x422;" horiz-adv-x="470" 
d="M277 0h-83v610h-191v87h464v-87h-190v-610z" />
    <glyph glyph-name="afii10037" unicode="&#x423;" horiz-adv-x="468" 
d="M240 283q106 265 146 414h90q-54 -173 -131.5 -366t-146.5 -331h-100q49 82 91 173q-27 99 -87.5 260.5t-109.5 263.5h95q92 -202 153 -414z" />
    <glyph glyph-name="afii10038" unicode="&#x424;" horiz-adv-x="615" 
d="M260 697h81v-94q134 -7 184.5 -65.5t50.5 -187.5t-50.5 -188t-184.5 -66v-96h-81v96q-132 7 -181 66t-49 188t49 187.5t181 65.5v94zM495 349q0 94 -29 130t-125 39v-338q96 4 125 40.5t29 128.5zM111 349q0 -91 28.5 -127.5t120.5 -41.5v338q-93 -4 -121 -40t-28 -129z
" />
    <glyph glyph-name="afii10039" unicode="&#x425;" horiz-adv-x="529" 
d="M111 697q88 -142 159 -257q62 104 148 257h98q-93 -166 -197 -341q116 -195 206 -356h-101q-93 163 -155 270q-95 -157 -167 -270h-98q92 145 215 353q-132 221 -211 344h103z" />
    <glyph glyph-name="afii10040" unicode="&#x426;" horiz-adv-x="606" 
d="M157 697v-608h267v608h81v-608h101l-16 -243h-72v154h-442v697h81z" />
    <glyph glyph-name="afii10041" unicode="&#x427;" horiz-adv-x="508" 
d="M351 360v337h81v-697h-81v234q-18 -15 -56.5 -26t-80.5 -11q-103 0 -153.5 49.5t-50.5 190.5v260h82v-249q0 -94 29.5 -125t103.5 -31q55 0 90.5 18t35.5 50z" />
    <glyph glyph-name="afii10042" unicode="&#x428;" horiz-adv-x="752" 
d="M676 697v-697h-600v697h81v-608h178v608h82v-608h178v608h81z" />
    <glyph glyph-name="afii10043" unicode="&#x429;" horiz-adv-x="777" 
d="M157 697v-608h178v608h82v-608h178v608h81v-608h101l-17 -243h-70v154h-614v697h81z" />
    <glyph glyph-name="afii10044" unicode="&#x42a;" horiz-adv-x="560" 
d="M13 697h165v-271h202q149 0 149 -216q0 -99 -35.5 -154.5t-106.5 -55.5h-291v610h-83v87zM178 85h194q69 0 69 126q0 130 -72 130h-191v-256z" />
    <glyph glyph-name="afii10045" unicode="&#x42b;" horiz-adv-x="721" 
d="M157 85h194q69 0 69 126q0 130 -72 130h-191v-256zM75 697h82v-271h202q149 0 149 -216q0 -210 -142 -210h-291v697zM564 697h81v-697h-81v697z" />
    <glyph glyph-name="afii10046" unicode="&#x42c;" horiz-adv-x="539" 
d="M157 85h194q69 0 69 126q0 130 -72 130h-191v-256zM75 697h82v-271h202q149 0 149 -216q0 -210 -142 -210h-291v697z" />
    <glyph glyph-name="afii10047" unicode="&#x42d;" horiz-adv-x="490" 
d="M354 327h-257v85h256q-4 89 -25 135t-55.5 60t-99.5 14q-79 0 -129 -24l-21 90q73 27 160 27q68 0 114.5 -16t80.5 -56.5t49.5 -110.5t15.5 -176q0 -206 -62 -287.5t-198 -81.5q-85 0 -160 26l21 91q53 -24 129 -24q67 0 103 18t56 72.5t22 157.5z" />
    <glyph glyph-name="afii10048" unicode="&#x42e;" horiz-adv-x="755" 
d="M502 714q72 0 115 -29.5t67.5 -109t24.5 -217.5q0 -141 -24 -223.5t-68 -115.5t-115 -33q-102 0 -152.5 75.5t-54.5 263.5h-138v-325h-81v697h81v-279h139q7 167 57 231.5t149 64.5zM502 77q71 0 97 57t26 224q0 117 -12.5 174.5t-37 76t-73.5 18.5t-73.5 -18.5
t-37.5 -76.5t-13 -174q0 -114 12.5 -174.5t38 -83.5t73.5 -23z" />
    <glyph glyph-name="afii10049" unicode="&#x42f;" horiz-adv-x="553" 
d="M395 370v241h-175q-38 0 -58.5 -32t-20.5 -92q0 -56 21 -86.5t61 -30.5h172zM204 310q-154 3 -154 184q0 203 157 203h270v-697h-82v284h-97q-28 0 -48 -9.5t-42.5 -38.5t-43.5 -87t-45 -149h-95q39 126 68 191t52.5 88t59.5 31z" />
    <glyph glyph-name="afii10065" unicode="&#x430;" horiz-adv-x="441" 
d="M384 324v-298q-77 -40 -174 -40q-93 0 -130.5 36.5t-37.5 133.5q0 100 40 133.5t120 33.5q51 0 108 -15q0 79 -21.5 104t-88.5 25q-74 0 -120 -23l-16 82q75 25 148 25q92 0 132 -42.5t40 -154.5zM310 83v155q-36 11 -94 11q-55 0 -73.5 -15.5t-18.5 -72.5
q0 -62 17.5 -80t73.5 -18q50 0 95 20z" />
    <glyph glyph-name="afii10066" unicode="&#x431;" horiz-adv-x="455" 
d="M125 243q0 -94 23.5 -134.5t72.5 -40.5q43 0 64.5 12.5t32.5 50.5t11 113q0 101 -21.5 136.5t-76.5 35.5q-64 0 -85 -35.5t-21 -137.5zM124 435q36 65 118 65q86 0 126.5 -56.5t40.5 -200.5q0 -145 -44.5 -201t-144.5 -56q-59 0 -96 25.5t-57.5 93t-20.5 182.5
q0 99 7 166.5t20.5 111.5t38 69t53.5 36t73 16q96 11 148 39v-86q-46 -26 -146 -38q-65 -7 -86 -42t-30 -124z" />
    <glyph glyph-name="afii10067" unicode="&#x432;" horiz-adv-x="452" 
d="M133 78h141q29 0 41 16.5t12 55.5q0 82 -55 82h-139v-154zM133 429v-124h135q50 0 50 65q0 33 -10.5 46t-39.5 13h-135zM311 272q54 -3 75.5 -37t21.5 -94q0 -141 -116 -141h-234v507h229q63 0 86.5 -31.5t23.5 -89.5q0 -54 -17.5 -81.5t-68.5 -32.5z" />
    <glyph glyph-name="afii10068" unicode="&#x433;" horiz-adv-x="330" 
d="M133 423v-423h-75v507h270v-84h-195z" />
    <glyph glyph-name="afii10069" unicode="&#x434;" horiz-adv-x="492" 
d="M135 507h275v-423h76l-18 -219h-60v135h-325v-135h-60l-18 219h70q52 220 60 423zM335 423h-129q-10 -146 -52 -339h181v339z" />
    <glyph glyph-name="afii10070" unicode="&#x435;" horiz-adv-x="440" 
d="M363 93l14 -79q-72 -28 -138 -28q-96 0 -144.5 60.5t-48.5 209.5q0 145 46 205t140 60q64 0 100 -23t54.5 -86.5t16.5 -177.5h-276q1 -98 28 -131.5t93 -33.5q58 0 115 24zM235 442q-56 0 -79.5 -28t-27.5 -103h200q-3 79 -23 105t-70 26z" />
    <glyph glyph-name="afii10072" unicode="&#x436;" horiz-adv-x="591" 
d="M88 0h-87q32 82 57.5 135t46 80.5t32.5 38t31 20.5q-38 38 -157 233h89q107 -174 158 -241v241h75v-241q62 84 157 241h89q-115 -191 -157 -233q25 -14 42 -29.5t50.5 -76.5t75.5 -168h-87q-49 127 -89.5 178.5t-80.5 62.5v-241h-75v241q-41 -11 -81 -62.5t-89 -178.5z
" />
    <glyph glyph-name="afii10073" unicode="&#x437;" horiz-adv-x="407" 
d="M115 234v75h61q53 0 74.5 14t21.5 51q0 36 -22 50.5t-81 14.5q-67 0 -119 -21l-17 83q62 20 137 20q99 0 140 -29.5t41 -97.5q0 -55 -21 -86.5t-77 -37.5q109 -6 109 -134q0 -84 -45 -117t-147 -33q-83 0 -141 20l18 85q47 -22 122 -22q66 0 89.5 18t23.5 66
q0 44 -24.5 62.5t-81.5 18.5h-61z" />
    <glyph glyph-name="afii10074" unicode="&#x438;" horiz-adv-x="459" 
d="M326 0v354q-77 -170 -192 -354h-76v507h76v-368q86 138 192 368h75v-507h-75z" />
    <glyph glyph-name="afii10075" unicode="&#x439;" horiz-adv-x="459" 
d="M326 0v354q-77 -170 -192 -354h-76v507h76v-368q86 138 192 368h75v-507h-75zM118 697h56q0 -37 13.5 -50.5t44.5 -13.5q28 0 44 13.5t15 50.5h53q0 -132 -113 -132t-113 132z" />
    <glyph glyph-name="afii10076" unicode="&#x43a;" horiz-adv-x="412" 
d="M410 0h-90q-54 130 -97 180.5t-90 61.5v-242h-75v507h75v-244q45 52 174 244h92q-131 -199 -167 -231q26 -13 44.5 -30t53 -77.5t80.5 -168.5z" />
    <glyph glyph-name="afii10077" unicode="&#x43b;" horiz-adv-x="439" 
d="M305 423h-127q-16 -216 -68 -423h-81q68 254 77 507h275v-507h-76v423z" />
    <glyph glyph-name="afii10078" unicode="&#x43c;" horiz-adv-x="574" 
d="M291 168q53 174 114 339h111v-507h-74v409q-70 -187 -125 -376h-62q-69 228 -122 376v-409h-75v507h115q58 -152 118 -339z" />
    <glyph glyph-name="afii10079" unicode="&#x43d;" horiz-adv-x="457" 
d="M323 231h-189v-231h-76v507h76v-195h189v195h76v-507h-76v231z" />
    <glyph glyph-name="afii10080" unicode="&#x43e;" horiz-adv-x="470" 
d="M235 -14q-100 0 -144.5 59.5t-44.5 210.5q0 150 45 207.5t144 57.5q100 0 144.5 -57.5t44.5 -207.5q0 -152 -44.5 -211t-144.5 -59zM235 440q-44 0 -66 -13.5t-32.5 -53t-10.5 -119.5q0 -112 23 -149.5t86 -37.5t86 37.5t23 149.5q0 80 -11 119.5t-32.5 53t-65.5 13.5z
" />
    <glyph glyph-name="afii10081" unicode="&#x43f;" horiz-adv-x="456" 
d="M133 423v-423h-75v507h340v-507h-75v423h-190z" />
    <glyph glyph-name="afii10082" unicode="&#x440;" horiz-adv-x="463" 
d="M133 419v-289q0 -28 27 -44.5t68 -16.5q63 0 86.5 38t23.5 146q0 114 -23 149t-87 35q-56 0 -95 -18zM58 -192v675q73 38 170 38q101 0 145 -57.5t44 -208.5q0 -150 -43.5 -209.5t-136.5 -59.5q-62 0 -104 36v-214h-75z" />
    <glyph glyph-name="afii10083" unicode="&#x441;" horiz-adv-x="374" 
d="M344 96l20 -83q-49 -27 -120 -27q-99 0 -148.5 60.5t-49.5 209.5q0 148 49.5 206.5t148.5 58.5q69 0 120 -24l-20 -84q-41 23 -96 23q-45 0 -69.5 -12.5t-38.5 -52.5t-14 -117q0 -107 28 -145t94 -38q48 0 96 25z" />
    <glyph glyph-name="afii10084" unicode="&#x442;" horiz-adv-x="386" 
d="M232 423v-423h-76v423h-150v84h374v-84h-148z" />
    <glyph glyph-name="afii10085" unicode="&#x443;" horiz-adv-x="408" 
d="M156 -24q-72 326 -146 531h81q55 -160 113 -417q75 232 114 417h78q-48 -208 -152 -517q-36 -107 -68 -182h-85q23 53 65 168z" />
    <glyph glyph-name="afii10086" unicode="&#x444;" horiz-adv-x="675" 
d="M300 507v196h76v-196q45 14 80 14q91 0 132 -58t41 -208q0 -149 -40 -209t-124 -60q-51 0 -89 36v-214h-76v214q-40 -36 -90 -36q-83 0 -123.5 60t-40.5 209q0 150 41 208t133 58q33 0 80 -14zM219 69q36 0 58.5 16.5t22.5 44.5v290q-37 17 -80 17q-37 0 -56.5 -13.5
t-29.5 -53.5t-10 -117q0 -106 21.5 -145t73.5 -39zM456 69q53 0 74.5 39t21.5 145q0 112 -21 148t-75 36q-45 0 -80 -17v-293q1 -27 23.5 -42.5t56.5 -15.5z" />
    <glyph glyph-name="afii10087" unicode="&#x445;" horiz-adv-x="416" 
d="M401 0h-88q-37 75 -97 182q-71 -116 -115 -182h-87q59 85 161 253q-87 148 -160 254h95q44 -68 107 -177q41 68 97 177h86q-65 -124 -140 -250q78 -135 141 -257z" />
    <glyph glyph-name="afii10088" unicode="&#x446;" horiz-adv-x="486" 
d="M398 84h82l-18 -219h-59v135h-345v507h75v-423h190v423h75v-423z" />
    <glyph glyph-name="afii10089" unicode="&#x447;" horiz-adv-x="432" 
d="M34 392v115h75v-103q0 -95 21 -126t74 -31q39 0 67 15.5t28 42.5v202h75v-507h-75v198q-46 -38 -115 -38q-81 0 -115.5 48.5t-34.5 183.5z" />
    <glyph glyph-name="afii10090" unicode="&#x448;" horiz-adv-x="658" 
d="M600 507v-507h-542v507h75v-423h158v423h75v-423h158v423h76z" />
    <glyph glyph-name="afii10091" unicode="&#x449;" horiz-adv-x="688" 
d="M604 -134v134h-546v507h76v-423h158v423h75v-423h157v423h76v-423h82l-18 -218h-60z" />
    <glyph glyph-name="afii10092" unicode="&#x44a;" horiz-adv-x="483" 
d="M167 314h149q125 0 125 -154q0 -85 -30 -122.5t-95 -37.5h-224v423h-90v84h165v-193zM167 76h137q30 0 43 19t13 64q0 43 -13.5 61t-42.5 18h-137v-162z" />
    <glyph glyph-name="afii10093" unicode="&#x44b;" horiz-adv-x="591" 
d="M272 76q30 0 43 19t13 64q0 42 -14 60t-43 18h-137v-161h138zM134 314h150q124 0 124 -154q0 -85 -30 -122.5t-94 -37.5h-226v507h76v-193zM533 507v-507h-76v507h76z" />
    <glyph glyph-name="afii10094" unicode="&#x44c;" horiz-adv-x="450" 
d="M272 76q30 0 43 19t13 64q0 42 -14 60t-43 18h-137v-161h138zM134 314h150q124 0 124 -154q0 -85 -30 -122.5t-94 -37.5h-226v507h76v-193z" />
    <glyph glyph-name="afii10095" unicode="&#x44d;" horiz-adv-x="386" 
d="M22 13l20 79q43 -23 97 -23q61 0 89.5 34.5t31.5 129.5h-176v78h174q-6 75 -34 101t-85 26q-58 0 -97 -21l-20 80q51 24 120 24q98 0 148 -59t50 -206q0 -148 -50 -209t-148 -61q-71 0 -120 27z" />
    <glyph glyph-name="afii10096" unicode="&#x44e;" horiz-adv-x="662" 
d="M433 -14q-91 0 -134.5 54.5t-46.5 190.5h-119v-231h-75v507h75v-194h119q8 116 51.5 162t129.5 46q96 0 139.5 -57.5t43.5 -207.5q0 -151 -43.5 -210.5t-139.5 -59.5zM433 441q-41 0 -62 -13.5t-31.5 -54t-10.5 -119.5q0 -111 22.5 -149.5t81.5 -38.5t81.5 38.5
t22.5 149.5q0 79 -10.5 119.5t-31.5 54t-62 13.5z" />
    <glyph glyph-name="afii10097" unicode="&#x44f;" horiz-adv-x="457" 
d="M323 274v153h-131q-31 0 -45 -16.5t-14 -58.5q0 -78 62 -78h128zM168 224q-61 1 -89 38.5t-28 96.5q0 148 128 148h220v-507h-76v197h-68q-46 0 -75 -37.5t-69 -159.5h-86q47 131 75.5 174t67.5 50z" />
    <glyph glyph-name="afii10071" unicode="&#x451;" horiz-adv-x="440" 
d="M363 93l14 -79q-72 -28 -138 -28q-96 0 -144.5 60.5t-48.5 209.5q0 145 46 205t140 60q64 0 100 -23t54.5 -86.5t16.5 -177.5h-276q1 -98 28 -131.5t93 -33.5q58 0 115 24zM235 442q-56 0 -79.5 -28t-27.5 -103h200q-3 79 -23 105t-70 26zM152 669q24 0 32 -8.5t8 -38.5
q0 -33 -8 -42.5t-32 -9.5q-25 0 -33 9.5t-8 42.5q0 30 8 38.5t33 8.5zM312 669q24 0 32 -8.5t8 -38.5q0 -33 -8 -42.5t-32 -9.5t-32 9.5t-8 42.5q0 30 8 38.5t32 8.5z" />
    <glyph glyph-name="afii10099" unicode="&#x452;" horiz-adv-x="449" 
d="M134 588v-110q46 38 115 38q56 0 87.5 -22t49 -86.5t17.5 -183.5q0 -178 -40 -272.5t-96 -127.5l-48 68q22 13 38 31t32.5 53.5t25 97t8.5 148.5q0 89 -9.5 132.5t-28 57.5t-56.5 14t-66 -14.5t-29 -40.5v-371h-76v588h-46v69h46v65h76v-65h89v-69h-89z" />
    <glyph glyph-name="afii10100" unicode="&#x453;" horiz-adv-x="330" 
d="M133 424v-424h-75v507h270v-83h-195zM208 568h-72l96 129h86z" />
    <glyph glyph-name="afii10101" unicode="&#x454;" horiz-adv-x="387" 
d="M344 92l20 -79q-51 -27 -120 -27q-98 0 -148 61t-50 209q0 147 50 206t148 59q69 0 120 -24l-20 -80q-40 21 -97 21t-85 -26t-34 -101h174v-78h-175q2 -95 30 -129.5t90 -34.5q53 0 97 23z" />
    <glyph glyph-name="afii10102" unicode="&#x455;" 
d="M344 495l-19 -80q-57 26 -117 26q-48 0 -68 -14t-20 -61q0 -32 20 -46.5t72 -20.5q77 -8 111 -42t34 -106q0 -91 -40.5 -128t-124.5 -37q-83 0 -145 27l18 80q52 -27 126 -27q48 0 68.5 15.5t20.5 62.5q0 35 -19.5 51.5t-73.5 22.5q-75 8 -110 38.5t-35 101.5
q0 90 42 126.5t125 36.5q65 0 135 -26z" />
    <glyph glyph-name="afii10103" unicode="&#x456;" horiz-adv-x="191" 
d="M133 507v-507h-75v507h75zM97 709q26 0 35 -9t9 -41q0 -35 -9 -45.5t-35 -10.5q-27 0 -36.5 10.5t-9.5 45.5q0 32 9.5 41t36.5 9z" />
    <glyph glyph-name="afii10104" unicode="&#x457;" horiz-adv-x="191" 
d="M133 507v-507h-75v507h75zM16 669q24 0 32 -8.5t8 -38.5q0 -33 -8 -42.5t-32 -9.5t-32.5 9.5t-8.5 42.5q0 30 8.5 38.5t32.5 8.5zM177 669q24 0 32 -8.5t8 -38.5q0 -33 -8 -42.5t-32 -9.5q-25 0 -33 9.5t-8 42.5q0 30 8 38.5t33 8.5z" />
    <glyph glyph-name="afii10105" unicode="&#x458;" horiz-adv-x="192" 
d="M97 709q26 0 35.5 -9t9.5 -41q0 -35 -9.5 -45.5t-35.5 -10.5q-27 0 -36.5 10.5t-9.5 45.5q0 32 9.5 41t36.5 9zM134 507v-526q0 -106 -37 -145t-113 -39v81q39 0 56.5 20.5t17.5 80.5v528h76z" />
    <glyph glyph-name="afii10106" unicode="&#x459;" horiz-adv-x="696" 
d="M305 423h-127q-16 -216 -68 -423h-81q68 254 77 507h275v-193h150q124 0 124 -154q0 -84 -30 -122t-94 -38h-226v423zM381 76h138q30 0 43 19t13 64q0 43 -14 61t-43 18h-137v-162z" />
    <glyph glyph-name="afii10107" unicode="&#x45a;" horiz-adv-x="714" 
d="M398 314h150q124 0 124 -154q0 -85 -30 -122.5t-94 -37.5h-225v238h-190v-238h-75v507h75v-193h190v193h75v-193zM398 76h138q30 0 43 19t13 64q0 43 -14 61t-43 18h-137v-162z" />
    <glyph glyph-name="afii10108" unicode="&#x45b;" horiz-adv-x="454" 
d="M12 588v69h46v65h76v-65h89v-69h-89v-105q46 38 115 38q80 0 114.5 -48.5t34.5 -183.5v-289h-75v277q0 95 -20.5 126.5t-73.5 31.5q-39 0 -67 -15.5t-28 -42.5v-377h-76v588h-46z" />
    <glyph glyph-name="afii10109" unicode="&#x45c;" horiz-adv-x="412" 
d="M410 0h-90q-54 130 -97 180.5t-90 61.5v-242h-75v507h75v-244q45 52 174 244h92q-131 -199 -167 -231q26 -13 44.5 -30t53 -77.5t80.5 -168.5zM238 568h-71l96 129h86z" />
    <glyph glyph-name="afii10110" unicode="&#x45e;" horiz-adv-x="408" 
d="M156 -24q-72 326 -146 531h81q55 -160 113 -417q75 232 114 417h78q-48 -208 -152 -517q-36 -107 -68 -182h-85q23 53 65 168zM92 700h56q0 -37 14 -50t45 -13q30 0 44 13t14 50h53q0 -132 -113 -132t-113 132z" />
    <glyph glyph-name="afii10193" unicode="&#x45f;" horiz-adv-x="456" 
d="M133 507v-423h190v423h75v-507h-122l-17 -171h-57l-17 171h-127v507h75z" />
    <glyph glyph-name="afii10050" unicode="&#x490;" horiz-adv-x="431" 
d="M76 0v697h282l22 171h57v-258h-280v-610h-81z" />
    <glyph glyph-name="afii10098" unicode="&#x491;" horiz-adv-x="330" 
d="M328 423h-194v-423h-76v507h198l20 154h52v-238z" />
    <glyph glyph-name="endash" unicode="&#x2013;" horiz-adv-x="449" 
d="M41 234v89h367v-89h-367z" />
    <glyph glyph-name="emdash" unicode="&#x2014;" horiz-adv-x="681" 
d="M41 234v89h599v-89h-599z" />
    <glyph glyph-name="quoteleft" unicode="&#x2018;" horiz-adv-x="188" 
d="M19 505l87 259h64l-62 -259h-89z" />
    <glyph glyph-name="quoteright" unicode="&#x2019;" horiz-adv-x="187" 
d="M169 762l-87 -260h-64l62 260h89z" />
    <glyph glyph-name="quotesinglbase" unicode="&#x201a;" horiz-adv-x="184" 
d="M167 100l-87 -259h-64l62 259h89z" />
    <glyph glyph-name="quotedblleft" unicode="&#x201c;" horiz-adv-x="331" 
d="M19 505l87 259h64l-62 -259h-89zM161 505l88 259h64l-63 -259h-89z" />
    <glyph glyph-name="quotedblright" unicode="&#x201d;" horiz-adv-x="330" 
d="M312 762l-88 -259h-64l63 259h89zM169 762l-87 -259h-64l62 259h89z" />
    <glyph glyph-name="quotedblbase" unicode="&#x201e;" horiz-adv-x="330" 
d="M312 98l-88 -260h-64l63 260h89zM169 98l-87 -260h-64l62 260h89z" />
    <glyph glyph-name="dagger" unicode="&#x2020;" horiz-adv-x="346" 
d="M24 498v77h116v148h66v-148h116v-77h-116v-240h-66v240h-116z" />
    <glyph glyph-name="daggerdbl" unicode="&#x2021;" horiz-adv-x="346" 
d="M24 498v77h116v148h66v-148h116v-77h-116v-113h116v-77h-116v-148h-66v148h-116v77h116v113h-116z" />
    <glyph glyph-name="bullet" unicode="&#x2022;" horiz-adv-x="470" 
d="M235 56q-100 0 -144.5 59.5t-44.5 210.5q0 150 45 207.5t144 57.5q100 0 144.5 -57.5t44.5 -207.5q0 -152 -44.5 -211t-144.5 -59z" />
    <glyph glyph-name="ellipsis" unicode="&#x2026;" horiz-adv-x="941" 
d="M189 123q31 0 42 -11t11 -49q0 -41 -11 -53t-42 -12q-30 0 -41 12.5t-11 52.5q0 37 11 48.5t41 11.5zM470 123q31 0 42 -11t11 -49q0 -41 -11 -53t-42 -12t-41.5 12t-10.5 53q0 38 10.5 49t41.5 11zM751 123q31 0 41.5 -11t10.5 -49q0 -41 -10.5 -53t-41.5 -12
q-30 0 -41 12.5t-11 52.5q0 37 11 48.5t41 11.5z" />
    <glyph glyph-name="perthousand" unicode="&#x2030;" horiz-adv-x="1026" 
d="M490 697h75l-329 -697h-75zM168 714q72 0 104 -46.5t32 -172.5q0 -127 -32 -176.5t-104 -49.5q-71 0 -102.5 49.5t-31.5 176.5q0 126 31.5 172.5t102.5 46.5zM168 339q39 0 53 32t14 123q0 92 -14 120.5t-53 28.5q-38 0 -52 -29t-14 -120q0 -90 14.5 -122.5t51.5 -32.5z
M560 431q72 0 103.5 -46.5t31.5 -172.5q0 -127 -31.5 -176.5t-103.5 -49.5q-71 0 -102.5 49.5t-31.5 176.5q0 126 31.5 172.5t102.5 46.5zM560 56q38 0 52.5 32.5t14.5 122.5q0 92 -14 121t-53 29q-38 0 -52 -29.5t-14 -120.5q0 -90 14.5 -122.5t51.5 -32.5zM857 431
q72 0 103.5 -46.5t31.5 -172.5q0 -127 -31.5 -176.5t-103.5 -49.5q-71 0 -102.5 49.5t-31.5 176.5q0 126 31.5 172.5t102.5 46.5zM857 56q38 0 52.5 32.5t14.5 122.5q0 92 -14 121t-53 29q-38 0 -52 -29.5t-14 -120.5q0 -90 14.5 -122.5t51.5 -32.5z" />
    <glyph glyph-name="guilsinglleft" unicode="&#x2039;" horiz-adv-x="307" 
d="M284 521l-158 -213l158 -218l-43 -59l-217 274l215 274z" />
    <glyph glyph-name="guilsinglright" unicode="&#x203a;" horiz-adv-x="307" 
d="M25 90l158 213l-158 218l43 59l216 -275l-215 -273z" />
    <glyph glyph-name="fraction" unicode="&#x2044;" horiz-adv-x="448" 
d="M354 697h75l-333 -697h-75z" />
    <glyph glyph-name="fraction" unicode="&#x2215;" horiz-adv-x="448" 
d="M354 697h75l-333 -697h-75z" />
    <glyph glyph-name="franc" unicode="&#x20a3;" horiz-adv-x="452" 
d="M40 138v72h36v487h386v-87h-305v-233h188v-85h-188v-82h75v-72h-75v-138h-81v138h-36z" />
    <glyph glyph-name="Euro" unicode="&#x20ac;" horiz-adv-x="477" 
d="M46 355q0 140 29 219.5t83 109.5t146 30q85 0 158 -26l-20 -91q-51 24 -128 24q-82 0 -120.5 -27.5t-50.5 -111.5h213v-73h-222v-55v-54h222v-72h-213q12 -88 51 -118t120 -30q75 0 128 23l20 -91q-70 -26 -158 -26q-136 0 -197 81t-61 288z" />
    <glyph glyph-name="afii61352" unicode="&#x2116;" horiz-adv-x="908" 
d="M526 697v-697h-100q-119 278 -270 575v-575h-80v697h108q124 -237 260 -546v546h82zM607 155v79h239v-79h-239zM725 714q75 0 107 -42t32 -154q0 -114 -32 -157.5t-107 -43.5t-106.5 43.5t-31.5 157.5q0 112 31.5 154t106.5 42zM725 388q43 0 57 25t14 104
q0 80 -13.5 103t-57.5 23q-43 0 -57 -23t-14 -103q0 -79 14.5 -104t56.5 -25z" />
    <glyph glyph-name="trademark" unicode="&#x2122;" horiz-adv-x="621" 
d="M155 344h-58v291h-88v62h234v-62h-88v-291zM354 697l73 -268l72 268h76v-353h-54v277l-72 -270h-52l-70 270v-277h-53v353h80z" />
    <glyph glyph-name="estimated" unicode="&#x212e;" horiz-adv-x="559" 
d="M525 320h-391q1 -99 19.5 -151t54 -71t101.5 -19q84 0 137 24l21 -91q-75 -26 -159 -26q-91 0 -146.5 32.5t-85.5 114t-30 220.5q0 203 60 282t183 79q121 0 178.5 -85t57.5 -292v-17zM289 624q-40 0 -65.5 -8t-46 -31t-30.5 -66t-12 -110h304q-2 87 -20 135t-48 64
t-82 16z" />
    <glyph glyph-name="arrowleft" unicode="&#x2190;" horiz-adv-x="592" 
d="M303 54l-289 319l289 316l52 -68l-190 -205h413v-88h-413l190 -204z" />
    <glyph glyph-name="arrowup" unicode="&#x2191;" horiz-adv-x="592" 
d="M42 362l254 361l253 -360l-54 -65l-164 237v-516h-71v516l-163 -237z" />
    <glyph glyph-name="arrowright" unicode="&#x2192;" horiz-adv-x="592" 
d="M290 689l288 -316l-289 -319l-51 70l189 203h-413v88h413l-189 205z" />
    <glyph glyph-name="arrowdown" unicode="&#x2193;" horiz-adv-x="592" 
d="M549 380l-254 -361l-253 360l54 65l164 -237v516h71v-516l162 237z" />
    <glyph glyph-name="partialdiff" unicode="&#x2202;" horiz-adv-x="499" 
d="M249 421q33 0 89 -7q-49 122 -194 283h106q95 -111 151 -222.5t56 -249.5q0 -143 -43.5 -192.5t-164.5 -49.5q-111 0 -158 53t-47 180q0 116 45 160.5t160 44.5zM371 238q0 45 -9 87q-46 10 -108 10q-76 0 -100 -24.5t-24 -101.5q0 -74 24 -105.5t95 -31.5q49 0 72.5 10
t36.5 45.5t13 110.5z" />
    <glyph glyph-name="product" unicode="&#x220f;" horiz-adv-x="580" 
d="M157 607v-607h-81v697h429v-697h-81v607h-267z" />
    <glyph glyph-name="summation" unicode="&#x2211;" horiz-adv-x="493" 
d="M298 344q-83 -149 -155 -258h323v-86h-461q83 135 198 344q-76 140 -186 353h450v-87h-314q40 -76 145 -266z" />
    <glyph glyph-name="minus" unicode="&#x2212;" horiz-adv-x="481" 
d="M47 315v89h386v-89h-386z" />
    <glyph glyph-name="radical" unicode="&#x221a;" horiz-adv-x="448" 
d="M0 507h118q60 -184 112 -414q33 104 87.5 303t76.5 301h78q-31 -129 -94 -352t-104 -345h-97q-56 241 -111 416h-66v91z" />
    <glyph glyph-name="infinity" unicode="&#x221e;" horiz-adv-x="618" 
d="M277 350q0 63 -22 90.5t-74 27.5q-48 0 -67.5 -26t-19.5 -92t19.5 -91.5t67.5 -25.5q52 0 74 27.5t22 89.5zM309 269q-6 -75 -41.5 -101t-98.5 -26q-76 0 -111 46.5t-35 161.5t35 162.5t111 47.5q62 0 98 -26.5t42 -101.5q6 76 41.5 102t98.5 26q76 0 111 -47t35 -162
t-35 -162t-111 -47q-63 0 -98.5 26t-41.5 101zM341 351q0 -63 22 -90.5t74 -27.5q48 0 67.5 26t19.5 92t-19.5 92t-67.5 26q-51 0 -73.5 -27.5t-22.5 -90.5z" />
    <glyph glyph-name="integral" unicode="&#x222b;" horiz-adv-x="278" 
d="M304 702l-17 -77q-33 13 -78 13q-35 0 -54 -18.5t-19 -75.5v-565q0 -182 -145 -182q-55 0 -106 23l18 79q39 -22 84 -22q73 0 73 102v568q0 174 140 174q58 0 104 -19z" />
    <glyph glyph-name="approxequal" unicode="&#x2248;" horiz-adv-x="482" 
d="M389 318l51 -49q-15 -50 -44.5 -79t-68.5 -29q-29 0 -96.5 44t-89.5 44q-32 0 -52 -63l-46 53q22 47 45.5 70t56.5 23q32 0 99 -42.5t88 -42.5q19 0 32 16t25 55zM389 518l51 -49q-15 -50 -44.5 -79t-68.5 -29q-29 0 -96.5 43.5t-89.5 43.5q-32 0 -52 -62l-46 53
q22 47 45.5 69.5t56.5 22.5q32 0 99 -42t88 -42q19 0 32 16t25 55z" />
    <glyph glyph-name="notequal" unicode="&#x2260;" horiz-adv-x="481" 
d="M318 628h80l-48 -108h83v-89h-121l-66 -148h187v-89h-224l-49 -107h-79l48 107h-82v89h120l65 148h-185v89h223z" />
    <glyph glyph-name="lessequal" unicode="&#x2264;" horiz-adv-x="481" 
d="M47 29v89h386v-89h-386zM400 633l-227 -209l227 -212l-38 -64l-288 254v41l287 253z" />
    <glyph glyph-name="greaterequal" unicode="&#x2265;" horiz-adv-x="481" 
d="M434 118v-89h-386v89h386zM308 424l-226 209l39 63l286 -253v-41l-287 -254l-38 64z" />
    <glyph glyph-name="lozenge" unicode="&#x25ca;" horiz-adv-x="441" 
d="M422 272q-82 -250 -130 -428h-132q-92 266 -141 428q53 175 141 428h132q50 -184 130 -428zM335 273q-74 245 -102 352h-22q-82 -252 -112 -352q36 -124 112 -353h22q33 123 102 353z" />
    <glyph glyph-name="caron.alt" unicode="&#xe01e;" horiz-adv-x="267" 
d="M195 722h73l-44 -192h-46z" />
    <glyph glyph-name="commaaccent" unicode="&#xf6c3;" horiz-adv-x="219" 
d="M193 -51l-83 -167h-61l57 167h87z" />
    <glyph glyph-name="Acute" unicode="&#xf6c9;" horiz-adv-x="303" 
d="M147 747h-70l106 129h91z" />
    <glyph glyph-name="Caron" unicode="&#xf6ca;" horiz-adv-x="528" 
d="M220 876l62 -84l61 84h75l-98 -129h-77l-101 129h78z" />
    <glyph glyph-name="Dieresis" unicode="&#xf6cb;" horiz-adv-x="307" 
d="M118 855q24 0 32 -8.5t8 -38.5q0 -33 -8 -42.5t-32 -9.5t-32.5 9.5t-8.5 42.5q0 30 8.5 38.5t32.5 8.5zM279 855q24 0 32 -8.5t8 -38.5q0 -33 -8 -42.5t-32 -9.5q-25 0 -33 9.5t-8 42.5q0 30 8 38.5t33 8.5z" />
    <glyph glyph-name="Grave" unicode="&#xf6ce;" horiz-adv-x="302" 
d="M327 747h-78l-127 129h92z" />
    <glyph glyph-name="Hungarumlaut" unicode="&#xf6cf;" horiz-adv-x="500" 
d="M191 747h-56l70 129h74zM313 747h-56l69 129h75z" />
    <glyph glyph-name="Macron" unicode="&#xf6d0;" horiz-adv-x="266" 
d="M103 762v77h212v-77h-212z" />
    <glyph glyph-name="Lslashsmall" unicode="&#xf6f9;" horiz-adv-x="333" 
d="M134 220v-135h198v-85h-273v139l-37 -41v88l37 41v280h75v-198l79 90v-90z" />
    <glyph glyph-name="OEsmall" unicode="&#xf6fa;" horiz-adv-x="670" 
d="M636 507v-80h-240q23 -45 27 -120h164v-77h-163q-3 -101 -29 -150h241v-80h-316q-37 -14 -85 -14q-100 0 -144.5 59.5t-44.5 210.5q0 150 45 207.5t144 57.5q53 0 88 -14h313zM235 441q-44 0 -66 -13.5t-32.5 -53.5t-10.5 -120q0 -112 23 -150t86 -38t86 38t23 150
q0 116 -22.5 151.5t-86.5 35.5z" />
    <glyph glyph-name="Scaronsmall" unicode="&#xf6fd;" 
d="M344 495l-19 -80q-57 26 -117 26q-48 0 -68 -14t-20 -61q0 -32 20 -46.5t72 -20.5q77 -8 111 -42t34 -106q0 -91 -40.5 -128t-124.5 -37q-83 0 -145 27l18 80q52 -27 126 -27q48 0 68.5 15.5t20.5 62.5q0 35 -19.5 51.5t-73.5 22.5q-75 8 -110 38.5t-35 101.5
q0 90 42 126.5t125 36.5q65 0 135 -26zM64 697h80l60 -81l60 81h76l-97 -129h-78z" />
    <glyph glyph-name="Zcaronsmall" unicode="&#xf6ff;" 
d="M36 507h336v-25q-50 -97 -119 -217t-110 -181h225v-84h-346v26q147 230 232 397h-218v84zM64 697h79l61 -81l59 81h77l-98 -129h-78z" />
    <glyph glyph-name="exclamsmall" unicode="&#xf721;" horiz-adv-x="263" 
d="M85 507h92l-18 -317h-57zM131 122q31 0 42 -11t11 -49q0 -41 -11 -53.5t-42 -12.5q-30 0 -41 13t-11 53q0 37 11 48.5t41 11.5z" />
    <glyph glyph-name="ampersandsmall" unicode="&#xf726;" horiz-adv-x="538" 
d="M529 0h-84q-23 44 -42 78q-94 -92 -203 -92q-92 0 -133 33t-41 117q0 129 115 136q-54 6 -71.5 35.5t-17.5 86.5q0 69 38 98t136 29q97 0 134 -29t37 -98q0 -114 -102 -124q54 -8 113 -82q35 53 48 111h80q-18 -85 -80 -168q36 -54 73 -131zM202 64q95 0 162 74
q-65 95 -142 95q-57 0 -86.5 -18.5t-29.5 -66.5t21 -66t75 -18zM222 310q53 0 76.5 14.5t23.5 53.5q0 37 -19.5 51.5t-75.5 14.5q-57 0 -77.5 -14.5t-20.5 -51.5q0 -40 20.5 -54t72.5 -14z" />
    <glyph glyph-name="zerooldstyle" unicode="&#xf730;" horiz-adv-x="499" 
d="M252 -14q-93 0 -138.5 60t-45.5 210q0 148 45.5 206.5t138.5 58.5t136.5 -58t43.5 -207q0 -150 -43.5 -210t-136.5 -60zM252 441q-61 0 -82.5 -35.5t-21.5 -151.5q0 -112 22 -150t82 -38t80 37t20 151q0 117 -19.5 152t-80.5 35z" />
    <glyph glyph-name="oneoldstyle" unicode="&#xf731;" horiz-adv-x="499" 
d="M340 0h-75v393l-125 -76l-25 79l225 125v-521z" />
    <glyph glyph-name="twooldstyle" unicode="&#xf732;" horiz-adv-x="499" 
d="M101 409l-18 91q68 21 154 21q103 0 144 -37.5t41 -122.5q0 -75 -53.5 -142.5t-179.5 -138.5h238v-80h-351v73q162 112 211.5 165.5t49.5 109.5q0 46 -23 65.5t-86 19.5q-29 0 -70 -7.5t-57 -16.5z" />
    <glyph glyph-name="threeoldstyle" unicode="&#xf733;" horiz-adv-x="499" 
d="M159 137v85h71q63 0 89.5 24.5t26.5 84.5q0 56 -27.5 78.5t-104.5 22.5q-89 0 -147 -24l-17 87q92 26 174 26q114 0 160.5 -41t46.5 -132q0 -74 -25 -116t-94 -50q74 -4 102 -50t28 -130q0 -113 -51.5 -158.5t-169.5 -45.5q-81 0 -177 27l17 85q60 -22 149 -22
q85 0 114.5 27t29.5 97q0 71 -27.5 98t-95.5 27h-72z" />
    <glyph glyph-name="fouroldstyle" unicode="&#xf734;" horiz-adv-x="499" 
d="M306 0h-280v27q137 307 242 480h116v-426h77v-81h-77v-192h-78v192zM306 81v349q-75 -117 -177 -349h177z" />
    <glyph glyph-name="fiveoldstyle" unicode="&#xf735;" horiz-adv-x="499" 
d="M82 507h331v-87h-253v-188q30 5 78 5q114 0 159 -49t45 -166q0 -127 -49.5 -176t-167.5 -49q-76 0 -169 27l18 85q57 -22 140 -22q84 0 112 27t28 100q0 80 -25.5 108.5t-104.5 28.5q-80 0 -142 -16v372z" />
    <glyph glyph-name="sixoldstyle" unicode="&#xf736;" horiz-adv-x="499" 
d="M445 686l-20 -90q-53 25 -128 25q-42 0 -69 -8t-49.5 -30t-33.5 -64t-12 -108q59 14 125 14q115 0 160.5 -49.5t45.5 -166.5q0 -126 -46.5 -174.5t-158.5 -48.5q-80 0 -124.5 32.5t-66 112t-21.5 222.5q0 141 27.5 220.5t80 110t142.5 30.5q73 0 148 -28zM259 76
q71 0 94.5 27t23.5 98q0 77 -23.5 107t-92.5 30q-82 0 -128 -14q0 -102 15 -157t40.5 -73t70.5 -18z" />
    <glyph glyph-name="sevenoldstyle" unicode="&#xf737;" horiz-adv-x="499" 
d="M468 507v-33q-59 -121 -132 -317.5t-116 -348.5h-92q48 164 113.5 338.5t118.5 273.5h-302v87h410z" />
    <glyph glyph-name="eightoldstyle" unicode="&#xf738;" horiz-adv-x="500" 
d="M250 70q67 0 92.5 28.5t25.5 98.5q0 72 -27 102t-91 30t-91 -30t-27 -102q0 -70 25.5 -98.5t92.5 -28.5zM250 410q57 0 82 27t25 88q0 57 -23.5 80.5t-83.5 23.5t-83.5 -23.5t-23.5 -80.5q0 -61 25 -88t82 -27zM250 -14q-108 0 -156 46t-48 158q0 84 28 131t102 51
q-69 8 -92.5 50t-23.5 118q0 91 43 132.5t147 41.5q105 0 148 -42t43 -132q0 -75 -24 -117.5t-93 -50.5q74 -4 102 -51t28 -131q0 -112 -48 -158t-156 -46z" />
    <glyph glyph-name="nineoldstyle" unicode="&#xf739;" horiz-adv-x="499" 
d="M144 -192q145 162 194 282q-51 -7 -88 -7q-116 0 -161 44.5t-45 160.5q0 127 47 180t158 53q121 0 164.5 -49.5t43.5 -192.5q0 -139 -56 -250.5t-151 -220.5h-106zM255 169q61 0 107 10q9 36 9 87q0 75 -13 110.5t-36.5 45.5t-72.5 10q-71 0 -95 -31.5t-24 -105.5
q0 -77 24.5 -101.5t100.5 -24.5z" />
    <glyph glyph-name="questionsmall" unicode="&#xf73f;" horiz-adv-x="379" 
d="M175 123q32 0 43 -11t11 -49q0 -41 -11 -53t-43 -12q-30 0 -40.5 12.5t-10.5 52.5q0 38 10.5 49t40.5 11zM210 187h-81q58 52 84 97t26 97q0 34 -17.5 47.5t-62.5 13.5q-59 0 -101 -17l-14 81q57 17 119 17q87 0 124.5 -31.5t37.5 -100.5q0 -61 -26 -105.5t-89 -98.5z
" />
    <glyph glyph-name="Asmall" unicode="&#xf761;" horiz-adv-x="438" 
d="M345 0q-13 38 -43 137h-178q-13 -49 -34 -137h-79q49 206 148 507h124q76 -326 143 -507h-81zM227 427h-18q-30 -92 -66 -218h139q-26 92 -55 218z" />
    <glyph glyph-name="Bsmall" unicode="&#xf762;" horiz-adv-x="452" 
d="M133 78h141q29 0 41 16.5t12 55.5q0 82 -55 82h-139v-154zM133 429v-124h135q50 0 50 65q0 33 -10.5 46t-39.5 13h-135zM311 272q54 -3 75.5 -37t21.5 -94q0 -141 -116 -141h-234v507h229q63 0 86.5 -31.5t23.5 -89.5q0 -54 -17.5 -81.5t-68.5 -32.5z" />
    <glyph glyph-name="Csmall" unicode="&#xf763;" horiz-adv-x="374" 
d="M344 96l20 -83q-49 -27 -120 -27q-99 0 -148.5 60.5t-49.5 209.5q0 148 49.5 206.5t148.5 58.5q69 0 120 -24l-20 -84q-41 23 -96 23q-45 0 -69.5 -12.5t-38.5 -52.5t-14 -117q0 -107 28 -145t94 -38q48 0 96 25z" />
    <glyph glyph-name="Dsmall" unicode="&#xf764;" horiz-adv-x="456" 
d="M58 507h155q101 0 149 -55t48 -196q0 -143 -48 -199.5t-149 -56.5h-155v507zM212 429h-79v-351h79q65 0 91.5 36t26.5 140q0 107 -26 141t-92 34z" />
    <glyph glyph-name="Esmall" unicode="&#xf765;" 
d="M364 507v-80h-231v-120h182v-77h-182v-150h231v-80h-306v507h306z" />
    <glyph glyph-name="Fsmall" unicode="&#xf766;" horiz-adv-x="372" 
d="M58 0v507h307v-81h-231v-144h182v-77h-182v-205h-76z" />
    <glyph glyph-name="Gsmall" unicode="&#xf767;" horiz-adv-x="449" 
d="M396 287v-266q-70 -35 -148 -35q-100 0 -151 60.5t-51 209.5q0 147 52.5 206t153.5 59q72 0 130 -24l-22 -82q-44 23 -106 23q-68 0 -98 -36.5t-30 -147.5q0 -107 30 -146t96 -39q42 0 73 14v128h-100v76h171z" />
    <glyph glyph-name="Hsmall" unicode="&#xf768;" horiz-adv-x="457" 
d="M323 231h-189v-231h-76v507h76v-195h189v195h76v-507h-76v231z" />
    <glyph glyph-name="Ismall" unicode="&#xf769;" horiz-adv-x="191" 
d="M133 507v-507h-75v507h75z" />
    <glyph glyph-name="Jsmall" unicode="&#xf76a;" horiz-adv-x="309" 
d="M251 507v-338q0 -183 -145 -183q-60 0 -106 23l18 83q39 -21 83 -21q74 0 74 102v334h76z" />
    <glyph glyph-name="Ksmall" unicode="&#xf76b;" horiz-adv-x="411" 
d="M133 507v-507h-75v507h75zM412 0h-92q-150 250 -187 268q44 41 174 239h92q-123 -187 -170 -230q42 -30 183 -277z" />
    <glyph glyph-name="Lsmall" unicode="&#xf76c;" horiz-adv-x="333" 
d="M133 507v-422h199v-85h-274v507h75z" />
    <glyph glyph-name="Msmall" unicode="&#xf76d;" horiz-adv-x="574" 
d="M291 168q53 174 114 339h111v-507h-74v409q-70 -187 -125 -376h-62q-69 228 -122 376v-409h-75v507h115q58 -152 118 -339z" />
    <glyph glyph-name="Nsmall" unicode="&#xf76e;" horiz-adv-x="459" 
d="M326 153v354h75v-507h-75q-108 232 -192 366v-366h-76v507h75q122 -197 193 -354z" />
    <glyph glyph-name="Osmall" unicode="&#xf76f;" horiz-adv-x="470" 
d="M235 -14q-100 0 -144.5 59.5t-44.5 210.5q0 150 45 207.5t144 57.5q100 0 144.5 -57.5t44.5 -207.5q0 -152 -44.5 -211t-144.5 -59zM235 440q-44 0 -66 -13.5t-32.5 -53t-10.5 -119.5q0 -112 23 -149.5t86 -37.5t86 37.5t23 149.5q0 80 -11 119.5t-32.5 53t-65.5 13.5z
" />
    <glyph glyph-name="Psmall" unicode="&#xf770;" horiz-adv-x="444" 
d="M271 429h-137v-162h137q28 0 41.5 18t13.5 61q0 44 -13 63.5t-42 19.5zM284 193h-150v-193h-76v507h222q67 0 97 -39t30 -122q0 -153 -123 -153z" />
    <glyph glyph-name="Qsmall" unicode="&#xf771;" horiz-adv-x="470" 
d="M231 -14q-96 0 -140.5 59.5t-44.5 210.5q0 150 45 207.5t144 57.5q100 0 144.5 -57.5t44.5 -207.5q0 -116 -24.5 -174t-79.5 -78q52 -13 155 -186h-91q-44 81 -84.5 124.5t-68.5 43.5zM235 441q-44 0 -66 -13.5t-32.5 -53.5t-10.5 -120q0 -112 23 -150t86 -38t86 38
t23 150q0 116 -22.5 151.5t-86.5 35.5z" />
    <glyph glyph-name="Rsmall" unicode="&#xf772;" horiz-adv-x="446" 
d="M278 507q126 0 126 -148q0 -132 -115 -135q31 -10 60 -51t91 -173h-90q-53 120 -84 158.5t-66 38.5h-66v-197h-76v507h220zM134 274h128q62 0 62 78q0 41 -14.5 58t-45.5 17h-130v-153z" />
    <glyph glyph-name="Ssmall" unicode="&#xf773;" 
d="M344 495l-19 -80q-57 26 -117 26q-48 0 -68 -14t-20 -61q0 -32 20 -46.5t72 -20.5q77 -8 111 -42t34 -106q0 -91 -40.5 -128t-124.5 -37q-83 0 -145 27l18 80q52 -27 126 -27q48 0 68.5 15.5t20.5 62.5q0 35 -19.5 51.5t-73.5 22.5q-75 8 -110 38.5t-35 101.5
q0 90 42 126.5t125 36.5q65 0 135 -26z" />
    <glyph glyph-name="Tsmall" unicode="&#xf774;" horiz-adv-x="386" 
d="M232 423v-423h-76v423h-150v84h374v-84h-148z" />
    <glyph glyph-name="Usmall" unicode="&#xf775;" horiz-adv-x="452" 
d="M226 73q55 0 74 25.5t19 88.5v320h76v-313q0 -117 -37.5 -162.5t-131.5 -45.5q-93 0 -131 45.5t-38 162.5v313h75v-320q0 -63 19.5 -88.5t74.5 -25.5z" />
    <glyph glyph-name="Vsmall" unicode="&#xf776;" horiz-adv-x="413" 
d="M207 93q77 241 114 414h79q-55 -230 -148 -507h-98q-74 321 -140 507h81q65 -200 112 -414z" />
    <glyph glyph-name="Wsmall" unicode="&#xf777;" horiz-adv-x="656" 
d="M330 386q-34 -182 -91 -386h-99q-60 281 -130 507h82q56 -182 102 -412q63 228 96 412h82q45 -167 89 -412q74 254 103 412h80q-58 -267 -138 -507h-98q-37 224 -78 386z" />
    <glyph glyph-name="Xsmall" unicode="&#xf778;" horiz-adv-x="416" 
d="M401 0h-88q-37 75 -97 182q-71 -116 -115 -182h-87q59 85 161 253q-87 148 -160 254h95q44 -68 107 -177q41 68 97 177h86q-65 -124 -140 -250q78 -135 141 -257z" />
    <glyph glyph-name="Ysmall" unicode="&#xf779;" horiz-adv-x="384" 
d="M196 311q50 75 114 196h87q-80 -144 -166 -274v-233h-75v233q-99 173 -169 274h90q48 -71 119 -196z" />
    <glyph glyph-name="Zsmall" unicode="&#xf77a;" 
d="M36 507h336v-25q-50 -97 -119 -217t-110 -181h225v-84h-346v26q147 230 232 397h-218v84z" />
    <glyph glyph-name="exclamdownsmall" unicode="&#xf7a1;" horiz-adv-x="263" 
d="M178 0h-93l19 318h56zM131 385q-31 0 -42 11t-11 49q0 41 11 53.5t42 12.5q30 0 41 -13t11 -53q0 -37 -11 -48.5t-41 -11.5z" />
    <glyph glyph-name="questiondownsmall" unicode="&#xf7bf;" horiz-adv-x="379" 
d="M193 396q-32 0 -43 11t-11 49q0 41 11 53t43 12q30 0 40.5 -12.5t10.5 -52.5q0 -38 -10.5 -49t-40.5 -11zM157 332h82q-58 -52 -84 -97t-26 -97q0 -34 17.5 -47.5t62.5 -13.5q60 0 100 17l15 -81q-57 -17 -119 -17q-87 0 -124.5 31.5t-37.5 100.5q0 61 26 105.5t88 98.5z
" />
    <glyph glyph-name="Agravesmall" unicode="&#xf7e0;" horiz-adv-x="438" 
d="M345 0q-13 38 -43 137h-178q-13 -49 -34 -137h-79q49 206 148 507h124q76 -326 143 -507h-81zM227 427h-18q-30 -92 -66 -218h139q-26 92 -55 218zM293 568h-71l-111 129h86z" />
    <glyph glyph-name="Aacutesmall" unicode="&#xf7e1;" horiz-adv-x="438" 
d="M345 0q-13 38 -43 137h-178q-13 -49 -34 -137h-79q49 206 148 507h124q76 -326 143 -507h-81zM227 427h-18q-30 -92 -66 -218h139q-26 92 -55 218zM226 568h-72l97 129h86z" />
    <glyph glyph-name="Acircumflexsmall" unicode="&#xf7e2;" horiz-adv-x="438" 
d="M345 0q-13 38 -43 137h-178q-13 -49 -34 -137h-79q49 206 148 507h124q76 -326 143 -507h-81zM227 427h-18q-30 -92 -66 -218h139q-26 92 -55 218zM279 568q-11 15 -32.5 43t-28.5 38q-11 -16 -59 -81h-76q16 21 48.5 64t49.5 65h77l101 -129h-80z" />
    <glyph glyph-name="Atildesmall" unicode="&#xf7e3;" horiz-adv-x="438" 
d="M345 0q-13 38 -43 137h-178q-13 -49 -34 -137h-79q49 206 148 507h124q76 -326 143 -507h-81zM227 427h-18q-30 -92 -66 -218h139q-26 92 -55 218zM319 695l42 -41q-28 -92 -90 -92q-23 0 -58 30t-53 30q-26 0 -45 -56l-37 45q18 41 38 61t47 20t60 -29.5t50 -29.5
q15 0 25.5 13.5t20.5 48.5z" />
    <glyph glyph-name="Adieresissmall" unicode="&#xf7e4;" horiz-adv-x="438" 
d="M345 0q-13 38 -43 137h-178q-13 -49 -34 -137h-79q49 206 148 507h124q76 -326 143 -507h-81zM227 427h-18q-30 -92 -66 -218h139q-26 92 -55 218zM138 669q24 0 32 -8.5t8 -38.5q0 -33 -8 -42.5t-32 -9.5t-32.5 9.5t-8.5 42.5q0 30 8.5 38.5t32.5 8.5zM299 669
q24 0 32 -8.5t8 -38.5q0 -33 -8 -42.5t-32 -9.5t-32.5 9.5t-8.5 42.5q0 30 8.5 38.5t32.5 8.5z" />
    <glyph glyph-name="Aringsmall" unicode="&#xf7e5;" horiz-adv-x="438" 
d="M345 0q-13 38 -43 137h-178q-13 -49 -34 -137h-79q49 206 148 507h124q76 -326 143 -507h-81zM227 427h-18q-30 -92 -66 -218h139q-26 92 -55 218zM217 739q92 0 92 -96t-92 -96q-91 0 -91 96q0 51 21 73.5t70 22.5zM217 689q-24 0 -33.5 -11.5t-9.5 -35.5q0 -48 43 -48
q25 0 34.5 12t9.5 36q0 25 -9.5 36t-34.5 11z" />
    <glyph glyph-name="AEsmall" unicode="&#xf7e6;" horiz-adv-x="628" 
d="M544 306v-76h-182v-150h232v-80h-308v138h-184q-47 -86 -72 -138h-86q114 222 289 507h361v-81h-232v-120h182zM269 431q-81 -135 -128 -221h145v221h-17z" />
    <glyph glyph-name="Ccedillasmall" unicode="&#xf7e7;" horiz-adv-x="374" 
d="M344 96l20 -83q-49 -27 -120 -27q-99 0 -148.5 60.5t-49.5 209.5q0 148 49.5 206.5t148.5 58.5q69 0 120 -24l-20 -84q-41 23 -96 23q-45 0 -69.5 -12.5t-38.5 -52.5t-14 -117q0 -107 28 -145t94 -38q48 0 96 25zM211 0h33v-44q52 0 72 -16.5t20 -60.5q0 -47 -23.5 -64.5
t-81.5 -17.5q-54 0 -82 18l16 48q23 -14 63 -14q23 0 31.5 6t8.5 24q0 20 -18 26t-68 2z" />
    <glyph glyph-name="Egravesmall" unicode="&#xf7e8;" 
d="M364 507v-80h-231v-120h182v-77h-182v-150h231v-80h-306v507h306zM288 568h-71l-111 129h86z" />
    <glyph glyph-name="Eacutesmall" unicode="&#xf7e9;" 
d="M364 507v-80h-231v-120h182v-77h-182v-150h231v-80h-306v507h306zM221 568h-72l97 129h86z" />
    <glyph glyph-name="Ecircumflexsmall" unicode="&#xf7ea;" 
d="M364 507v-80h-231v-120h182v-77h-182v-150h231v-80h-306v507h306zM280 568q-7 9 -19 25.5t-22 30t-19 25.5l-60 -81h-76q17 21 49.5 64t48.5 65h78l100 -129h-80z" />
    <glyph glyph-name="Edieresissmall" unicode="&#xf7eb;" 
d="M364 507v-80h-231v-120h182v-77h-182v-150h231v-80h-306v507h306zM142 669q24 0 32 -8.5t8 -38.5q0 -33 -8 -42.5t-32 -9.5t-32.5 9.5t-8.5 42.5q0 30 8.5 38.5t32.5 8.5zM303 669q24 0 32 -8.5t8 -38.5q0 -33 -8 -42.5t-32 -9.5t-32.5 9.5t-8.5 42.5q0 30 8.5 38.5
t32.5 8.5z" />
    <glyph glyph-name="Igravesmall" unicode="&#xf7ec;" horiz-adv-x="191" 
d="M133 507v-507h-75v507h75zM149 568h-71l-111 129h86z" />
    <glyph glyph-name="Iacutesmall" unicode="&#xf7ed;" horiz-adv-x="191" 
d="M134 507v-507h-75v507h75zM110 568h-72l97 129h85z" />
    <glyph glyph-name="Icircumflexsmall" unicode="&#xf7ee;" horiz-adv-x="191" 
d="M133 507v-507h-75v507h75zM154 568q-11 15 -32.5 43t-28.5 38q-11 -16 -59 -81h-76q17 21 49 64t49 65h77l101 -129h-80z" />
    <glyph glyph-name="Idieresissmall" unicode="&#xf7ef;" horiz-adv-x="191" 
d="M133 507v-507h-75v507h75zM16 669q24 0 32 -8.5t8 -38.5q0 -33 -8 -42.5t-32 -9.5t-32.5 9.5t-8.5 42.5q0 30 8.5 38.5t32.5 8.5zM177 669q24 0 32 -8.5t8 -38.5q0 -33 -8 -42.5t-32 -9.5q-25 0 -33 9.5t-8 42.5q0 30 8 38.5t33 8.5z" />
    <glyph glyph-name="Ethsmall" unicode="&#xf7f0;" horiz-adv-x="456" 
d="M16 230v75h42v202h156q101 0 148.5 -55t47.5 -196q0 -143 -47.5 -199.5t-148.5 -56.5h-156v230h-42zM212 429h-78v-124h87v-75h-87v-152h78q65 0 91.5 36t26.5 140q0 107 -26 141t-92 34z" />
    <glyph glyph-name="Ntildesmall" unicode="&#xf7f1;" horiz-adv-x="459" 
d="M326 153v354h75v-507h-75q-108 232 -192 366v-366h-76v507h75q122 -197 193 -354zM335 695l41 -41q-26 -92 -89 -92q-23 0 -58 30t-53 30q-27 0 -45 -56l-37 45q18 41 38 61t47 20t60 -29.5t50 -29.5q15 0 25.5 13.5t20.5 48.5z" />
    <glyph glyph-name="Ogravesmall" unicode="&#xf7f2;" horiz-adv-x="470" 
d="M235 -14q-100 0 -144.5 59.5t-44.5 210.5q0 150 45 207.5t144 57.5q100 0 144.5 -57.5t44.5 -207.5q0 -152 -44.5 -211t-144.5 -59zM235 441q-44 0 -66 -13.5t-32.5 -53.5t-10.5 -120q0 -112 23 -150t86 -38t86 38t23 150q0 116 -22.5 151.5t-86.5 35.5zM312 568h-71
l-111 129h86z" />
    <glyph glyph-name="Oacutesmall" unicode="&#xf7f3;" horiz-adv-x="470" 
d="M235 -14q-100 0 -144.5 59.5t-44.5 210.5q0 150 45 207.5t144 57.5q100 0 144.5 -57.5t44.5 -207.5q0 -152 -44.5 -211t-144.5 -59zM235 441q-44 0 -66 -13.5t-32.5 -53.5t-10.5 -120q0 -112 23 -150t86 -38t86 38t23 150q0 116 -22.5 151.5t-86.5 35.5zM238 568h-72
l97 129h85z" />
    <glyph glyph-name="Ocircumflexsmall" unicode="&#xf7f4;" horiz-adv-x="470" 
d="M235 -14q-100 0 -144.5 59.5t-44.5 210.5q0 150 45 207.5t144 57.5q100 0 144.5 -57.5t44.5 -207.5q0 -152 -44.5 -211t-144.5 -59zM235 441q-44 0 -66 -13.5t-32.5 -53.5t-10.5 -120q0 -112 23 -150t86 -38t86 38t23 150q0 116 -22.5 151.5t-86.5 35.5zM292 568
q-11 15 -32.5 43t-28.5 38q-11 -16 -59 -81h-76q64 86 97 129h78l101 -129h-80z" />
    <glyph glyph-name="Otildesmall" unicode="&#xf7f5;" horiz-adv-x="470" 
d="M235 -14q-100 0 -144.5 59.5t-44.5 210.5q0 150 45 207.5t144 57.5q100 0 144.5 -57.5t44.5 -207.5q0 -152 -44.5 -211t-144.5 -59zM235 441q-44 0 -66 -13.5t-32.5 -53.5t-10.5 -120q0 -112 23 -150t86 -38t86 38t23 150q0 116 -22.5 151.5t-86.5 35.5zM333 695l42 -41
q-28 -92 -90 -92q-23 0 -58 30t-53 30q-26 0 -45 -56l-37 45q38 81 85 81q27 0 60.5 -29.5t50.5 -29.5q15 0 25 13.5t20 48.5z" />
    <glyph glyph-name="Odieresissmall" unicode="&#xf7f6;" horiz-adv-x="470" 
d="M235 -14q-100 0 -144.5 59.5t-44.5 210.5q0 150 45 207.5t144 57.5q100 0 144.5 -57.5t44.5 -207.5q0 -152 -44.5 -211t-144.5 -59zM235 441q-44 0 -66 -13.5t-32.5 -53.5t-10.5 -120q0 -112 23 -150t86 -38t86 38t23 150q0 116 -22.5 151.5t-86.5 35.5zM154 669
q24 0 32 -8.5t8 -38.5q0 -33 -8 -42.5t-32 -9.5t-32.5 9.5t-8.5 42.5q0 30 8.5 38.5t32.5 8.5zM315 669q24 0 32 -8.5t8 -38.5q0 -33 -8 -42.5t-32 -9.5t-32.5 9.5t-8.5 42.5q0 30 8.5 38.5t32.5 8.5z" />
    <glyph glyph-name="Oslashsmall" unicode="&#xf7f8;" horiz-adv-x="470" 
d="M369 507h77l-51 -73q28 -60 28 -178q0 -151 -44.5 -210.5t-144.5 -59.5q-77 0 -120 34l-15 -20h-75l50 73q-28 57 -28 183q0 150 44.5 207.5t143.5 57.5q81 0 120 -34zM234 441q-42 0 -64 -13t-33 -50.5t-11 -111.5q0 -79 4 -107l182 260q-23 22 -78 22zM234 66
q64 0 86.5 40t22.5 146q0 60 -4 95l-181 -258q22 -23 76 -23z" />
    <glyph glyph-name="Ugravesmall" unicode="&#xf7f9;" horiz-adv-x="452" 
d="M226 73q55 0 74 25.5t19 88.5v320h76v-313q0 -117 -37.5 -162.5t-131.5 -45.5q-93 0 -131 45.5t-38 162.5v313h75v-320q0 -63 19.5 -88.5t74.5 -25.5zM305 568h-71l-111 129h86z" />
    <glyph glyph-name="Uacutesmall" unicode="&#xf7fa;" horiz-adv-x="452" 
d="M226 73q55 0 74 25.5t19 88.5v320h76v-313q0 -117 -37.5 -162.5t-131.5 -45.5q-93 0 -131 45.5t-38 162.5v313h75v-320q0 -63 19.5 -88.5t74.5 -25.5zM222 568h-72l97 129h85z" />
    <glyph glyph-name="Ucircumflexsmall" unicode="&#xf7fb;" horiz-adv-x="452" 
d="M226 73q55 0 74 25.5t19 88.5v320h76v-313q0 -117 -37.5 -162.5t-131.5 -45.5q-93 0 -131 45.5t-38 162.5v313h75v-320q0 -63 19.5 -88.5t74.5 -25.5zM282 568q-11 15 -32.5 43t-28.5 38q-11 -16 -59 -81h-76q33 43 97 129h78l101 -129h-80z" />
    <glyph glyph-name="Udieresissmall" unicode="&#xf7fc;" horiz-adv-x="452" 
d="M226 73q55 0 74 25.5t19 88.5v320h76v-313q0 -117 -37.5 -162.5t-131.5 -45.5q-93 0 -131 45.5t-38 162.5v313h75v-320q0 -63 19.5 -88.5t74.5 -25.5zM147 669q24 0 32 -8.5t8 -38.5q0 -33 -8 -42.5t-32 -9.5q-25 0 -33 9.5t-8 42.5q0 30 8 38.5t33 8.5zM307 669
q24 0 32 -8.5t8 -38.5q0 -33 -8 -42.5t-32 -9.5t-32 9.5t-8 42.5q0 30 8 38.5t32 8.5z" />
    <glyph glyph-name="Yacutesmall" unicode="&#xf7fd;" horiz-adv-x="384" 
d="M196 311q50 75 114 196h87q-80 -144 -166 -274v-233h-75v233q-99 173 -169 274h90q48 -71 119 -196zM205 568h-72l97 129h86z" />
    <glyph glyph-name="Thornsmall" unicode="&#xf7fe;" horiz-adv-x="444" 
d="M134 101v-101h-76v507h76v-92h146q67 0 97 -39t30 -122q0 -76 -31 -114.5t-103 -38.5h-139zM271 337h-137v-162h137q28 0 41.5 18t13.5 61q0 44 -13 63.5t-42 19.5z" />
    <glyph glyph-name="Ydieresissmall" unicode="&#xf7ff;" horiz-adv-x="384" 
d="M196 311q50 75 114 196h87q-80 -144 -166 -274v-233h-75v233q-99 173 -169 274h90q48 -71 119 -196zM116 669q24 0 32 -8.5t8 -38.5q0 -33 -8 -42.5t-32 -9.5t-32.5 9.5t-8.5 42.5q0 30 8.5 38.5t32.5 8.5zM277 669q24 0 32 -8.5t8 -38.5q0 -33 -8 -42.5t-32 -9.5
q-25 0 -33 9.5t-8 42.5q0 30 8 38.5t33 8.5z" />
    <glyph glyph-name="CR" horiz-adv-x="221" 
 />
    <glyph glyph-name="Gcedilla" horiz-adv-x="550" 
d="M406 91v215h-134v85h216v-379q-67 -26 -184 -26q-136 0 -197 81t-61 288q0 140 31 220t86.5 109.5t148.5 29.5q87 0 162 -26l-20 -90q-51 24 -138 24q-43 0 -70.5 -5.5t-51 -21t-35.5 -45.5t-18.5 -77.5t-6.5 -118.5q0 -88 9 -142t32.5 -84t55 -40t83.5 -10q46 0 92 13z
M284 0h33v-44q51 0 71 -16.5t20 -60.5q0 -47 -23 -64.5t-81 -17.5q-54 0 -82 18l16 48q23 -14 63 -14q23 0 31.5 6t8.5 24q0 20 -18 26t-68 2z" />
    <glyph glyph-name="Idot" horiz-adv-x="232" 
d="M76 697h81v-697h-81v697zM118 857q24 0 32 -8.5t8 -38.5q0 -33 -8 -43t-32 -10t-32 10t-8 43q0 30 8 38.5t32 8.5z" />
    <glyph glyph-name="Breve" horiz-adv-x="264" 
d="M95 871h56q0 -37 13.5 -50t44.5 -13t45 13t14 50h53q0 -132 -113 -132t-113 132z" />
    <glyph glyph-name="Circumflex" horiz-adv-x="536" 
d="M277 831l-60 -84h-75q17 21 49 64t49 65h77l101 -129h-78z" />
    <glyph glyph-name="Dotaccent" horiz-adv-x="255" 
d="M121 857q24 0 32 -8.5t8 -38.5q0 -33 -8.5 -43t-31.5 -10q-24 0 -32.5 10t-8.5 43q0 30 8.5 38.5t32.5 8.5z" />
    <glyph glyph-name="gacute" horiz-adv-x="464" 
d="M331 131v290q-41 18 -95 18q-65 0 -87.5 -35t-22.5 -150q0 -108 23 -145.5t86 -37.5q41 0 68.5 16t27.5 44zM331 25q-44 -38 -107 -38q-94 0 -136 58.5t-42 208.5q0 151 44.5 209t145.5 58q97 0 170 -38v-445q0 -136 -52.5 -188.5t-156.5 -52.5q-30 0 -71.5 8.5
t-65.5 20.5l18 81q56 -27 118 -27q69 0 102 31.5t33 113.5zM236 568h-72l97 129h86z" />
    <glyph glyph-name="ldotaccent" horiz-adv-x="195" 
d="M133 722v-586q0 -64 35 -114l-64 -44q-46 59 -46 154v590h75zM209 432q24 0 32 -8.5t8 -38.5q0 -33 -8 -42.5t-32 -9.5t-32.5 10t-8.5 42q0 29 8.5 38t32.5 9z" />
    <glyph glyph-name="Ring" horiz-adv-x="577" 
d="M288 882q91 0 91 -96t-91 -96t-91 96q0 51 21 73.5t70 22.5zM288 831q-24 0 -33.5 -11.5t-9.5 -35.5q0 -48 43 -48q25 0 34.5 12t9.5 36q0 25 -9.5 36t-34.5 11z" />
    <glyph glyph-name="Tilde" horiz-adv-x="572" 
d="M422 873l41 -41q-12 -43 -36 -67.5t-56 -24.5q-23 0 -60 30.5t-55 30.5q-25 0 -44 -55l-36 44q35 79 83 79q26 0 62.5 -28.5t54.5 -28.5q30 0 46 61z" />
    <glyph glyph-name="Dmacron" horiz-adv-x="576" 
d="M76 697h192q91 0 146 -29.5t85 -106.5t30 -210q0 -196 -62 -273.5t-199 -77.5h-192v697zM442 350q0 112 -18 167.5t-54 74t-107 18.5h-106v-523h106q69 0 106 21.5t55 78t18 163.5zM166 762v77h212v-77h-212z" />
    <glyph glyph-name="zerop" horiz-adv-x="501" 
d="M250 714q72 0 114.5 -29.5t66 -108.5t23.5 -218q0 -208 -48.5 -290t-155.5 -82q-106 0 -154.5 82.5t-48.5 289.5q0 138 23.5 217.5t66 109t113.5 29.5zM250 77q71 0 97 57t26 224q0 117 -12.5 174.5t-37 76t-73.5 18.5q-48 0 -72 -18.5t-36.5 -76t-12.5 -174.5
q0 -114 12 -174.5t37 -83.5t72 -23z" />
    <glyph glyph-name="onep" horiz-adv-x="295" 
d="M219 0h-81v588l-125 -71l-24 82l230 125v-724z" />
    <glyph glyph-name="twop" horiz-adv-x="478" 
d="M79 595l-18 89q85 30 166 30q106 0 154.5 -45t48.5 -155q0 -74 -20.5 -126t-79.5 -120t-185 -181h282v-87h-391v81q151 148 211.5 216t78.5 109t18 101q0 66 -27.5 90.5t-94.5 24.5q-92 0 -143 -27z" />
    <glyph glyph-name="threep" horiz-adv-x="475" 
d="M146 327v85h71q62 0 89 25.5t27 85.5q0 56 -27.5 78.5t-104.5 22.5q-86 0 -147 -23l-17 87q100 26 174 26q114 0 160.5 -41t46.5 -133q0 -75 -25 -117.5t-94 -50.5q74 -4 102 -51t28 -131q0 -113 -51.5 -158.5t-169.5 -45.5q-81 0 -177 27l18 85q59 -22 149 -22
q84 0 113.5 27t29.5 97q0 71 -27.5 99t-95.5 28h-72z" />
    <glyph glyph-name="fourp" horiz-adv-x="475" 
d="M297 191h-280v29q123 279 243 477h116v-421h77v-85h-77v-191h-79v191zM297 276v341q-91 -143 -177 -341h177z" />
    <glyph glyph-name="fivep" horiz-adv-x="486" 
d="M80 697h330v-87h-252v-190q40 5 78 5q114 0 159 -49t45 -166q0 -127 -49.5 -175.5t-168.5 -48.5q-77 0 -168 27l18 85q57 -22 140 -22q84 0 112 27t28 99q0 79 -26 107.5t-105 28.5q-80 0 -141 -16v375z" />
    <glyph glyph-name="sixp" horiz-adv-x="502" 
d="M445 686l-20 -90q-53 25 -128 25q-42 0 -69 -8t-49.5 -30t-33.5 -64t-12 -108q59 14 125 14q115 0 160.5 -49.5t45.5 -166.5q0 -126 -46.5 -174.5t-158.5 -48.5q-80 0 -124.5 32.5t-66 112t-21.5 222.5q0 141 27.5 220.5t80 110t142.5 30.5q73 0 148 -28zM259 76
q71 0 94.5 27t23.5 98q0 77 -23.5 107t-92.5 30q-82 0 -128 -14q0 -102 15 -157t40.5 -73t70.5 -18z" />
    <glyph glyph-name="sevenp" horiz-adv-x="408" 
d="M421 697v-33q-60 -120 -132 -316t-113 -348h-93q49 167 113 339.5t116 270.5h-302v87h411z" />
    <glyph glyph-name="eightp" horiz-adv-x="500" 
d="M250 70q67 0 93 28.5t26 98.5q0 72 -27 102t-92 30q-64 0 -91 -30t-27 -102q0 -70 25.5 -98.5t92.5 -28.5zM250 410q57 0 82 27t25 88q0 57 -23.5 80.5t-83.5 23.5t-83.5 -23.5t-23.5 -80.5q0 -61 25 -88t82 -27zM250 -14q-108 0 -156 46t-48 158q0 84 28 131t102 51
q-69 8 -92.5 50t-23.5 118q0 91 43 132.5t147 41.5q105 0 148 -42t43 -132q0 -75 -24 -117.5t-93 -50.5q74 -4 102 -51t28 -131q0 -112 -48 -158t-156 -46z" />
    <glyph glyph-name="ninep" horiz-adv-x="500" 
d="M141 0q146 162 194 283q-45 -8 -88 -8q-116 0 -161 45t-45 161q0 127 47 180t158 53q121 0 164.5 -49.5t43.5 -192.5q0 -139 -56 -251.5t-151 -220.5h-106zM252 362q61 0 107 10q10 39 10 87q0 56 -6 89t-22.5 50t-37 22t-57.5 5q-71 0 -95 -31.5t-24 -105.5
q0 -77 24 -101.5t101 -24.5z" />
    <glyph glyph-name="g.2" horiz-adv-x="464" 
d="M409 491v-131q0 -87 -47.5 -136.5t-131.5 -49.5q-50 0 -83 15q-6 -22 -6 -39q0 -31 23.5 -44.5t88.5 -15.5q94 -3 134 -33t40 -99q0 -86 -52 -123.5t-157 -37.5q-104 0 -166 27l17 85q56 -29 148 -29q72 0 101.5 16t29.5 54q0 34 -22 45t-98 13q-94 4 -126 30.5t-32 86.5
q0 48 21 90q-44 40 -44 132q0 89 45 131.5t144 42.5q100 0 173 -30zM333 357v71q-40 12 -99 12q-62 0 -85 -19t-23 -74q0 -54 23 -73t83 -19q101 0 101 102z" />
    <glyph glyph-name="ct" horiz-adv-x="686" 
d="M441 170v253q-41 0 -113 7t-83 7q-66 0 -92.5 -35.5t-26.5 -147.5q0 -107 27 -145t92 -38q52 0 95 23l19 -81q-49 -27 -117 -27q-97 0 -146.5 60.5t-49.5 209.5q0 148 49 206.5t147 58.5q15 0 87 -7t112 -7v96l76 39v-135h143v-84h-143v-247q0 -57 15.5 -81t53.5 -24
q40 0 73 14l14 -78q-44 -21 -100 -21q-72 0 -102 38t-30 146z" />
    <glyph glyph-name="arrowupleft" horiz-adv-x="567" 
d="M106 142l-24 480l382 -31l-1 -94l-250 22l292 -365l-49 -62l-292 365l18 -311z" />
    <glyph glyph-name="arrowupright" horiz-adv-x="566" 
d="M115 591l382 31l-24 -480l-76 3l19 311l-292 -365l-50 63l292 365l-250 -22z" />
    <glyph glyph-name="arrowdownleft" horiz-adv-x="567" 
d="M82 91l24 480l76 -3l-18 -311l292 365l49 -63l-292 -365l250 22l1 -94z" />
    <glyph glyph-name="arrowdownright" horiz-adv-x="566" 
d="M497 90l-382 32l1 94l250 -22l-292 365l50 62l292 -365l-19 311l76 4z" />
    <glyph glyph-name="dmacron" horiz-adv-x="465" 
d="M252 583v71h79v68h75v-68h38v-71h-38v-558q-32 -17 -80.5 -28t-89.5 -11q-101 0 -145.5 58t-44.5 209q0 149 43.5 208.5t136.5 59.5q61 0 105 -34v96h-79zM331 88v290q0 28 -27.5 44t-68.5 16q-62 0 -85.5 -38t-23.5 -145q0 -114 23 -149.5t87 -35.5q54 0 95 18z" />
    <glyph glyph-name="Ldotaccent" horiz-adv-x="439" 
d="M76 697h81v-608h276v-89h-357v697zM267 442q24 0 32 -8.5t8 -38.5q0 -33 -8 -43t-32 -10t-32.5 10t-8.5 43q0 29 8.5 38t32.5 9z" />
    <glyph glyph-name="st" horiz-adv-x="712" 
d="M468 170v253q-58 1 -152 9.5t-108 8.5q-48 0 -68 -14t-20 -61q0 -32 20 -46.5t72 -20.5q77 -8 111 -42t34 -106q0 -91 -40.5 -128t-124.5 -37q-83 0 -145 27l18 80q52 -27 126 -27q48 0 68.5 15.5t20.5 62.5q0 35 -19.5 51.5t-73.5 22.5q-75 8 -110 38.5t-35 101.5
q0 90 42 126.5t125 36.5q15 0 112 -7t147 -7v96l76 39v-135h142v-84h-142v-247q0 -57 15 -81t54 -24t72 14l15 -78q-46 -21 -100 -21q-72 0 -102 38t-30 146z" />
    <glyph glyph-name="orn1" horiz-adv-x="463" 
d="M235 -68q-12 30 -37.5 48t-51 29t-50 30t-40 66.5t-15.5 124.5q0 208 106 208q38 0 88 -30q49 30 90 30q106 0 106 -207q0 -64 -12 -108t-31 -64t-42 -35t-44.5 -22.5t-40 -25t-26.5 -44.5zM235 327q-38 31 -62 31q-52 0 -52 -129q0 -50 8 -80t22 -42t28.5 -18.5
t30.5 -18t25 -32.5q8 21 24 32.5t31 18t29 18.5t23 42t9 80q0 68 -11 97.5t-35 29.5q-26 0 -70 -29zM234 423q7 22 7 47q0 42 -18 71t-50 29h-173v77h463v-77h-194q16 -21 16 -52q0 -64 -51 -95z" />
    <glyph glyph-name="orn2" horiz-adv-x="463" 
d="M228 -68q-8 27 -26.5 44.5t-39.5 25t-44.5 22.5t-42 35t-30.5 64t-12 108q0 207 105 207q40 0 90 -30q50 30 89 30q105 0 105 -208q0 -77 -15.5 -124.5t-40 -66.5t-50 -30t-51 -29t-37.5 -48zM229 423q-51 32 -51 95q0 31 16 52h-194v77h463v-77h-173q-32 0 -50 -29
t-18 -71q0 -25 7 -47z" />
    <glyph glyph-name="orn3" horiz-adv-x="463" 
d="M235 648q8 -27 26.5 -44.5t40 -25t44.5 -22.5t42 -35t31 -64t12 -108q0 -207 -106 -207q-41 0 -90 30q-51 -31 -88 -31q-106 0 -106 209q0 77 15.5 124t40 66.5t50 30.5t51 28.5t37.5 48.5zM235 253q46 -30 70 -30t35 29.5t11 97.5q0 50 -9 80.5t-23 42t-29 18t-31 18.5
t-24 33q-9 -21 -25 -33t-30.5 -18.5t-28.5 -18.5t-22 -41.5t-8 -79.5q0 -129 52 -129q26 0 62 31zM234 156q51 -30 51 -94q0 -31 -16 -52h194v-78h-463v78h173q32 0 50 29t18 71q0 25 -7 46z" />
    <glyph glyph-name="orn4" horiz-adv-x="463" 
d="M228 648q12 -31 37.5 -48.5t51 -28.5t50 -30.5t40 -66.5t15.5 -124q0 -209 -105 -209q-38 0 -89 31q-50 -30 -90 -30q-105 0 -105 207q0 64 12 108t30.5 64t42 35t44.5 22.5t39.5 25t26.5 44.5zM229 156q-7 -21 -7 -46q0 -42 18 -71t50 -29h173v-78h-463v78h194
q-16 21 -16 52q0 63 51 94z" />
    <glyph glyph-name="orn5" horiz-adv-x="644" 
d="M14 285q24 15 38.5 47t23.5 64t24.5 62.5t53.5 50t99 19.5q84 0 125.5 -34.5t41.5 -97.5q0 -50 -24 -111q24 -66 24 -111q0 -63 -41.5 -98t-124.5 -35q-61 0 -98.5 21t-53 53t-25 65t-24 63t-39.5 42zM330 285q26 49 26 78q0 65 -104 65q-49 0 -74.5 -16.5t-31 -37.5
t-16 -48t-30.5 -41q20 -12 30.5 -38.5t15.5 -48.5t31 -39.5t75 -17.5q54 0 78 14t24 44t-24 86zM408 286q19 -8 37 -8q34 0 57 23t23 63v216h62v-580h-62v243q-17 -20 -41 -20q-23 0 -43.5 16t-32.5 47z" />
    <glyph glyph-name="orn6" horiz-adv-x="644" 
d="M14 295q25 11 39.5 41.5t24 63.5t25 65t53 53t98.5 21q83 0 124.5 -35t41.5 -98q0 -47 -24 -111q24 -63 24 -111q0 -132 -167 -132q-52 0 -87.5 14t-51.5 35.5t-28 50t-17.5 54.5t-19.5 51t-35 38zM408 294q25 62 76 62q25 0 41 -19v243h62v-580h-62v216q0 40 -23 62.5
t-57 22.5q-20 0 -37 -7z" />
    <glyph glyph-name="orn7" horiz-adv-x="644" 
d="M630 286q-25 -12 -39.5 -42t-23.5 -63t-24.5 -65t-53.5 -53t-98 -21q-167 0 -167 132q0 46 24 112q-24 66 -24 111q0 63 41.5 97.5t125.5 34.5q61 0 99 -19.5t53.5 -50t24.5 -62.5t23.5 -64t38.5 -47zM314 286q-24 -58 -24 -87q0 -30 24 -43.5t77 -13.5q49 0 75.5 17.5
t31.5 39.5t16 48.5t31 38.5q-17 12 -26.5 32t-14.5 38t-14.5 35t-33.5 27.5t-64 10.5q-103 0 -103 -65q0 -33 25 -78zM236 287q-12 -31 -32.5 -47t-42.5 -16q-27 0 -42 20v-243h-62v579h62v-216q0 -39 23.5 -62t56.5 -23q21 0 37 8z" />
    <glyph glyph-name="orn8" horiz-adv-x="644" 
d="M630 295q-24 -15 -38.5 -47t-23.5 -64t-24.5 -62.5t-53.5 -50t-99 -19.5q-84 0 -125.5 35t-41.5 98q0 44 24 110q-24 66 -24 112q0 133 167 133q51 0 86 -15t51 -38.5t28 -52.5t18.5 -55.5t20.5 -50t35 -33.5zM236 294q-16 8 -37 8q-33 0 -56.5 -23t-23.5 -62v-216h-62
v579h62v-243q15 20 42 20q22 0 42.5 -16t32.5 -47z" />
    <glyph glyph-name="publish" horiz-adv-x="683" 
d="M629 353q0 -107 -17 -178.5t-54.5 -113t-89 -58.5t-127.5 -17q-101 0 -161.5 31t-93 112.5t-32.5 223.5q0 140 32.5 220t93 110.5t161.5 30.5q76 0 127.5 -16.5t89 -57.5t54.5 -111t17 -176zM424 419q0 74 -42 74h-95v-144h93q25 0 34.5 17.5t9.5 52.5zM499 420
q0 -67 -25 -107t-75 -40h-112v-137h-70v433h180q102 0 102 -149zM340 639q-62 0 -99.5 -10.5t-65 -41.5t-38 -87t-10.5 -148q0 -119 21.5 -181.5t65.5 -85.5t126 -23q83 0 127.5 23t66.5 85.5t22 181.5q0 122 -22 183.5t-65.5 82.5t-128.5 21z" />
    <glyph glyph-name="zerob" horiz-adv-x="610" 
d="M305 618q-53 0 -84.5 -22t-48.5 -80t-17 -160q0 -153 35.5 -214t114.5 -61t114.5 61t35.5 214q0 150 -35.5 206t-114.5 56zM304 147q-51 0 -70.5 42.5t-19.5 166.5q0 86 9 129t27 56.5t54 13.5q37 0 55 -13.5t27.5 -56.5t9.5 -129q0 -124 -19.5 -166.5t-72.5 -42.5z
M305 714q92 0 146 -30.5t83.5 -110.5t29.5 -220q0 -142 -29 -223t-83.5 -112.5t-146.5 -31.5q-91 0 -145.5 31.5t-84 112.5t-29.5 223q0 140 29.5 220t83.5 110.5t146 30.5z" />
    <glyph glyph-name="oneb" horiz-adv-x="610" 
d="M287 95h59v534l-169 -93l18 -58l92 52v-435zM305 714q92 0 146 -30.5t83.5 -110.5t29.5 -220q0 -142 -29 -223t-83.5 -112.5t-146.5 -31.5q-91 0 -145.5 31.5t-84 112.5t-29.5 223q0 140 29.5 220t83.5 110.5t146 30.5z" />
    <glyph glyph-name="twob" horiz-adv-x="610" 
d="M305 714q92 0 146 -30.5t83.5 -110.5t29.5 -220q0 -142 -29 -223t-83.5 -112.5t-146.5 -31.5q-91 0 -145.5 31.5t-84 112.5t-29.5 223q0 140 29.5 220t83.5 110.5t146 30.5zM172 598l12 -64q38 19 106 19q49 0 69.5 -18t20.5 -67q0 -45 -13 -75t-58 -81t-157 -160v-59
h288v64h-209q135 121 173.5 179t38.5 137q0 81 -35.5 114t-114.5 33q-63 0 -121 -22z" />
    <glyph glyph-name="threeb" horiz-adv-x="610" 
d="M245 396v-63h53q51 0 71.5 -21t20.5 -73t-21.5 -72t-84.5 -20q-67 0 -112 16l-12 -61q71 -21 131 -21q87 0 125 34t38 117q0 62 -21 97t-75 38q51 5 68.5 36.5t17.5 87.5q0 67 -34.5 97t-118.5 30q-55 0 -127 -19l12 -63q43 17 108 17q57 0 77.5 -16.5t20.5 -58.5
q0 -45 -19 -63.5t-66 -18.5h-52zM305 714q92 0 146 -30.5t83.5 -110.5t29.5 -220q0 -142 -29 -223t-83.5 -112.5t-146.5 -31.5q-91 0 -145.5 31.5t-84 112.5t-29.5 223q0 140 29.5 220t83.5 110.5t146 30.5z" />
    <glyph glyph-name="fourb" horiz-adv-x="610" 
d="M132 233h207v-142h57v142h57v61h-57v312h-84q-92 -152 -180 -353v-20zM339 548v-254h-132q61 142 132 254zM305 714q92 0 146 -30.5t83.5 -110.5t29.5 -220q0 -142 -29 -223t-83.5 -112.5t-146.5 -31.5q-91 0 -145.5 31.5t-84 112.5t-29.5 223q0 140 29.5 220t83.5 110.5
t146 30.5z" />
    <glyph glyph-name="fiveb" horiz-adv-x="610" 
d="M425 603h-243v-275q42 12 105 12q58 0 77.5 -21.5t19.5 -80.5q0 -53 -21 -73t-83 -20q-63 0 -104 16l-13 -61q61 -21 124 -21q87 0 124 36t37 129q0 86 -33.5 122.5t-117.5 36.5q-35 0 -58 -4v139h186v65zM305 714q92 0 146 -30.5t83.5 -110.5t29.5 -220q0 -142 -29 -223
t-83.5 -112.5t-146.5 -31.5q-91 0 -145.5 31.5t-84 112.5t-29.5 223q0 140 29.5 220t83.5 110.5t146 30.5z" />
    <glyph glyph-name="sixb" horiz-adv-x="610" 
d="M429 532l15 66q-53 20 -110 20q-99 0 -141.5 -56.5t-42.5 -209.5q0 -155 34.5 -213t121.5 -58q82 0 116.5 36t34.5 129q0 86 -33.5 122.5t-117.5 36.5q-56 0 -94 -11q2 67 17 101.5t38.5 45t67.5 10.5q56 0 94 -19zM395 240q0 -53 -18 -73t-71 -20q-50 0 -71.5 37
t-22.5 148q42 10 90 10q55 0 74 -22t19 -80zM305 714q92 0 146 -30.5t83.5 -110.5t29.5 -220q0 -142 -29 -223t-83.5 -112.5t-146.5 -31.5q-91 0 -145.5 31.5t-84 112.5t-29.5 223q0 140 29.5 220t83.5 110.5t146 30.5z" />
    <glyph glyph-name="sevenb" horiz-adv-x="610" 
d="M227 91h61q80 276 180 515h-306v-66h221q-95 -231 -156 -449zM305 714q92 0 146 -30.5t83.5 -110.5t29.5 -220q0 -142 -29 -223t-83.5 -112.5t-146.5 -31.5q-91 0 -145.5 31.5t-84 112.5t-29.5 223q0 140 29.5 220t83.5 110.5t146 30.5z" />
    <glyph glyph-name="eightb" horiz-adv-x="610" 
d="M305 143q-50 0 -69 21t-19 73q0 53 20 75.5t68 22.5t68 -22.5t20 -75.5q0 -52 -19 -73t-69 -21zM305 394q-43 0 -61.5 20t-18.5 66q0 42 17.5 59t62.5 17q44 0 61.5 -17t17.5 -59q0 -47 -18 -66.5t-61 -19.5zM305 81q79 0 114.5 34.5t35.5 116.5q0 62 -20.5 97t-74.5 38
q50 5 68 36.5t18 87.5q0 66 -32 96.5t-109 30.5t-109 -30.5t-32 -96.5q0 -56 17.5 -87.5t69.5 -36.5q-55 -3 -75.5 -38t-20.5 -97q0 -83 35.5 -117t114.5 -34zM305 714q92 0 146 -30.5t83.5 -110.5t29.5 -220q0 -142 -29 -223t-83.5 -112.5t-146.5 -31.5q-91 0 -145.5 31.5
t-84 112.5t-29.5 223q0 140 29.5 220t83.5 110.5t146 30.5z" />
    <glyph glyph-name="nineb" horiz-adv-x="610" 
d="M304 297q28 0 68 5q-36 -89 -145 -209h77q70 81 112 164t42 185q0 105 -32 141.5t-122 36.5q-81 0 -115.5 -39t-34.5 -133q0 -85 32.5 -118t117.5 -33zM396 432q0 -37 -8 -65q-38 -8 -80 -8q-56 0 -74 18.5t-18 76.5q0 55 18 78.5t70 23.5q53 0 72.5 -22t19.5 -102z
M305 -14q-92 0 -146.5 31.5t-83.5 112.5t-29 223q0 140 29.5 220t83.5 110.5t146 30.5t146 -30.5t83.5 -110.5t29.5 -220q0 -142 -29.5 -223.5t-84 -112.5t-145.5 -31z" />
    <glyph glyph-name="apple" horiz-adv-x="736" 
d="M226 -14q-93 0 -136.5 59.5t-43.5 209.5q0 79 17.5 131.5t45 76t64 43t71 32.5t69 45t55.5 80q21 -48 55.5 -80t69 -45t71 -32.5t64 -43t45 -76t17.5 -131.5q0 -150 -43.5 -209.5t-136.5 -59.5q-61 0 -104 35v-213h-76v213q-43 -35 -104 -35zM406 505v-375
q0 -28 27 -44.5t68 -16.5q63 0 86.5 38t23.5 145q0 59 -12 96.5t-34.5 56.5t-46.5 30t-56.5 28.5t-55.5 41.5zM330 130v375q-23 -24 -55.5 -41.5t-56 -28.5t-46 -30t-34.5 -56.5t-12 -96.5q0 -108 23 -145.5t86 -37.5q41 0 68 16.5t27 44.5z" />
    <glyph glyph-name="sp" horiz-adv-x="859" 
d="M454 -192v591q-133 42 -246 42q-48 0 -68 -14t-20 -61q0 -32 20 -46.5t72 -20.5q77 -8 111 -42t34 -106q0 -91 -40.5 -128t-124.5 -37q-83 0 -145 27l18 80q52 -27 126 -27q48 0 68.5 15.5t20.5 62.5q0 35 -19.5 51.5t-73.5 22.5q-75 8 -110 38.5t-35 101.5
q0 90 42 126.5t125 36.5q122 0 245 -38q73 38 170 38q101 0 145 -57.5t44 -208.5q0 -150 -43.5 -209.5t-136.5 -59.5q-62 0 -104 36v-214h-75zM529 419v-289q0 -28 27 -44.5t68 -16.5q63 0 86.5 38t23.5 146q0 114 -23 149t-87 35q-56 0 -95 -18z" />
    <glyph glyph-name="at.2" horiz-adv-x="751" 
d="M538 435v-299q-75 -40 -171 -40q-92 0 -128.5 35.5t-36.5 133.5q0 53 11 87.5t33.5 51t47 22t61.5 5.5q48 0 110 -15q0 81 -22 106.5t-94 25.5q-69 0 -109 -10t-67.5 -41.5t-37.5 -85.5t-10 -146q0 -118 23 -178.5t74.5 -84t152.5 -23.5q151 0 203.5 58t52.5 228
q0 113 -18 171h72q17 -70 17 -171q0 -110 -18 -181.5t-59.5 -113t-100.5 -58t-149 -16.5q-118 0 -186.5 31.5t-104 112.5t-35.5 225q0 142 34.5 223t98 111.5t171.5 30.5q103 0 144 -41t41 -154zM465 193v155q-43 10 -90 10q-51 0 -73 -16.5t-22 -71.5t19.5 -76t71.5 -21
t94 20z" />
    <glyph glyph-name="ampersand.2" horiz-adv-x="595" 
d="M480 327v-297q-37 -20 -96.5 -32t-109.5 -12q-105 0 -159.5 47t-54.5 157q0 83 28.5 130.5t102.5 51.5q-68 8 -91 49t-23 117q0 90 46 133t143 43q60 0 124 -25l-24 -87q-41 22 -93 22q-62 0 -86.5 -23t-24.5 -78q0 -59 24.5 -85t80.5 -26h135v95l78 38v-133h108v-85
h-108zM402 94v233h-137q-63 0 -90 -28.5t-27 -98.5q0 -68 30 -96t103 -28q76 0 121 18z" />
    <glyph glyph-name="Abrevesmall" horiz-adv-x="438" 
d="M345 0q-13 38 -43 137h-178q-13 -49 -34 -137h-79q49 206 148 507h124q76 -326 143 -507h-81zM227 427h-18q-30 -92 -66 -218h139q-26 92 -55 218zM107 697h56q0 -37 13.5 -50t44.5 -13t45 13t14 50h53q0 -132 -113 -132t-113 132z" />
    <glyph glyph-name="Amacronsmall" horiz-adv-x="438" 
d="M345 0q-13 38 -43 137h-178q-13 -49 -34 -137h-79q49 206 148 507h124q76 -326 143 -507h-81zM227 427h-18q-30 -92 -66 -218h139q-26 92 -55 218zM112 581v74h212v-74h-212z" />
    <glyph glyph-name="Aogoneksmall" horiz-adv-x="438" 
d="M345 0q-13 38 -43 137h-178q-13 -49 -34 -137h-79q49 206 148 507h124q76 -326 143 -507h-81zM227 427h-18q-30 -92 -66 -218h139q-26 92 -55 218zM379 12h30q-43 -32 -57.5 -55.5t-14.5 -54.5q0 -23 11 -33t41 -10q40 0 69 29l26 -56q-38 -35 -103 -35q-58 0 -81 21.5
t-23 67.5q0 41 26 75t76 51z" />
    <glyph glyph-name="bracketleftsmall" horiz-adv-x="280" 
d="M70 647h188v-83h-109v-626h109v-82h-188v791z" />
    <glyph glyph-name="braceleftsmall" horiz-adv-x="271" 
d="M26 211v-1v77q39 0 60.5 32t21.5 119q0 183 119 217q5 -12 15 -35.5t15 -35.5q-41 -13 -59.5 -47t-18.5 -120q0 -85 -21.5 -123t-49.5 -45q27 -7 49 -45.5t22 -123.5q0 -86 18.5 -119.5t59.5 -46.5q-10 -24 -30 -70q-119 34 -119 216q0 87 -21.5 119t-60.5 32z" />
    <glyph glyph-name="Dcaronsmall" horiz-adv-x="456" 
d="M58 507h155q101 0 149 -55t48 -196q0 -143 -48 -199.5t-149 -56.5h-155v507zM212 429h-79v-351h79q65 0 91.5 36t26.5 140q0 107 -26 141t-92 34zM77 697h79l61 -81l59 81h77l-97 -129h-78z" />
    <glyph glyph-name="Dcroatsmall" horiz-adv-x="456" 
d="M16 230v75h42v202h156q101 0 148.5 -55t47.5 -196q0 -143 -47.5 -199.5t-148.5 -56.5h-156v230h-42zM212 429h-78v-124h87v-75h-87v-152h78q65 0 91.5 36t26.5 140q0 107 -26 141t-92 34z" />
    <glyph glyph-name="Dmacronsmall" horiz-adv-x="456" 
d="M58 507h155q101 0 149 -55t48 -196q0 -143 -48 -199.5t-149 -56.5h-155v507zM212 429h-79v-351h79q65 0 91.5 36t26.5 140q0 107 -26 141t-92 34zM104 581v74h212v-74h-212z" />
    <glyph glyph-name="Emacronsmall" 
d="M364 507v-80h-231v-120h182v-77h-182v-150h231v-80h-306v507h306zM108 581v74h212v-74h-212z" />
    <glyph glyph-name="Eurosmall" horiz-adv-x="379" 
d="M340 89l20 -76q-49 -27 -118 -27q-97 0 -146.5 60.5t-49.5 209.5q0 148 49 206.5t147 58.5q67 0 118 -24l-20 -77q-38 22 -94 22q-47 0 -73 -17.5t-37 -64.5h166v-63h-175q-1 -13 -1 -43q0 -26 1 -37h175v-63h-166q10 -49 36.5 -68.5t73.5 -19.5q54 0 94 23z" />
    <glyph glyph-name="Eogoneksmall" 
d="M364 507v-80h-231v-120h182v-77h-182v-150h231v-80h-306v507h306zM307 12h29q-43 -33 -57.5 -56t-14.5 -54q0 -23 11 -33t41 -10q41 0 70 29l26 -56q-38 -35 -103 -35q-58 0 -81 21.5t-23 67.5q0 41 26 75t76 51z" />
    <glyph glyph-name="Ecaronsmall" 
d="M364 507v-80h-231v-120h182v-77h-182v-150h231v-80h-306v507h306zM89 697h79l61 -81l59 81h77l-97 -129h-78z" />
    <glyph glyph-name="Edotaccentsmall" 
d="M364 507v-80h-231v-120h182v-77h-182v-150h231v-80h-306v507h306zM223 669q24 0 32 -8.5t8 -38.5q0 -33 -8 -42.5t-32 -9.5t-32.5 9.5t-8.5 42.5q0 30 8.5 38.5t32.5 8.5z" />
    <glyph glyph-name="Ebrevesmall" 
d="M364 507v-80h-231v-120h182v-77h-182v-150h231v-80h-306v507h306zM107 697h56q0 -37 13.5 -50t44.5 -13t45 13t14 50h52q0 -132 -112 -132q-113 0 -113 132z" />
    <glyph glyph-name="Gacutesmall" horiz-adv-x="449" 
d="M396 287v-266q-70 -35 -148 -35q-100 0 -151 60.5t-51 209.5q0 147 52.5 206t153.5 59q72 0 130 -24l-22 -82q-44 23 -106 23q-68 0 -98 -36.5t-30 -147.5q0 -107 30 -146t96 -39q42 0 73 14v128h-100v76h171zM240 568h-72l96 129h86z" />
    <glyph glyph-name="Gbrevesmall" horiz-adv-x="449" 
d="M396 287v-266q-70 -35 -148 -35q-100 0 -151 60.5t-51 209.5q0 147 52.5 206t153.5 59q72 0 130 -24l-22 -82q-44 23 -106 23q-68 0 -98 -36.5t-30 -147.5q0 -107 30 -146t96 -39q42 0 73 14v128h-100v76h171zM133 697h56q0 -37 13.5 -50t45.5 -13q30 0 44 13t14 50h53
q0 -132 -113 -132t-113 132z" />
    <glyph glyph-name="Gcircumflexsmall" horiz-adv-x="449" 
d="M396 287v-266q-70 -35 -148 -35q-100 0 -151 60.5t-51 209.5q0 147 52.5 206t153.5 59q72 0 130 -24l-22 -82q-44 23 -106 23q-68 0 -98 -36.5t-30 -147.5q0 -107 30 -146t96 -39q42 0 73 14v128h-100v76h171zM305 568q-11 15 -32.5 43t-28.5 38q-11 -16 -59 -81h-76
q16 21 48.5 64t49.5 65h77l101 -129h-80z" />
    <glyph glyph-name="Gcommaaccentsmall" horiz-adv-x="449" 
d="M396 287v-266q-70 -35 -148 -35q-100 0 -151 60.5t-51 209.5q0 147 52.5 206t153.5 59q72 0 130 -24l-22 -82q-44 23 -106 23q-68 0 -98 -36.5t-30 -147.5q0 -107 30 -146t96 -39q42 0 73 14v128h-100v76h171zM295 -51l-83 -167h-61l57 167h87z" />
    <glyph glyph-name="Gdotaccentsmall" horiz-adv-x="449" 
d="M396 287v-266q-70 -35 -148 -35q-100 0 -151 60.5t-51 209.5q0 147 52.5 206t153.5 59q72 0 130 -24l-22 -82q-44 23 -106 23q-68 0 -98 -36.5t-30 -147.5q0 -107 30 -146t96 -39q42 0 73 14v128h-100v76h171zM244 669q24 0 32 -8.5t8 -38.5q0 -33 -8 -42.5t-32 -9.5
t-32.5 9.5t-8.5 42.5q0 30 8.5 38.5t32.5 8.5z" />
    <glyph glyph-name="Germandblssmall" horiz-adv-x="795" 
d="M741 495l-19 -80q-57 26 -118 26q-48 0 -68 -14.5t-20 -60.5q0 -32 20 -46.5t72 -20.5q78 -8 112 -42t34 -106q0 -91 -40.5 -128t-124.5 -37q-83 0 -145 27l18 80q52 -27 126 -27q48 0 68.5 15.5t20.5 62.5q0 35 -19.5 51.5t-73.5 22.5q-75 8 -110 38.5t-35 101.5
q0 90 42 126.5t125 36.5q65 0 135 -26zM344 495l-19 -80q-57 26 -117 26q-48 0 -68 -14t-20 -61q0 -32 20 -46.5t72 -20.5q77 -8 111 -42t34 -106q0 -91 -40.5 -128t-124.5 -37q-83 0 -145 27l18 80q52 -27 126 -27q48 0 68.5 15.5t20.5 62.5q0 35 -19.5 51.5t-73.5 22.5
q-75 8 -110 38.5t-35 101.5q0 90 42 126.5t125 36.5q65 0 135 -26z" />
    <glyph glyph-name="Hbarsmall" horiz-adv-x="457" 
d="M9 385v68h50v54h75v-54h189v54h76v-54h49v-68h-49v-385h-76v231h-189v-231h-75v385h-50zM134 313h189v72h-189v-72z" />
    <glyph glyph-name="Hcircumflexsmall" horiz-adv-x="457" 
d="M323 231h-189v-231h-76v507h76v-195h189v195h76v-507h-76v231zM289 568q-11 15 -32.5 43t-28.5 38q-11 -16 -59 -81h-76q16 21 48.5 64t49.5 65h77l101 -129h-80z" />
    <glyph glyph-name="IJsmall" horiz-adv-x="500" 
d="M133 507v-507h-75v507h75zM442 507v-338q0 -183 -145 -183q-62 0 -106 23l17 83q40 -21 84 -21q74 0 74 102v334h76z" />
    <glyph glyph-name="Imacronsmall" horiz-adv-x="191" 
d="M133 507v-507h-75v507h75zM-10 581v74h212v-74h-212z" />
    <glyph glyph-name="Iogoneksmall" horiz-adv-x="191" 
d="M134 507v-507h-76v507h76zM94 12h29q-43 -33 -57.5 -56t-14.5 -54q0 -23 11 -33t41 -10q41 0 70 29l25 -56q-36 -35 -102 -35q-58 0 -81 21.5t-23 67.5q0 41 26 75t76 51z" />
    <glyph glyph-name="Itildesmall" horiz-adv-x="191" 
d="M134 507v-507h-75v507h75zM199 695l41 -41q-26 -92 -89 -92q-23 0 -58 30t-53 30q-27 0 -45 -56l-37 45q18 41 38 61t47 20t60 -29.5t50 -29.5q15 0 25.5 13.5t20.5 48.5z" />
    <glyph glyph-name="Jcircumflexsmall" horiz-adv-x="309" 
d="M251 507v-338q0 -183 -145 -183q-60 0 -106 23l18 83q39 -21 83 -21q74 0 74 102v334h76zM270 568q-11 15 -32.5 43t-28.5 38q-11 -16 -59 -81h-76q64 86 97 129h78l101 -129h-80z" />
    <glyph glyph-name="Kcommaaccentsmall" horiz-adv-x="411" 
d="M133 507v-507h-75v507h75zM412 0h-92q-150 250 -187 268q44 41 174 239h92q-123 -187 -170 -230q42 -30 183 -277zM279 -51l-83 -167h-61l57 167h87z" />
    <glyph glyph-name="Lacutesmall" horiz-adv-x="333" 
d="M133 507v-422h199v-85h-274v507h75zM142 568h-72l97 129h85z" />
    <glyph glyph-name="Lcaronsmall" horiz-adv-x="333" 
d="M133 507v-422h199v-85h-274v507h75zM201 544h74l-45 -192h-46z" />
    <glyph glyph-name="Lcommaaccentsmall" horiz-adv-x="333" 
d="M133 507v-422h199v-85h-274v507h75zM240 -51l-83 -167h-61l57 167h87z" />
    <glyph glyph-name="Ldotsmall" horiz-adv-x="333" 
d="M133 507v-422h199v-85h-274v507h75zM228 362q24 0 32 -8.5t8 -38.5q0 -33 -8 -42.5t-32 -9.5t-32.5 9.5t-8.5 42.5q0 30 8.5 38.5t32.5 8.5z" />
    <glyph glyph-name="Nacutesmall" horiz-adv-x="459" 
d="M326 153v354h75v-507h-75q-108 232 -192 366v-366h-76v507h75q122 -197 193 -354zM241 568h-72l97 129h86z" />
    <glyph glyph-name="Ncaronsmall" horiz-adv-x="459" 
d="M326 153v354h75v-507h-75q-108 232 -192 366v-366h-76v507h75q122 -197 193 -354zM96 697h79l61 -81l59 81h77l-98 -129h-78z" />
    <glyph glyph-name="Ncommaaccentsmall" horiz-adv-x="459" 
d="M326 153v354h75v-507h-75q-108 232 -192 366v-366h-76v507h75q122 -197 193 -354zM281 -51l-83 -167h-61l57 167h87z" />
    <glyph glyph-name="Obrevesmall" horiz-adv-x="470" 
d="M235 -14q-100 0 -144.5 59.5t-44.5 210.5q0 150 45 207.5t144 57.5q100 0 144.5 -57.5t44.5 -207.5q0 -152 -44.5 -211t-144.5 -59zM235 440q-44 0 -66 -13.5t-32.5 -53t-10.5 -119.5q0 -112 23 -149.5t86 -37.5t86 37.5t23 149.5q0 80 -11 119.5t-32.5 53t-65.5 13.5z
M122 697h56q0 -37 13.5 -50t44.5 -13t45 13t14 50h53q0 -132 -114 -132q-112 0 -112 132z" />
    <glyph glyph-name="Ohungarumlautsmall" horiz-adv-x="470" 
d="M235 -14q-100 0 -144.5 59.5t-44.5 210.5q0 150 45 207.5t144 57.5q100 0 144.5 -57.5t44.5 -207.5q0 -152 -44.5 -211t-144.5 -59zM235 440q-44 0 -66 -13.5t-32.5 -53t-10.5 -119.5q0 -112 23 -149.5t86 -37.5t86 37.5t23 149.5q0 80 -11 119.5t-32.5 53t-65.5 13.5z
M179 568h-56l70 129h74zM300 568h-56l70 129h74z" />
    <glyph glyph-name="Omacronsmall" horiz-adv-x="470" 
d="M235 -14q-100 0 -144.5 59.5t-44.5 210.5q0 150 45 207.5t144 57.5q100 0 144.5 -57.5t44.5 -207.5q0 -152 -44.5 -211t-144.5 -59zM235 440q-44 0 -66 -13.5t-32.5 -53t-10.5 -119.5q0 -112 23 -149.5t86 -37.5t86 37.5t23 149.5q0 80 -11 119.5t-32.5 53t-65.5 13.5z
M129 581v74h212v-74h-212z" />
    <glyph glyph-name="parenleftsmall" horiz-adv-x="257" 
d="M54 250q0 328 162 406l35 -73q-118 -49 -118 -333q0 -282 118 -333l-35 -72q-162 78 -162 405z" />
    <glyph glyph-name="Racutesmall" horiz-adv-x="446" 
d="M278 507q126 0 126 -148q0 -132 -115 -135q31 -10 60 -51t91 -173h-90q-53 120 -84 158.5t-66 38.5h-66v-197h-76v507h220zM134 274h128q62 0 62 78q0 41 -14.5 58t-45.5 17h-130v-153zM212 568h-72l97 129h86z" />
    <glyph glyph-name="Rcaronsmall" horiz-adv-x="446" 
d="M278 507q126 0 126 -148q0 -132 -115 -135q31 -10 60 -51t91 -173h-90q-53 120 -84 158.5t-66 38.5h-66v-197h-76v507h220zM134 274h128q62 0 62 78q0 41 -14.5 58t-45.5 17h-130v-153zM88 697h80l60 -81l60 81h76l-97 -129h-78z" />
    <glyph glyph-name="Rcommaaccentsmall" horiz-adv-x="446" 
d="M278 507q126 0 126 -148q0 -132 -115 -135q31 -10 60 -51t91 -173h-90q-53 120 -84 158.5t-66 38.5h-66v-197h-76v507h220zM134 274h128q62 0 62 78q0 41 -14.5 58t-45.5 17h-130v-153zM279 -51l-83 -167h-61l57 167h87z" />
    <glyph glyph-name="sterlingsmall" horiz-adv-x="411" 
d="M32 211v74h42v65q0 171 179 171q75 0 133 -22l-18 -79q-43 19 -115 19q-56 0 -79.5 -23.5t-23.5 -74.5v-56h122v-74h-122v-129h224v-82h-300v211h-42z" />
    <glyph glyph-name="summationsmall" horiz-adv-x="397" 
d="M370 423h-218q34 -70 92 -168q-76 -134 -101 -171h225v-84h-346v26q45 69 135 229q-92 167 -123 227v25h336v-84z" />
    <glyph glyph-name="Tbarsmall" horiz-adv-x="386" 
d="M88 198v74h68v151h-150v84h374v-84h-149v-151h69v-74h-69v-198h-75v198h-68z" />
    <glyph glyph-name="Tcommaaccentsmall" horiz-adv-x="386" 
d="M232 423v-423h-76v423h-150v84h374v-84h-148zM244 -51l-83 -167h-61l57 167h87z" />
    <glyph glyph-name="Tcaronsmall" horiz-adv-x="386" 
d="M232 423v-423h-76v423h-150v84h374v-84h-148zM56 697h80l60 -81l60 81h76l-97 -129h-78z" />
    <glyph glyph-name="Utildesmall" horiz-adv-x="452" 
d="M226 73q55 0 74 25.5t19 88.5v320h76v-313q0 -117 -37.5 -162.5t-131.5 -45.5q-93 0 -131 45.5t-38 162.5v313h75v-320q0 -63 19.5 -88.5t74.5 -25.5zM326 695l41 -41q-26 -92 -89 -92q-23 0 -58 30t-53 30q-27 0 -45 -56l-37 45q18 41 38 61t47 20t60 -29.5t50 -29.5
q15 0 25.5 13.5t20.5 48.5z" />
    <glyph glyph-name="Uringsmall" horiz-adv-x="452" 
d="M226 73q55 0 74 25.5t19 88.5v320h76v-313q0 -117 -37.5 -162.5t-131.5 -45.5q-93 0 -131 45.5t-38 162.5v313h75v-320q0 -63 19.5 -88.5t74.5 -25.5zM227 739q91 0 91 -96t-91 -96q-92 0 -92 96q0 51 21 73.5t71 22.5zM227 689q-25 0 -34.5 -11.5t-9.5 -35.5
q0 -48 44 -48t44 48q0 24 -9.5 35.5t-34.5 11.5z" />
    <glyph glyph-name="Uogoneksmall" horiz-adv-x="452" 
d="M226 73q55 0 74 25.5t19 88.5v320h76v-313q0 -117 -37.5 -162.5t-131.5 -45.5q-93 0 -131 45.5t-38 162.5v313h75v-320q0 -63 19.5 -88.5t74.5 -25.5zM283 12h29q-43 -33 -57.5 -56t-14.5 -54q0 -23 11 -33t41 -10q41 0 70 29l25 -56q-36 -35 -102 -35q-58 0 -81 21.5
t-23 67.5q0 41 26 75t76 51z" />
    <glyph glyph-name="Umacronsmall" horiz-adv-x="452" 
d="M226 73q55 0 74 25.5t19 88.5v320h76v-313q0 -117 -37.5 -162.5t-131.5 -45.5q-93 0 -131 45.5t-38 162.5v313h75v-320q0 -63 19.5 -88.5t74.5 -25.5zM123 581v74h212v-74h-212z" />
    <glyph glyph-name="Ubrevesmall" horiz-adv-x="452" 
d="M226 73q55 0 74 25.5t19 88.5v320h76v-313q0 -117 -37.5 -162.5t-131.5 -45.5q-93 0 -131 45.5t-38 162.5v313h75v-320q0 -63 19.5 -88.5t74.5 -25.5zM115 697h56q0 -37 14 -50t45 -13q30 0 44 13t14 50h53q0 -132 -113 -132t-113 132z" />
    <glyph glyph-name="Uhungarumlautsmall" horiz-adv-x="452" 
d="M226 73q55 0 74 25.5t19 88.5v320h76v-313q0 -117 -37.5 -162.5t-131.5 -45.5q-93 0 -131 45.5t-38 162.5v313h75v-320q0 -63 19.5 -88.5t74.5 -25.5zM173 568h-56l70 129h74zM295 568h-56l69 129h75z" />
    <glyph glyph-name="yensmall" horiz-adv-x="384" 
d="M43 222v55h89q-73 126 -144 230h89q43 -61 119 -196q50 73 115 196h85q-66 -118 -138 -230h81v-55h-108v-65h108v-54h-108v-103h-75v103h-113v54h113v65h-113z" />
    <glyph glyph-name="Ycircumflexsmall" horiz-adv-x="384" 
d="M196 311q50 75 114 196h87q-80 -144 -166 -274v-233h-75v233q-99 173 -169 274h90q48 -71 119 -196zM257 568q-11 15 -32.5 43t-28.5 38q-11 -16 -59 -81h-76q64 86 97 129h78l101 -129h-80z" />
    <glyph glyph-name="zerosmall" horiz-adv-x="442" 
d="M221 -14q-88 0 -130.5 60t-42.5 210q0 148 42.5 206.5t130.5 58.5q89 0 131 -58t42 -207q0 -150 -42 -210t-131 -60zM221 441q-53 0 -73 -36t-20 -151q0 -111 20.5 -149.5t72.5 -38.5t72.5 38.5t20.5 149.5q0 115 -20 151t-73 36z" />
    <glyph glyph-name="onesmall" horiz-adv-x="443" 
d="M298 0h-76v393l-125 -76l-24 79l225 125v-521z" />
    <glyph glyph-name="twosmall" horiz-adv-x="442" 
d="M78 409l-20 91q68 21 145 21q96 0 136.5 -37.5t40.5 -122.5q0 -75 -43.5 -134.5t-170.5 -146.5h218v-80h-332v73q115 92 163.5 137t63.5 73t15 67q0 45 -22 64t-78 19q-27 0 -63 -7.5t-53 -16.5z" />
    <glyph glyph-name="foursmall" horiz-adv-x="443" 
d="M266 129h-236v32q87 170 201 346h110v-299h76v-79h-76v-129h-75v129zM266 208v229q-83 -128 -136 -229h136z" />
    <glyph glyph-name="fivesmall" horiz-adv-x="443" 
d="M76 507h299v-82h-223v-118q38 4 68 4q92 0 131.5 -37.5t39.5 -122.5q0 -92 -46 -128.5t-147 -36.5q-96 0 -148 20l17 80q51 -19 128 -19q64 0 91 18.5t27 62.5q0 50 -24.5 70t-84.5 20q-73 0 -128 -12v281z" />
    <glyph glyph-name="sixsmall" horiz-adv-x="442" 
d="M412 148q0 -91 -41.5 -126.5t-135.5 -35.5q-100 0 -142.5 56t-42.5 213q0 147 53 206.5t162 59.5q64 0 133 -23l-18 -81q-57 22 -114 22q-76 0 -106.5 -27.5t-33.5 -112.5q62 12 116 12q93 0 131.5 -36.5t38.5 -126.5zM334 150q0 53 -21 71.5t-81 18.5t-106 -11
q1 -101 26 -133.5t81 -32.5q60 0 80.5 19t20.5 68z" />
    <glyph glyph-name="sevensmall" horiz-adv-x="442" 
d="M45 507h370v-22q-113 -196 -212 -485h-87q86 238 190 423h-261v84z" />
    <glyph glyph-name="eightsmall" horiz-adv-x="442" 
d="M221 65q64 0 87 18t23 67q0 45 -26 64t-84 19q-57 0 -83 -19t-26 -64q0 -48 23 -66.5t86 -18.5zM221 -14q-101 0 -144 33t-43 117q0 128 109 134q-55 6 -76.5 37.5t-21.5 86.5q0 68 39 97.5t137 29.5t137 -29.5t39 -97.5q0 -55 -21 -86.5t-76 -37.5q108 -6 108 -134
q0 -84 -43 -117t-144 -33zM221 310q54 0 77.5 14.5t23.5 53.5q0 37 -21.5 51.5t-79.5 14.5q-57 0 -78.5 -14.5t-21.5 -51.5q0 -39 23 -53.5t77 -14.5z" />
    <glyph glyph-name="ninesmall" horiz-adv-x="443" 
d="M204 189q-92 0 -129.5 36.5t-37.5 125.5q0 92 43 131.5t139 39.5q102 0 144.5 -45.5t42.5 -153.5q0 -51 -14.5 -96.5t-44.5 -87.5t-56 -69.5t-69 -69.5h-107q64 57 118 114.5t66 84.5q-68 -10 -95 -10zM326 325q0 67 -24 93.5t-82 26.5q-61 0 -82.5 -22t-21.5 -73
q0 -53 18.5 -68.5t82.5 -15.5q42 0 98 10q10 23 11 49z" />
    <glyph glyph-name="threesmall" horiz-adv-x="443" 
d="M140 234v75h61q54 0 76.5 14t22.5 51q0 35 -22.5 50t-81.5 15q-70 0 -120 -21l-18 83q62 20 139 20q99 0 140.5 -29.5t41.5 -97.5q0 -55 -22.5 -86.5t-78.5 -37.5q110 -6 110 -134q0 -84 -45.5 -117t-147.5 -33q-83 0 -141 20l18 85q47 -22 122 -22q66 0 89.5 18t23.5 66
q0 44 -24.5 62.5t-81.5 18.5h-61z" />
    <glyph glyph-name="atsmall" horiz-adv-x="583" 
d="M267 457q-62 0 -93 -14.5t-46.5 -57.5t-15.5 -129q0 -122 37 -162t143 -40q104 0 142 46.5t38 178.5q0 99 -15 152h67q13 -51 13 -154q0 -166 -57 -229.5t-188 -63.5q-132 0 -189 58t-57 215q0 79 14 132.5t43 83t67 41.5t93 12q43 0 69 -7t46.5 -28t28.5 -61t8 -106
q0 -83 -13 -124.5t-39 -55.5t-77 -14q-71 0 -97.5 25t-26.5 100t26 100.5t89 25.5q47 0 76 -6q-2 47 -21 64.5t-65 17.5zM292 319q-38 0 -51 -11t-13 -49t13 -51t50 -13q35 0 48.5 18t13.5 69v32q-45 5 -61 5z" />
    <glyph glyph-name="backslashsmall" horiz-adv-x="342" 
d="M-5 507h86l264 -507h-85z" />
    <glyph glyph-name="slashsmall" horiz-adv-x="341" 
d="M258 507h86l-265 -507h-85z" />
    <glyph glyph-name="barsmall" horiz-adv-x="273" 
d="M96 640h81v-775h-81v775z" />
    <glyph glyph-name="bracketrightsmall" horiz-adv-x="280" 
d="M22 647h188v-791h-188v82h109v626h-109v83z" />
    <glyph glyph-name="bracerightsmall" horiz-adv-x="271" 
d="M245 286v1v-76q-38 0 -59.5 -32.5t-21.5 -119.5q0 -181 -120 -216l-30 70q41 13 59.5 47t18.5 120q0 148 72 169q-72 18 -72 169q0 86 -18.5 119.5t-59.5 47.5l30 69q120 -35 120 -216q0 -87 21.5 -119.5t59.5 -32.5z" />
    <glyph glyph-name="Cdotaccentsmall" horiz-adv-x="374" 
d="M344 96l20 -83q-49 -27 -120 -27q-99 0 -148.5 60.5t-49.5 209.5q0 148 49.5 206.5t148.5 58.5q69 0 120 -24l-20 -84q-41 23 -96 23q-45 0 -69.5 -12.5t-38.5 -52.5t-14 -117q0 -107 28 -145t94 -38q48 0 96 25zM238 669q24 0 32 -8.5t8 -38.5q0 -33 -8 -42.5t-32 -9.5
t-32.5 10t-8.5 42q0 29 8.5 38t32.5 9z" />
    <glyph glyph-name="Cacutesmall" horiz-adv-x="374" 
d="M344 96l20 -83q-49 -27 -120 -27q-99 0 -148.5 60.5t-49.5 209.5q0 148 49.5 206.5t148.5 58.5q69 0 120 -24l-20 -84q-41 23 -96 23q-45 0 -69.5 -12.5t-38.5 -52.5t-14 -117q0 -107 28 -145t94 -38q48 0 96 25zM234 568h-72l97 129h85z" />
    <glyph glyph-name="Ccaronsmall" horiz-adv-x="374" 
d="M344 96l20 -83q-49 -27 -120 -27q-99 0 -148.5 60.5t-49.5 209.5q0 148 49.5 206.5t148.5 58.5q69 0 120 -24l-20 -84q-41 23 -96 23q-45 0 -69.5 -12.5t-38.5 -52.5t-14 -117q0 -107 28 -145t94 -38q48 0 96 25zM96 697h80l60 -81l60 81h76l-97 -129h-78z" />
    <glyph glyph-name="centsmall" horiz-adv-x="356" 
d="M163 521h49v-75q42 -4 75 -18l-17 -63q-21 12 -58 16v-247q31 4 58 17l17 -62q-31 -16 -75 -20v-83h-49v85q-59 9 -89.5 52t-30.5 136q0 91 30.5 134t89.5 51v77zM108 258q0 -107 55 -118v236q-55 -11 -55 -118z" />
    <glyph glyph-name="daggersmall" horiz-adv-x="346" 
d="M24 430v77h116v148h66v-148h116v-77h-116v-241h-66v241h-116z" />
    <glyph glyph-name="degreesmall" horiz-adv-x="276" 
d="M138 521q63 0 89.5 -34t26.5 -128q0 -96 -26.5 -132.5t-89.5 -36.5t-89.5 36.5t-26.5 132.5q0 94 26.5 128t89.5 34zM138 248q34 0 44.5 22.5t10.5 86.5q0 66 -10.5 86.5t-44.5 20.5q-33 0 -44 -21t-11 -86q0 -63 11.5 -86t43.5 -23z" />
    <glyph glyph-name="dollarsmall" horiz-adv-x="430" 
d="M188 617h52v-105q61 0 119 -20l-18 -76q-31 15 -101 19v-141q68 -11 100 -46t32 -102q0 -135 -132 -153v-109h-52v109q-74 0 -125 19l20 78q44 -17 105 -19v150q-67 9 -98.5 41t-31.5 98q0 135 130 151v106zM129 364q0 -28 13 -42.5t46 -20.5v133q-59 -8 -59 -70z
M301 144q0 29 -13 45.5t-48 23.5v-141q61 8 61 72z" />
    <glyph glyph-name="numbersignsmall" horiz-adv-x="463" 
d="M33 320l4 71h85l6 116h67l-5 -116h89l6 116h68l-6 -116h91l-4 -71h-91l-6 -121h93l-4 -69h-92l-7 -130h-68l7 130h-90l-6 -130h-68l7 130h-84l4 69h83l7 121h-86zM186 320l-7 -121h90l6 121h-89z" />
    <glyph glyph-name="parenrightsmall" horiz-adv-x="257" 
d="M203 250q0 -327 -163 -406l-35 72q118 51 118 334q0 282 -118 333l35 72q163 -79 163 -405z" />
    <glyph glyph-name="percentsmall" horiz-adv-x="618" 
d="M417 507h72l-291 -507h-71zM138 521q63 0 89.5 -34t26.5 -128q0 -96 -26.5 -132.5t-89.5 -36.5t-89.5 36.5t-26.5 132.5q0 94 26.5 128t89.5 34zM138 248q34 0 44.5 22.5t10.5 86.5q0 66 -10.5 86.5t-44.5 20.5q-33 0 -44 -21t-11 -86q0 -63 11.5 -86t43.5 -23zM480 318
q62 0 89 -34.5t27 -128.5q0 -95 -27 -132t-89 -37q-63 0 -89.5 36.5t-26.5 132.5q0 94 26.5 128.5t89.5 34.5zM480 44q33 0 44 23t11 86q0 65 -10.5 86t-44.5 21q-33 0 -44.5 -21t-11.5 -86q0 -62 11.5 -85.5t44.5 -23.5z" />
    <glyph glyph-name="sectionsmall" horiz-adv-x="374" 
d="M319 502l-17 -64q-42 17 -98 17q-93 0 -93 -52q0 -23 17.5 -34t67.5 -15q70 -6 104.5 -32t34.5 -80q0 -37 -23 -70q20 -23 20 -65q0 -121 -163 -121q-59 0 -115 18l17 65q38 -18 98 -18q93 0 93 53q0 23 -18 34t-67 15q-70 6 -104.5 32t-34.5 80q0 38 22 71
q-19 23 -19 64q0 121 163 121q61 0 115 -19zM112 305q-8 -20 -8 -37q0 -22 20.5 -34t65.5 -17q43 -3 72 -14q6 18 6 34q0 23 -20 35.5t-66 17.5q-48 5 -70 15z" />
    <glyph glyph-name="Sacutesmall" 
d="M344 495l-19 -80q-57 26 -117 26q-48 0 -68 -14t-20 -61q0 -32 20 -46.5t72 -20.5q77 -8 111 -42t34 -106q0 -91 -40.5 -128t-124.5 -37q-83 0 -145 27l18 80q52 -27 126 -27q48 0 68.5 15.5t20.5 62.5q0 35 -19.5 51.5t-73.5 22.5q-75 8 -110 38.5t-35 101.5
q0 90 42 126.5t125 36.5q65 0 135 -26zM199 568h-72l97 129h85z" />
    <glyph glyph-name="Scedillasmall" 
d="M344 495l-19 -80q-57 26 -117 26q-48 0 -68 -14t-20 -61q0 -32 20 -46.5t72 -20.5q77 -8 111 -42t34 -106q0 -91 -40.5 -128t-124.5 -37q-83 0 -145 27l18 80q52 -27 126 -27q48 0 68.5 15.5t20.5 62.5q0 35 -19.5 51.5t-73.5 22.5q-75 8 -110 38.5t-35 101.5
q0 90 42 126.5t125 36.5q65 0 135 -26zM172 0h34v-44q51 0 71 -16.5t20 -60.5q0 -47 -23.5 -64.5t-81.5 -17.5q-53 0 -81 18l16 48q23 -14 63 -14q23 0 31.5 6t8.5 24q0 20 -18 26t-68 2z" />
    <glyph glyph-name="Scircumflexsmall" 
d="M344 495l-19 -80q-57 26 -117 26q-48 0 -68 -14t-20 -61q0 -32 20 -46.5t72 -20.5q77 -8 111 -42t34 -106q0 -91 -40.5 -128t-124.5 -37q-83 0 -145 27l18 80q52 -27 126 -27q48 0 68.5 15.5t20.5 62.5q0 35 -19.5 51.5t-73.5 22.5q-75 8 -110 38.5t-35 101.5
q0 90 42 126.5t125 36.5q65 0 135 -26zM265 568q-11 15 -32.5 43t-28.5 38q-11 -16 -59 -81h-76q16 21 48.5 64t49.5 65h77l101 -129h-80z" />
    <glyph glyph-name="Scommaaccentsmall" 
d="M344 495l-19 -80q-57 26 -117 26q-48 0 -68 -14t-20 -61q0 -32 20 -46.5t72 -20.5q77 -8 111 -42t34 -106q0 -91 -40.5 -128t-124.5 -37q-83 0 -145 27l18 80q52 -27 126 -27q48 0 68.5 15.5t20.5 62.5q0 35 -19.5 51.5t-73.5 22.5q-75 8 -110 38.5t-35 101.5
q0 90 42 126.5t125 36.5q65 0 135 -26zM255 -51l-83 -167h-61l57 167h87z" />
    <glyph glyph-name="Wcircumflexsmall" horiz-adv-x="656" 
d="M330 386q-34 -182 -91 -386h-99q-60 281 -130 507h82q56 -182 102 -412q63 228 96 412h82q45 -167 89 -412q74 254 103 412h80q-58 -267 -138 -507h-98q-37 224 -78 386zM388 568q-7 9 -19 25.5t-22 30t-19 25.5l-60 -81h-76q16 21 48.5 64t49.5 65h78l100 -129h-80z" />
    <glyph glyph-name="Zacutesmall" 
d="M36 507h336v-25q-50 -97 -119 -217t-110 -181h225v-84h-346v26q147 230 232 397h-218v84zM222 568h-72l97 129h85z" />
    <glyph glyph-name="Zdotaccentsmall" 
d="M36 507h336v-25q-50 -97 -119 -217t-110 -181h225v-84h-346v26q147 230 232 397h-218v84zM203 669q24 0 32 -8.5t8 -38.5q0 -33 -8 -42.5t-32 -9.5t-32.5 9.5t-8.5 42.5q0 30 8.5 38.5t32.5 8.5z" />
    <glyph glyph-name="zeroop" horiz-adv-x="456" 
d="M231 -14q-94 0 -139.5 60t-45.5 210q0 148 46 206.5t139 58.5q92 0 135.5 -58t43.5 -207q0 -150 -43 -210t-136 -60zM231 441q-42 0 -63 -13.5t-31.5 -53.5t-10.5 -120q0 -112 22.5 -150t82.5 -38q59 0 79 37t20 151q0 117 -19.5 152t-79.5 35z" />
    <glyph glyph-name="oneop" horiz-adv-x="282" 
d="M224 0h-75v393l-125 -76l-25 79l225 125v-521z" />
    <glyph glyph-name="twoop" horiz-adv-x="438" 
d="M69 409l-19 91q68 21 154 21q103 0 144 -37.5t41 -122.5q0 -76 -53 -143t-179 -138h237v-80h-351v73q162 112 211.5 165.5t49.5 109.5q0 46 -23 65.5t-86 19.5q-28 0 -69 -7.5t-57 -16.5z" />
    <glyph glyph-name="threeop" horiz-adv-x="461" 
d="M132 137v85h71q63 0 89.5 24.5t26.5 84.5q0 56 -27.5 78.5t-104.5 22.5q-88 0 -147 -24l-17 87q92 26 174 26q114 0 160.5 -40.5t46.5 -132.5q0 -75 -25 -116.5t-94 -49.5q74 -4 102 -50t28 -130q0 -113 -51.5 -158.5t-169.5 -45.5q-81 0 -177 27l18 85q59 -22 149 -22
q84 0 113.5 27t29.5 97q0 71 -27 98t-96 27h-72z" />
    <glyph glyph-name="fourop" horiz-adv-x="457" 
d="M292 0h-279v27q131 301 242 480h116v-426h76v-81h-76v-192h-79v192zM292 81v349q-67 -106 -177 -349h177z" />
    <glyph glyph-name="fiveop" horiz-adv-x="474" 
d="M68 507h331v-87h-253v-188q30 5 78 5q114 0 159 -49t45 -166q0 -127 -49.5 -176t-167.5 -49q-78 0 -169 27l18 85q57 -22 140 -22t111.5 27.5t28.5 99.5q0 79 -26 108t-104 29q-81 0 -142 -16v372z" />
    <glyph glyph-name="sixop" horiz-adv-x="509" 
d="M444 686q-6 -30 -20 -90q-53 25 -128 25q-40 0 -60 -7q-52 -12 -76 -55.5t-28 -147.5q61 14 125 14q115 0 160.5 -49.5t45.5 -166.5q0 -126 -46.5 -174.5t-158.5 -48.5q-80 0 -124.5 32.5t-66 112t-21.5 222.5q0 141 27.5 220.5t80 110t142.5 30.5q74 0 148 -28zM258 76
q71 0 95 27t24 98q0 77 -24 107t-93 30q-31 0 -47 -1q-40 -3 -81 -13q1 -102 15.5 -157t40 -73t70.5 -18z" />
    <glyph glyph-name="sevenop" horiz-adv-x="402" 
d="M404 507v-33q-60 -121 -133 -318t-115 -348h-93q49 166 114.5 340t117.5 272h-302v87h411z" />
    <glyph glyph-name="eightop" horiz-adv-x="500" 
d="M250 70q67 0 93 28.5t26 98.5q0 72 -27 102t-92 30q-64 0 -91 -30t-27 -102q0 -70 25.5 -98.5t92.5 -28.5zM250 410q57 0 82 27t25 88q0 57 -23.5 80.5t-83.5 23.5t-83.5 -23.5t-23.5 -80.5q0 -61 25 -88t82 -27zM250 -14q-108 0 -156 46t-48 158q0 84 28 131t102 51
q-69 8 -92.5 50t-23.5 118q0 91 43 132.5t147 41.5q105 0 148 -42t43 -132q0 -75 -24 -117.5t-93 -50.5q74 -4 102 -51t28 -131q0 -112 -48 -158t-156 -46z" />
    <glyph glyph-name="nineop" horiz-adv-x="505" 
d="M146 -192q145 162 194 282q-51 -7 -88 -7q-116 0 -161 44.5t-45 160.5q0 127 47 180t158 53q121 0 164.5 -49.5t43.5 -192.5q0 -139 -56 -250.5t-151 -220.5h-106zM257 169q61 0 107 10q9 36 9 87q0 75 -13 110.5t-36.5 45.5t-72.5 10q-71 0 -95 -31.5t-24 -105.5
q0 -77 24.5 -101.5t100.5 -24.5z" />
    <glyph glyph-name="two.alt" horiz-adv-x="479" 
d="M77 595l-18 89q85 30 168 30q106 0 154 -44.5t48 -154.5q0 -78 -30.5 -128t-100.5 -91q-77 -44 -112 -86t-45 -123h285v-87h-388q6 82 24.5 143t51 102t60.5 64t73 51q51 32 73.5 63t22.5 86q0 66 -27 89.5t-95 23.5q-37 0 -79.5 -7.5t-64.5 -19.5z" />
    <glyph glyph-name="Ccircumflexsmall" horiz-adv-x="375" 
d="M344 96l20 -83q-49 -27 -120 -27q-99 0 -148.5 60.5t-49.5 209.5q0 148 49.5 206.5t148.5 58.5q69 0 120 -24l-20 -84q-41 23 -96 23q-45 0 -69.5 -12.5t-38.5 -52.5t-14 -117q0 -107 28 -145t94 -38q48 0 96 25zM292 568q-11 15 -32.5 43t-28.5 38q-11 -16 -59 -81h-76
q64 86 97 129h78l101 -129h-80z" />
    <glyph glyph-name="ccaront" horiz-adv-x="686" 
d="M441 170v253q-41 0 -113 7t-83 7q-66 0 -92.5 -35.5t-26.5 -147.5q0 -107 27 -145t92 -38q52 0 95 23l19 -81q-49 -27 -117 -27q-97 0 -146.5 60.5t-49.5 209.5q0 148 49 206.5t147 58.5q15 0 87 -7t112 -7v96l76 39v-135h143v-84h-143v-247q0 -57 15.5 -81t53.5 -24
q40 0 73 14l14 -78q-44 -21 -100 -21q-72 0 -102 38t-30 146zM103 697h79l61 -81l59 81h77l-98 -129h-77z" />
    <glyph glyph-name="scaront" horiz-adv-x="712" 
d="M468 170v253q-58 1 -152 9.5t-108 8.5q-48 0 -68 -14t-20 -61q0 -32 20 -46.5t72 -20.5q77 -8 111 -42t34 -106q0 -91 -40.5 -128t-124.5 -37q-83 0 -145 27l18 80q52 -27 126 -27q48 0 68.5 15.5t20.5 62.5q0 35 -19.5 51.5t-73.5 22.5q-75 8 -110 38.5t-35 101.5
q0 90 42 126.5t125 36.5q15 0 112 -7t147 -7v96l76 39v-135h142v-84h-142v-247q0 -57 15 -81t54 -24t72 14l15 -78q-46 -21 -100 -21q-72 0 -102 38t-30 146zM68 697h79l61 -81l59 81h77l-98 -129h-78z" />
    <glyph glyph-name="ampersandsmall.2" horiz-adv-x="533" 
d="M519 235h-104v-219q-91 -30 -173 -30q-102 0 -147 33t-45 117q0 130 108 136q-56 5 -78 33.5t-22 81.5q0 69 42.5 101.5t139.5 32.5q77 0 140 -20l-18 -83q-52 21 -122 21q-59 0 -81 -14t-22 -50q0 -37 22.5 -51t76.5 -14h283v-75zM130 155q0 -48 23.5 -67t89.5 -19
q58 0 101 14v152h-112q-55 0 -78.5 -18.5t-23.5 -61.5z" />
    <glyph glyph-name="man" horiz-adv-x="419" 
d="M276 419v-611h-61v372h-10v-372h-61v611q-18 -1 -23.5 -10.5t-5.5 -37.5v-191h-75v194q0 83 33 109t137 26q103 0 136 -26t33 -109v-194h-75v191q0 28 -5 37.5t-23 10.5zM210 721q48 0 65 -16.5t17 -72.5q0 -63 -17 -82t-65 -19q-50 0 -67.5 19t-17.5 82q0 56 17 72.5
t68 16.5z" />
    <glyph glyph-name="woman" horiz-adv-x="419" 
d="M259 419v-239q87 -248 144 -372h-387q107 290 144 372v239q-29 -1 -37 -10t-8 -38v-191h-59v194q0 83 30.5 109t123.5 26q92 0 122.5 -26.5t30.5 -108.5v-194h-59v191q0 29 -8 38t-37 10zM210 721q48 0 65 -16.5t17 -72.5q0 -63 -17 -82t-65 -19q-50 0 -67.5 19t-17.5 82
q0 56 17 72.5t68 16.5z" />
    <glyph glyph-name="escaperight" horiz-adv-x="1014" 
d="M357 509q11 -60 59 -118t109 -58l-11 -80q-59 0 -107.5 36.5t-70.5 99.5l-39 -229q86 -2 123.5 -72t9.5 -220h-67q24 123 -1 172t-121 49q-29 -127 -81 -182t-142 -55l14 77q54 0 89.5 41t53.5 149l52 308q-32 0 -60.5 -41.5t-41.5 -132.5h-65q24 127 64 191.5t116 64.5
h117zM996 293l-218 -256l-43 57l130 159h-310l10 80h300l-130 159l43 57zM425 531h-60q-50 0 -67.5 19t-17.5 82q0 56 17 72.5t68 16.5q50 0 68 -17.5t9 -71.5z" />
    <glyph glyph-name="noentry" horiz-adv-x="682" 
d="M670 0h-99l-172 215v-407h-53v372h-10v-372h-53v407l-172 -215h-99l159 202v172q0 71 23 99l-179 224h107l149 -191q30 3 70 3q42 0 69 -4l151 192h106l-179 -225q22 -26 22 -98v-171zM341 721q48 0 65 -16.5t17 -72.5q0 -63 -17 -82t-65 -19q-50 0 -67.5 19t-17.5 82
q0 56 17 72.5t68 16.5zM246 371v-73l37 47v16l-33 41q-4 -7 -4 -31zM435 371q0 21 -3 31l-33 -41v-16l36 -46v72z" />
    <glyph glyph-name="escapeleft" horiz-adv-x="1014" 
d="M657 509h118q76 0 115.5 -64.5t64.5 -191.5h-66q-13 91 -41.5 132.5t-59.5 41.5l52 -308q18 -108 53 -149t89 -41l14 -77q-90 0 -142 55t-81 182q-96 0 -121.5 -50.5t0.5 -170.5h-68q-28 150 9.5 220t123.5 72l-39 229q-22 -63 -70.5 -99.5t-107.5 -36.5l-11 80
q62 0 109.5 58t58.5 118zM236 37l-218 256l218 256l44 -57l-131 -159h300l11 -80h-311l131 -159zM649 531h-59l-18 101q-9 53 9 71t68 18q51 0 68 -16.5t17 -72.5q0 -63 -17.5 -82t-67.5 -19z" />
    <glyph glyph-name="manneg" horiz-adv-x="547" 
d="M341 -192v611q18 -1 23 -10.5t5 -37.5v-191h75v194q0 83 -33 109t-137 26q-103 0 -136 -26t-33 -109v-194h75v191q0 28 5.5 37.5t23.5 10.5v-611h61v372h10v-372h61zM274 721q-50 0 -67 -16.5t-17 -72.5q0 -63 17 -82t67 -19q49 0 66 19t17 82q0 56 -17 72.5t-66 16.5z
M441 -232h-335q-48 0 -65 19t-17 82v803q0 56 17 72.5t65 16.5h335q48 0 65 -16.5t17 -72.5v-803q0 -63 -17 -82t-65 -19z" />
    <glyph glyph-name="womanneg" horiz-adv-x="547" 
d="M324 180v239q29 -1 37 -10t8 -38v-191h59v194q0 82 -31 108.5t-123 26.5t-122.5 -26t-30.5 -109v-194h59v191q0 29 8 38t37 10v-239q-37 -82 -144 -372h387q-57 124 -144 372zM274 721q-50 0 -67 -16.5t-17 -72.5q0 -63 17 -82t67 -19q49 0 66 19t17 82q0 56 -17 72.5
t-66 16.5zM441 -232h-335q-48 0 -65 19t-17 82v803q0 56 17 72.5t65 16.5h335q48 0 65 -16.5t17 -72.5v-803q0 -63 -17 -82t-65 -19z" />
    <glyph glyph-name="escaperightneg" horiz-adv-x="1098" 
d="M992 -232h-886q-48 0 -65 19t-17 82v803q0 56 17 72.5t65 16.5h886q48 0 65 -16.5t17 -72.5v-803q0 -63 -17 -82t-65 -19zM404 509h-118q-75 0 -115 -64.5t-65 -191.5h66q13 91 41.5 132.5t60.5 41.5l-52 -308q-18 -108 -53.5 -149t-89.5 -41l-14 -77q90 0 142 55t81 182
q96 0 121 -49t1 -172h67q28 150 -9.5 220t-123.5 72l39 229q22 -63 70.5 -99.5t107.5 -36.5l11 80q-62 0 -109.5 58t-58.5 118zM825 37l218 256l-218 256l-43 -57l130 -159h-300l-10 -80h310l-130 -159zM412 531h60l17 101q9 53 -9 71t-68 18q-51 0 -68 -16.5t-17 -72.5
q0 -63 17.5 -82t67.5 -19z" />
    <glyph glyph-name="escapeleftneg" horiz-adv-x="1098" 
d="M992 -232h-886q-48 0 -65 19t-17 82v803q0 56 17 72.5t65 16.5h886q48 0 65 -16.5t17 -72.5v-803q0 -63 -17 -82t-65 -19zM694 509q-11 -60 -58.5 -118t-109.5 -58l12 -80q58 0 106.5 37t70.5 99l39 -229q-86 -2 -123 -72t-9 -220h67q-26 120 -0.5 170.5t121.5 50.5
q30 -128 82 -182.5t142 -54.5l-15 77q-54 0 -89 41t-53 149l-52 308q31 0 59.5 -41.5t41.5 -132.5h66q-25 127 -64.5 191.5t-115.5 64.5h-118zM55 293l219 -256l43 57l-131 159h311l-11 80h-300l131 159l-43 57zM627 531h59q50 0 67.5 19t17.5 82q0 56 -17 72.5t-68 16.5
q-50 0 -67.5 -18t-8.5 -71z" />
    <glyph glyph-name="noentryneg" horiz-adv-x="768" 
d="M662 -232h-556q-48 0 -65 19t-17 82v803q0 56 17 72.5t65 16.5h556q48 0 65 -16.5t17 -72.5v-803q0 -63 -17 -82t-65 -19zM614 0h99l-160 203v171q0 71 -23 98l180 225h-107l-151 -192q-25 4 -69 4q-39 0 -69 -3l-150 191h-106l178 -224q-22 -27 -22 -99v-172l-160 -202
h100l172 215v-407h52v372h11v-372h53v407zM383 721q-51 0 -68 -16.5t-17 -72.5q0 -63 17.5 -82t67.5 -19q49 0 66 19t17 82q0 56 -17 72.5t-66 16.5zM289 298v73q0 24 3 31l34 -41v-16zM478 371v-72l-36 46v16l32 41q4 -9 4 -31z" />
    <glyph glyph-name="trash" horiz-adv-x="854" 
d="M137 334h37l16 -127h235l17 127h37l-68 -526h-206zM643 509l60 -329v-372h-52v372h-11l-48 -372h-53l48 372l-46 249h-290l-12 80h404zM547 531h-59l-17 101q-9 53 8.5 71t67.5 18q51 0 68 -16.5t17 -72.5q0 -63 -17.5 -82t-67.5 -19zM275 412q32 -46 128 -46l-67 -122
q-35 3 -66.5 40t-31.5 62q0 8 3.5 17t9 17.5t11 15t9.5 11.5zM196 162l15 -122h79v122h-94zM326 162v-122h77l16 122h-93zM218 -5l18 -142h54v142h-72zM326 -5v-142h53l19 142h-72z" />
    <glyph glyph-name="material" horiz-adv-x="855" 
d="M723 258l104 -226q15 -31 15 -73q0 -64 -35.5 -107.5t-85.5 -43.5h-191v-122l-147 162l147 161v-122h191q23 0 40.5 21t17.5 51q0 19 -7 33l-104 227zM340 -192h-208q-45 0 -78 37.5t-38.5 87.5t14.5 102l95 207l-84 61l186 78l38 -239l-85 61l-96 -207
q-16 -33 -0.5 -70.5t47.5 -37.5h209v-80zM222 452l104 225q23 49 64 65.5t81.5 -2.5t62.5 -66l96 -206l84 60l-39 -240l-184 78l84 62l-95 207q-15 33 -48 35.5t-50 -32.5l-105 -226z" />
    <glyph glyph-name="recycling" horiz-adv-x="854" 
d="M24 256q0 137 54 253t146.5 183.5t202.5 67.5q109 0 202 -67.5t147 -183.5t54 -253t-54 -253t-147 -183.5t-202 -67.5q-110 0 -202.5 67.5t-146.5 183.5t-54 253zM427 739q-105 0 -194.5 -64.5t-141.5 -176t-52 -242.5t52 -242.5t141 -176.5t194 -65q-87 0 -162 43
t-120.5 112t-72.5 153t-15.5 169t49 156.5t121.5 119.5t201 55v159q76 -61 132 -127t109 -155q-110 -178 -241 -282v161q-130 -103 -242 -282q100 -168 242 -282v159q92 5 163.5 36t114 79t68 108.5t26 126.5t-12.5 131.5t-47 124t-78 104t-105.5 72t-128.5 26.5z" />
    <glyph glyph-name="flammable" horiz-adv-x="854" 
d="M705 -192h-556q-48 0 -65 17.5t-17 74.5v733q0 51 17 66t65 15h556q48 0 65 -15t17 -66v-733q0 -57 -17 -74.5t-65 -17.5zM156 -161h542q43 0 53 12t10 65v700q0 47 -10 57.5t-53 10.5h-542q-44 0 -54 -10.5t-10 -57.5v-700q0 -53 10.5 -65t53.5 -12zM180 -79v39h126
q-26 14 -41 60t-20 90t-23.5 76.5t-51.5 26.5q23 13 43 14t34.5 -5t29 -22.5t23.5 -31t21 -38.5q-10 33 -18.5 122.5t-23.5 151t-44 67.5q27 5 49 -4.5t35.5 -26t25.5 -48t18 -55t14 -61.5q-2 35 6.5 125.5t5 152t-33.5 76.5q43 -4 68.5 -31t33.5 -69.5t9.5 -85.5t4 -92
t10.5 -76q49 133 54 177q5 43 -11 63q43 -27 54 -80t0.5 -102.5t-25.5 -111.5t-15 -91q0 -2 -0.5 -6t-0.5 -6q7 8 22.5 23t23.5 23t18 21t13.5 22.5t4 21t-5.5 22.5q33 -28 37 -63t-10.5 -63.5t-34.5 -68.5t-24 -68q0 -17 -14 -29h114v-39h-501zM377 41q13 -14 4 -41
t-31 -40h148q-20 15 -21 44q-1 43 35 88q-19 -8 -37.5 2t-25.5 41q-6 24 9 72q-14 -12 -34 -7.5t-35 29.5q-1 1 -1 2q0 2 -1 2q12 -53 26 -77q10 -17 1 -41t-28.5 -32.5t-44.5 9.5q23 -38 36 -51z" />
    <glyph glyph-name="poison" horiz-adv-x="854" 
d="M705 -192h-556q-48 0 -65 17.5t-17 74.5v733q0 51 17 66t65 15h556q48 0 65 -15t17 -66v-733q0 -57 -17 -74.5t-65 -17.5zM156 -161h542q43 0 53 12t10 65v700q0 47 -10 57.5t-53 10.5h-542q-44 0 -54 -10.5t-10 -57.5v-700q0 -53 10.5 -65t53.5 -12zM224 -104l-95 117
l203 254l-203 255l92 113l203 -252l204 257l95 -118l-205 -256l203 -253l-92 -117l-204 255z" />
    <glyph glyph-name="Pct" horiz-adv-x="855" 
d="M426 266q0 -100 70.5 -154t178.5 -54q44 0 74 5v-92q-52 -45 -133 -68.5t-169 -23.5q-164 0 -281 113.5t-117 272.5q0 160 117 274t281 114q89 0 170 -23.5t132 -68.5v-91q-30 5 -74 5q-108 0 -178.5 -54.5t-70.5 -154.5zM194 1v361q0 65 15 86.5t62 21.5q35 0 50.5 -24
t15.5 -82t-18 -82t-63 -24q-32 0 -50 18v-66q24 -17 56 -17q141 0 141 172q0 86 -36 128.5t-102 42.5q-60 0 -97.5 -37.5t-37.5 -121.5v-315zM749 347v-240h-80v240h-77v73h234v-73h-77z" />
    <glyph glyph-name="warning" horiz-adv-x="854" 
d="M42 4l319 689q27 57 68 57t68 -57l315 -689q14 -29 14 -61q0 -38 -22 -61.5t-60 -23.5h-633q-38 0 -60.5 23.5t-22.5 61.5q0 28 14 61zM471 583h-89l20 -438h50zM427 66q-27 0 -37 -10t-10 -44q0 -36 10 -47t37 -11q28 0 37.5 11t9.5 47q0 34 -9.5 44t-37.5 10z" />
    </font>
</defs>
</svg>
